<svg width="25" height="78" viewBox="0 0 25 78" fill="none" xmlns="http://www.w3.org/2000/svg">
<path d="M12 77C12 77.2761 12.2239 77.5 12.5 77.5L17 77.5C17.2761 77.5 17.5 77.2761 17.5 77C17.5 76.7239 17.2761 76.5 17 76.5L13 76.5L13 72.5C13 72.2239 12.7761 72 12.5 72C12.2239 72 12 72.2239 12 72.5L12 77ZM0.34375 1L0.128829 1.45145C12.0179 7.11147 20.3628 20.5679 23.051 35.3395C25.7379 50.1039 22.7481 66.0447 12.1464 76.6464L12.5 77L12.8536 77.3536C23.7519 66.4553 26.7621 50.1461 24.0349 35.1605C21.309 20.1821 12.8258 6.38853 0.558671 0.548548L0.34375 1Z" fill="white"/>
</svg>
