<svg width="44" height="44" viewBox="0 0 44 44" fill="none" xmlns="http://www.w3.org/2000/svg">
<g filter="url(#filter0_d_4003_53098)">
<rect x="2" y="1" width="40" height="40" rx="20" fill="white" shape-rendering="crispEdges"/>
<rect x="2.5" y="1.5" width="39" height="39" rx="19.5" stroke="#EAECF0" shape-rendering="crispEdges"/>
<path d="M17.2432 22.3301V16.3828C17.2432 15.6719 17.4186 15.1364 17.7695 14.7764C18.125 14.4163 18.6559 14.2363 19.3623 14.2363H22.6094C22.8646 14.2363 23.0879 14.2546 23.2793 14.291C23.4753 14.3229 23.6553 14.3867 23.8193 14.4824C23.9834 14.5736 24.152 14.708 24.3252 14.8857L28.0918 18.7207C28.2741 18.9076 28.4108 19.0853 28.502 19.2539C28.5977 19.418 28.6615 19.6003 28.6934 19.8008C28.7253 20.0013 28.7412 20.2497 28.7412 20.5459V26.7529C28.7412 27.4639 28.5635 27.9971 28.208 28.3525C27.8571 28.7126 27.3285 28.8926 26.6221 28.8926H21.6113C21.7116 28.724 21.7982 28.5462 21.8711 28.3594C21.944 28.1771 22.0033 27.988 22.0488 27.792H26.5674C26.9229 27.792 27.1895 27.7008 27.3672 27.5186C27.5495 27.3363 27.6406 27.0742 27.6406 26.7324V20.5938H23.7441C23.3158 20.5938 22.9945 20.4867 22.7803 20.2725C22.5661 20.0583 22.459 19.737 22.459 19.3086V15.3369H19.417C19.0615 15.3369 18.7926 15.4303 18.6104 15.6172C18.4326 15.804 18.3438 16.0661 18.3438 16.4033V22.3301C18.248 22.321 18.1546 22.3141 18.0635 22.3096C17.9723 22.3005 17.8789 22.2959 17.7832 22.2959C17.6921 22.2959 17.6009 22.3005 17.5098 22.3096C17.4232 22.3141 17.3343 22.321 17.2432 22.3301ZM23.4912 19.1787C23.4912 19.3154 23.5186 19.4134 23.5732 19.4727C23.6325 19.5319 23.7305 19.5615 23.8672 19.5615H27.4287L23.4912 15.5488V19.1787ZM17.7969 30.1846C17.3229 30.1846 16.8763 30.0934 16.457 29.9111C16.0378 29.7334 15.6686 29.485 15.3496 29.166C15.0306 28.847 14.7799 28.4779 14.5977 28.0586C14.4154 27.6393 14.3242 27.1904 14.3242 26.7119C14.3242 26.2334 14.4154 25.7868 14.5977 25.3721C14.7799 24.9528 15.0306 24.5837 15.3496 24.2646C15.6686 23.9411 16.0378 23.6904 16.457 23.5127C16.8763 23.3304 17.3229 23.2393 17.7969 23.2393C18.2754 23.2393 18.7243 23.3304 19.1436 23.5127C19.5628 23.6904 19.932 23.9388 20.251 24.2578C20.57 24.5768 20.8184 24.946 20.9961 25.3652C21.1784 25.7845 21.2695 26.2334 21.2695 26.7119C21.2695 27.1859 21.1784 27.6325 20.9961 28.0518C20.8138 28.471 20.5609 28.8402 20.2373 29.1592C19.9183 29.4782 19.5492 29.7288 19.1299 29.9111C18.7106 30.0934 18.2663 30.1846 17.7969 30.1846ZM17.7969 28.8857C17.9245 28.8857 18.0247 28.847 18.0977 28.7695C18.1751 28.6921 18.2139 28.5918 18.2139 28.4688V27.1289H19.5537C19.6768 27.1289 19.777 27.0902 19.8545 27.0127C19.932 26.9398 19.9707 26.8395 19.9707 26.7119C19.9707 26.5843 19.932 26.484 19.8545 26.4111C19.777 26.3337 19.6768 26.2949 19.5537 26.2949H18.2139V24.9551C18.2139 24.832 18.1751 24.7318 18.0977 24.6543C18.0247 24.5768 17.9245 24.5381 17.7969 24.5381C17.6693 24.5381 17.5667 24.5768 17.4893 24.6543C17.4163 24.7318 17.3799 24.832 17.3799 24.9551V26.2949H16.04C15.917 26.2949 15.8167 26.3337 15.7393 26.4111C15.6618 26.484 15.623 26.5843 15.623 26.7119C15.623 26.8395 15.6618 26.9398 15.7393 27.0127C15.8167 27.0902 15.917 27.1289 16.04 27.1289H17.3799V28.4688C17.3799 28.5918 17.4163 28.6921 17.4893 28.7695C17.5667 28.847 17.6693 28.8857 17.7969 28.8857Z" fill="black"/>
</g>
<defs>
<filter id="filter0_d_4003_53098" x="0" y="0" width="44" height="44" filterUnits="userSpaceOnUse" color-interpolation-filters="sRGB">
<feFlood flood-opacity="0" result="BackgroundImageFix"/>
<feColorMatrix in="SourceAlpha" type="matrix" values="0 0 0 0 0 0 0 0 0 0 0 0 0 0 0 0 0 0 127 0" result="hardAlpha"/>
<feOffset dy="1"/>
<feGaussianBlur stdDeviation="1"/>
<feComposite in2="hardAlpha" operator="out"/>
<feColorMatrix type="matrix" values="0 0 0 0 0.0627451 0 0 0 0 0.0941176 0 0 0 0 0.156863 0 0 0 0.05 0"/>
<feBlend mode="normal" in2="BackgroundImageFix" result="effect1_dropShadow_4003_53098"/>
<feBlend mode="normal" in="SourceGraphic" in2="effect1_dropShadow_4003_53098" result="shape"/>
</filter>
</defs>
</svg>
