<svg width="37" height="38" viewBox="0 0 37 38" fill="none" xmlns="http://www.w3.org/2000/svg">
<path d="M32.4126 31.7986C32.03 32.2639 31.5486 32.6382 31.0033 32.8942C30.458 33.1502 29.8626 33.2815 29.2602 33.2786H7.74097C7.14096 33.2804 6.54812 33.1481 6.00584 32.8913C5.46355 32.6345 4.98552 32.2597 4.60673 31.7944C4.22794 31.3291 3.95796 30.7849 3.81654 30.2018C3.67512 29.6187 3.66583 29.0114 3.78937 28.4242L7.40057 12.1146C7.59917 11.2288 8.08921 10.4354 8.79223 9.86112C9.49525 9.2869 10.3706 8.96515 11.2782 8.94739H11.8406V9.68739C11.8406 10.2762 12.0745 10.8408 12.4908 11.2572C12.9071 11.6735 13.4718 11.9074 14.0606 11.9074C14.6494 11.9074 15.214 11.6735 15.6303 11.2572C16.0467 10.8408 16.2806 10.2762 16.2806 9.68739V8.94739H20.7206V9.68739C20.7206 10.2762 20.9545 10.8408 21.3708 11.2572C21.7871 11.6735 22.3518 11.9074 22.9406 11.9074C23.5294 11.9074 24.094 11.6735 24.5103 11.2572C24.9267 10.8408 25.1606 10.2762 25.1606 9.68739V8.94739H25.723C26.6433 8.94856 27.5358 9.26275 28.2539 9.83832C28.9721 10.4139 29.473 11.2166 29.6746 12.1146L33.2118 28.3946C33.3431 28.9856 33.3394 29.5985 33.201 30.1879C33.0627 30.7772 32.7932 31.3278 32.4126 31.7986Z" fill="black"/>
<path d="M23.6803 8.20734V9.68734C23.6803 9.8836 23.6023 10.0718 23.4636 10.2106C23.3248 10.3494 23.1366 10.4273 22.9403 10.4273C22.7441 10.4273 22.5558 10.3494 22.4171 10.2106C22.2783 10.0718 22.2003 9.8836 22.2003 9.68734V8.20734C22.2003 7.22604 21.8105 6.28493 21.1166 5.59105C20.4227 4.89716 19.4816 4.50734 18.5003 4.50734C17.519 4.50734 16.5779 4.89716 15.884 5.59105C15.1901 6.28493 14.8003 7.22604 14.8003 8.20734V9.68734C14.8003 9.8836 14.7223 10.0718 14.5836 10.2106C14.4448 10.3494 14.2566 10.4273 14.0603 10.4273C13.8641 10.4273 13.6758 10.3494 13.5371 10.2106C13.3983 10.0718 13.3203 9.8836 13.3203 9.68734V8.20734C13.3203 6.83352 13.8661 5.51597 14.8375 4.54453C15.8089 3.57309 17.1265 3.02734 18.5003 3.02734C19.8741 3.02734 21.1917 3.57309 22.1631 4.54453C23.1346 5.51597 23.6803 6.83352 23.6803 8.20734Z" fill="black"/>
<path d="M23.6803 8.20734V9.68734C23.6803 9.8836 23.6023 10.0718 23.4636 10.2106C23.3248 10.3494 23.1366 10.4273 22.9403 10.4273C22.7441 10.4273 22.5558 10.3494 22.4171 10.2106C22.2783 10.0718 22.2003 9.8836 22.2003 9.68734V8.20734C22.2003 7.22604 21.8105 6.28493 21.1166 5.59105C20.4227 4.89716 19.4816 4.50734 18.5003 4.50734C17.519 4.50734 16.5779 4.89716 15.884 5.59105C15.1901 6.28493 14.8003 7.22604 14.8003 8.20734V9.68734C14.8003 9.8836 14.7223 10.0718 14.5836 10.2106C14.4448 10.3494 14.2566 10.4273 14.0603 10.4273C13.8641 10.4273 13.6758 10.3494 13.5371 10.2106C13.3983 10.0718 13.3203 9.8836 13.3203 9.68734V8.20734C13.3203 6.83352 13.8661 5.51597 14.8375 4.54453C15.8089 3.57309 17.1265 3.02734 18.5003 3.02734C19.8741 3.02734 21.1917 3.57309 22.1631 4.54453C23.1346 5.51597 23.6803 6.83352 23.6803 8.20734Z" fill="black"/>
</svg>
