<svg width="41" height="40" viewBox="0 0 41 40" fill="none" xmlns="http://www.w3.org/2000/svg">
<path d="M35.6617 34.304C35.2482 34.8071 34.7278 35.2117 34.1382 35.4885C33.5487 35.7652 32.905 35.9072 32.2537 35.904H8.98975C8.34109 35.906 7.70018 35.7629 7.11393 35.4853C6.52767 35.2077 6.01089 34.8025 5.60138 34.2994C5.19188 33.7964 4.90001 33.2081 4.74712 32.5777C4.59423 31.9474 4.5842 31.2908 4.71775 30.656L8.62175 13.024C8.83645 12.0664 9.36622 11.2086 10.1262 10.5878C10.8863 9.96703 11.8326 9.61919 12.8137 9.59999H13.4218V10.4C13.4218 11.0365 13.6746 11.647 14.1247 12.097C14.5748 12.5471 15.1852 12.8 15.8217 12.8C16.4583 12.8 17.0687 12.5471 17.5188 12.097C17.9689 11.647 18.2217 11.0365 18.2217 10.4V9.59999H23.0217V10.4C23.0217 11.0365 23.2746 11.647 23.7247 12.097C24.1748 12.5471 24.7852 12.8 25.4217 12.8C26.0583 12.8 26.6687 12.5471 27.1188 12.097C27.5689 11.647 27.8218 11.0365 27.8218 10.4V9.59999H28.4297C29.4247 9.60126 30.3896 9.94092 31.1659 10.5632C31.9423 11.1854 32.4839 12.0532 32.7017 13.024L36.5257 30.624C36.6677 31.2629 36.6637 31.9256 36.5142 32.5627C36.3646 33.1998 36.0732 33.795 35.6617 34.304Z" fill="white"/>
<path d="M26.222 8.8V10.4C26.222 10.6122 26.1377 10.8157 25.9877 10.9657C25.8376 11.1157 25.6341 11.2 25.422 11.2C25.2098 11.2 25.0063 11.1157 24.8563 10.9657C24.7063 10.8157 24.622 10.6122 24.622 10.4V8.8C24.622 7.73913 24.2005 6.72172 23.4504 5.97157C22.7003 5.22142 21.6828 4.8 20.622 4.8C19.5611 4.8 18.5437 5.22142 17.7935 5.97157C17.0434 6.72172 16.622 7.73913 16.622 8.8V10.4C16.622 10.6122 16.5377 10.8157 16.3877 10.9657C16.2376 11.1157 16.0341 11.2 15.822 11.2C15.6098 11.2 15.4063 11.1157 15.2563 10.9657C15.1063 10.8157 15.022 10.6122 15.022 10.4V8.8C15.022 7.31478 15.612 5.8904 16.6622 4.8402C17.7124 3.79 19.1368 3.2 20.622 3.2C22.1072 3.2 23.5316 3.79 24.5818 4.8402C25.632 5.8904 26.222 7.31478 26.222 8.8Z" fill="white"/>
<path d="M26.222 8.8V10.4C26.222 10.6122 26.1377 10.8157 25.9877 10.9657C25.8376 11.1157 25.6341 11.2 25.422 11.2C25.2098 11.2 25.0063 11.1157 24.8563 10.9657C24.7063 10.8157 24.622 10.6122 24.622 10.4V8.8C24.622 7.73913 24.2005 6.72172 23.4504 5.97157C22.7003 5.22142 21.6828 4.8 20.622 4.8C19.5611 4.8 18.5437 5.22142 17.7935 5.97157C17.0434 6.72172 16.622 7.73913 16.622 8.8V10.4C16.622 10.6122 16.5377 10.8157 16.3877 10.9657C16.2376 11.1157 16.0341 11.2 15.822 11.2C15.6098 11.2 15.4063 11.1157 15.2563 10.9657C15.1063 10.8157 15.022 10.6122 15.022 10.4V8.8C15.022 7.31478 15.612 5.8904 16.6622 4.8402C17.7124 3.79 19.1368 3.2 20.622 3.2C22.1072 3.2 23.5316 3.79 24.5818 4.8402C25.632 5.8904 26.222 7.31478 26.222 8.8Z" fill="white"/>
</svg>
