<svg width="33" height="34" viewBox="0 0 33 34" fill="none" xmlns="http://www.w3.org/2000/svg">
<path d="M27.8438 6.375H5.15629C4.60928 6.375 4.08467 6.59888 3.69788 6.9974C3.31109 7.39591 3.09379 7.93641 3.09379 8.5V29.75C3.09141 30.1552 3.20267 30.5525 3.4142 30.8942C3.62572 31.2358 3.92851 31.5072 4.28617 31.6758C4.55872 31.8065 4.85564 31.8745 5.15629 31.875C5.64046 31.8738 6.10858 31.6959 6.47758 31.373L6.48918 31.3637L10.6993 27.625H27.8438C28.3908 27.625 28.9154 27.4011 29.3022 27.0026C29.689 26.6041 29.9063 26.0636 29.9063 25.5V8.5C29.9063 7.93641 29.689 7.39591 29.3022 6.9974C28.9154 6.59888 28.3908 6.375 27.8438 6.375ZM20.625 20.1875H12.375C12.1015 20.1875 11.8392 20.0756 11.6458 19.8763C11.4524 19.677 11.3438 19.4068 11.3438 19.125C11.3438 18.8432 11.4524 18.573 11.6458 18.3737C11.8392 18.1744 12.1015 18.0625 12.375 18.0625H20.625C20.8985 18.0625 21.1608 18.1744 21.3542 18.3737C21.5476 18.573 21.6563 18.8432 21.6563 19.125C21.6563 19.4068 21.5476 19.677 21.3542 19.8763C21.1608 20.0756 20.8985 20.1875 20.625 20.1875ZM20.625 15.9375H12.375C12.1015 15.9375 11.8392 15.8256 11.6458 15.6263C11.4524 15.427 11.3438 15.1568 11.3438 14.875C11.3438 14.5932 11.4524 14.323 11.6458 14.1237C11.8392 13.9244 12.1015 13.8125 12.375 13.8125H20.625C20.8985 13.8125 21.1608 13.9244 21.3542 14.1237C21.5476 14.323 21.6563 14.5932 21.6563 14.875C21.6563 15.1568 21.5476 15.427 21.3542 15.6263C21.1608 15.8256 20.8985 15.9375 20.625 15.9375Z" fill="black"/>
</svg>
