<svg width="13" height="14" viewBox="0 0 13 14" fill="none" xmlns="http://www.w3.org/2000/svg">
<path d="M1.27762 6.99021C1.27762 8.40989 1.83113 9.77144 2.81638 10.7753C3.80163 11.7792 5.13791 12.3431 6.53127 12.3431C7.92462 12.3431 9.26091 11.7792 10.2462 10.7753C11.2314 9.77144 11.7849 8.40989 11.7849 6.99021C11.7849 5.57052 11.2314 4.20898 10.2462 3.2051C9.26091 2.20123 7.92462 1.63726 6.53127 1.63726C5.13791 1.63726 3.80163 2.20123 2.81638 3.2051C1.83113 4.20898 1.27762 5.57052 1.27762 6.99021ZM12.5354 6.99021C12.5354 8.61271 11.9029 10.1688 10.7769 11.316C9.65085 12.4633 8.12367 13.1079 6.53127 13.1079C4.93886 13.1079 3.41168 12.4633 2.28568 11.316C1.15968 10.1688 0.5271 8.61271 0.5271 6.99021C0.5271 5.3677 1.15968 3.81166 2.28568 2.66438C3.41168 1.51709 4.93886 0.872559 6.53127 0.872559C8.12367 0.872559 9.65085 1.51709 10.7769 2.66438C11.9029 3.81166 12.5354 5.3677 12.5354 6.99021ZM6.64084 4.68997C5.73121 4.68997 5.19459 5.3935 5.19459 6.60326V7.41385C5.19459 8.61521 5.7222 9.29656 6.64084 9.29656C7.3756 9.29656 7.87245 8.84844 7.93849 8.21221H8.91042V8.28332C8.83537 9.39062 7.89421 10.1699 6.63634 10.1699C5.067 10.1699 4.18289 9.14821 4.18289 7.41462V6.59409C4.18289 4.86509 5.08426 3.81209 6.63709 3.81209C7.89872 3.81209 8.83987 4.61809 8.91042 5.77891V5.84621H7.93849C7.87245 5.17403 7.36209 4.68997 6.64084 4.68997Z" fill="#F8F8F8"/>
</svg>
