<svg width="18" height="18" viewBox="0 0 18 18" fill="none" xmlns="http://www.w3.org/2000/svg">
    <path d="M14.0409 2.87988H3.96086C3.67443 2.87988 3.39972 2.99367 3.19718 3.19621C2.99464 3.39875 2.88086 3.67345 2.88086 3.95988V5.39988C2.88086 5.49536 2.91879 5.58693 2.9863 5.65444C3.05381 5.72195 3.14538 5.75988 3.24086 5.75988H14.7609C14.8563 5.75988 14.9479 5.72195 15.0154 5.65444C15.0829 5.58693 15.1209 5.49536 15.1209 5.39988V3.95988C15.1209 3.67345 15.0071 3.39875 14.8045 3.19621C14.602 2.99367 14.3273 2.87988 14.0409 2.87988Z" fill="black"/>
    <path d="M11.8817 3.60008C11.7862 3.60008 11.6947 3.56215 11.6272 3.49464C11.5596 3.42713 11.5217 3.33556 11.5217 3.24008V2.34008C11.5217 2.27528 11.3921 2.16008 11.1689 2.16008H6.84892C6.61132 2.16008 6.48172 2.27528 6.48172 2.34008V3.24008C6.48172 3.33556 6.44379 3.42713 6.37628 3.49464C6.30876 3.56215 6.2172 3.60008 6.12172 3.60008C6.02624 3.60008 5.93467 3.56215 5.86716 3.49464C5.79965 3.42713 5.76172 3.33556 5.76172 3.24008V2.34008C5.77258 2.21036 5.80901 2.08408 5.86891 1.9685C5.9288 1.85293 6.01098 1.75035 6.11071 1.66669C6.21044 1.58303 6.32574 1.51993 6.44996 1.48104C6.57419 1.44215 6.70489 1.42823 6.83452 1.44008H11.1545C11.2853 1.4262 11.4175 1.43861 11.5434 1.47657C11.6693 1.51453 11.7863 1.57728 11.8876 1.66114C11.9889 1.74499 12.0724 1.84825 12.1332 1.96485C12.1941 2.08145 12.2309 2.20902 12.2417 2.34008V3.24008C12.2417 3.33556 12.2038 3.42713 12.1363 3.49464C12.0688 3.56215 11.9772 3.60008 11.8817 3.60008Z" fill="black"/>
    <path d="M14.4016 6.48047V15.4805C14.4016 15.7669 14.2878 16.0416 14.0852 16.2441C13.8827 16.4467 13.608 16.5605 13.3216 16.5605H4.68156C4.39513 16.5605 4.12043 16.4467 3.91789 16.2441C3.71535 16.0416 3.60156 15.7669 3.60156 15.4805V6.48047H14.4016Z" fill="black"/>
    </svg>
    