<svg width="512" height="512" viewBox="0 0 512 512" fill="none" xmlns="http://www.w3.org/2000/svg">
<path d="M219.75 256.205C219.75 248.057 222.987 240.244 228.748 234.482C234.509 228.721 242.323 225.485 250.47 225.485H349.389V72.4992C349.498 68.3966 348.785 64.3137 347.29 60.4915C345.795 56.6693 343.55 53.1853 340.686 50.2454C337.822 47.3054 334.399 44.9691 330.617 43.3743C326.836 41.7795 322.773 40.9586 318.669 40.96H77.2096C69.0621 40.96 61.2484 44.1966 55.4873 49.9577C49.7262 55.7188 46.4896 63.5326 46.4896 71.68V439.501C46.3802 443.603 47.0939 447.686 48.5886 451.509C50.0834 455.331 52.3288 458.815 55.1924 461.755C58.056 464.695 61.4797 467.031 65.2612 468.626C69.0428 470.221 73.1055 471.041 77.2096 471.04H318.669C326.816 471.04 334.63 467.803 340.391 462.042C346.152 456.281 349.389 448.467 349.389 440.32V286.72H250.47C242.358 286.72 234.575 283.512 228.82 277.795C223.065 272.078 219.804 264.317 219.75 256.205Z" fill="white"/>
<path d="M462.029 248.627L391.578 179.61C390.658 178.63 389.548 177.849 388.315 177.316C387.082 176.782 385.753 176.506 384.41 176.506C383.066 176.506 381.737 176.782 380.504 177.316C379.271 177.849 378.161 178.63 377.242 179.61C376.282 180.562 375.52 181.694 375 182.942C374.48 184.19 374.213 185.528 374.213 186.88C374.213 188.232 374.48 189.57 375 190.818C375.52 192.066 376.282 193.198 377.242 194.15L430.08 245.76H250.47C247.755 245.76 245.15 246.839 243.23 248.759C241.309 250.68 240.23 253.284 240.23 256C240.23 258.716 241.309 261.32 243.23 263.241C245.15 265.161 247.755 266.24 250.47 266.24H430.08L377.242 318.259C375.864 319.716 374.935 321.539 374.565 323.509C374.195 325.48 374.4 327.516 375.156 329.373C375.912 331.23 377.187 332.83 378.827 333.983C380.468 335.135 382.406 335.791 384.41 335.872C385.753 335.888 387.084 335.623 388.319 335.094C389.553 334.565 390.663 333.784 391.578 332.8L462.029 263.782C463.118 262.821 463.991 261.64 464.589 260.315C465.187 258.991 465.496 257.555 465.496 256.102C465.496 254.65 465.187 253.213 464.589 251.889C463.991 250.565 463.118 249.383 462.029 248.422V248.627Z" fill="white"/>
</svg>
