<svg width="32" height="33" viewBox="0 0 32 33" fill="none" xmlns="http://www.w3.org/2000/svg">
<path d="M3.2002 3.7C3.2002 1.93269 4.63288 0.5 6.4002 0.5H19.2002L28.8002 10.1V29.3C28.8002 31.0673 27.3675 32.5 25.6002 32.5H6.4002C4.63289 32.5 3.2002 31.0673 3.2002 29.3V3.7Z" fill="black"/>
<path opacity="0.3" d="M19.2002 0.5L28.8002 10.1H22.4002C20.6329 10.1 19.2002 8.66731 19.2002 6.9V0.5Z" fill="white"/>
<path d="M9.39945 25.9004V20.664H11.4654C11.8625 20.664 12.2009 20.7399 12.4804 20.8916C12.76 21.0416 12.973 21.2504 13.1196 21.518C13.2679 21.7839 13.3421 22.0907 13.3421 22.4385C13.3421 22.7862 13.2671 23.093 13.1171 23.3589C12.9671 23.6248 12.7497 23.8319 12.4651 23.9802C12.1821 24.1285 11.8395 24.2027 11.4372 24.2027H10.1205V23.3154H11.2583C11.4713 23.3154 11.6469 23.2788 11.785 23.2055C11.9247 23.1305 12.0287 23.0274 12.0969 22.8961C12.1668 22.7632 12.2017 22.6106 12.2017 22.4385C12.2017 22.2646 12.1668 22.1129 12.0969 21.9833C12.0287 21.8521 11.9247 21.7507 11.785 21.6791C11.6452 21.6058 11.4679 21.5691 11.2531 21.5691H10.5066V25.9004H9.39945ZM15.9174 25.9004H14.0612V20.664H15.9328C16.4595 20.664 16.9129 20.7689 17.293 20.9785C17.6731 21.1865 17.9654 21.4856 18.17 21.876C18.3762 22.2663 18.4794 22.7333 18.4794 23.2771C18.4794 23.8225 18.3762 24.2913 18.17 24.6833C17.9654 25.0754 17.6714 25.3762 17.2879 25.5859C16.9061 25.7956 16.4492 25.9004 15.9174 25.9004ZM15.1683 24.9518H15.8714C16.1987 24.9518 16.474 24.8939 16.6972 24.7779C16.9222 24.6603 17.091 24.4788 17.2035 24.2333C17.3177 23.9862 17.3748 23.6674 17.3748 23.2771C17.3748 22.8902 17.3177 22.574 17.2035 22.3285C17.091 22.0831 16.9231 21.9024 16.6998 21.7865C16.4765 21.6706 16.2012 21.6126 15.874 21.6126H15.1683V24.9518ZM19.2994 25.9004V20.664H22.7665V21.5768H20.4066V22.8245H22.5364V23.7373H20.4066V25.9004H19.2994Z" fill="white"/>
</svg>
