<svg width="41" height="40" viewBox="0 0 41 40" fill="none" xmlns="http://www.w3.org/2000/svg">
<g clip-path="url(#clip0_8_7)">
<path d="M20 3C10.6112 3 3 10.6112 3 20C3 29.3888 10.6112 37 20 37C29.3888 37 37 29.3888 37 20C37 10.6112 29.3888 3 20 3Z" stroke="white" stroke-width="2" stroke-linecap="round" stroke-linejoin="round"/>
<path d="M20 17.875V28.5" stroke="white" stroke-width="3" stroke-linecap="round" stroke-linejoin="round"/>
<path d="M20 9.375C18.8264 9.375 17.875 10.3264 17.875 11.5C17.875 12.6736 18.8264 13.625 20 13.625C21.1736 13.625 22.125 12.6736 22.125 11.5C22.125 10.3264 21.1736 9.375 20 9.375Z" fill="white"/>
</g>
<defs>
<clipPath id="clip0_8_7">
<rect width="41" height="40" fill="white" transform="matrix(-1 0 0 -1 41 40)"/>
</clipPath>
</defs>
</svg>
