<svg width="37" height="38" viewBox="0 0 37 38" fill="none" xmlns="http://www.w3.org/2000/svg">
<path d="M18.5004 34.2924C27.1851 34.2924 34.2254 27.2521 34.2254 18.5674C34.2254 9.88273 27.1851 2.84241 18.5004 2.84241C9.81571 2.84241 2.77539 9.88273 2.77539 18.5674C2.77539 27.2521 9.81571 34.2924 18.5004 34.2924Z" fill="black"/>
<path fill-rule="evenodd" clip-rule="evenodd" d="M18.5 20.5331V10.705V20.5331Z" fill="black"/>
<path d="M18.5 20.5331V10.705" stroke="white" stroke-width="3" stroke-linecap="round" stroke-linejoin="round"/>
<path d="M18.501 25.4642C19.0342 25.4643 19.4668 25.8968 19.4668 26.4301C19.4667 26.9632 19.0341 27.3958 18.501 27.3959C17.9677 27.3959 17.5353 26.9633 17.5352 26.4301C17.5352 25.8968 17.9677 25.4642 18.501 25.4642Z" fill="black" stroke="white" stroke-width="2"/>
</svg>
