<svg width="512" height="512" viewBox="0 0 512 512" fill="none" xmlns="http://www.w3.org/2000/svg">
<path d="M104.038 92.5697L184.32 78.4385V268.698L163.84 265.011L143.36 261.53L104.038 254.566H102.4C94.9973 253.211 87.9964 250.2 81.92 245.76C75.4604 240.621 70.2582 234.076 66.7093 226.623C63.1604 219.17 61.3582 211.006 61.44 202.752V145.203C61.2132 132.82 65.3603 120.754 73.1519 111.127C80.9434 101.5 91.8802 94.9289 104.038 92.5697Z" fill="white"/>
<path d="M450.56 94.8225V252.314C450.526 260.111 448.807 267.808 445.519 274.878C442.232 281.948 437.454 288.223 431.514 293.274C422.531 300.9 411.143 305.107 399.36 305.152C396.501 305.454 393.618 305.454 390.758 305.152L204.8 272.179V74.7521L390.758 41.9841C397.979 40.7096 405.392 41.0397 412.47 42.9509C419.549 44.8622 426.121 48.3078 431.718 53.0433C437.706 58.2204 442.493 64.6399 445.747 71.8551C449 79.0703 450.643 86.9079 450.56 94.8225Z" fill="white"/>
<path d="M163.84 265.011V417.587C164.933 429.646 161.256 441.654 153.599 451.034C145.942 460.414 134.914 466.42 122.88 467.763C110.846 466.42 99.818 460.414 92.1608 451.034C84.5037 441.654 80.8272 429.646 81.9199 417.587V245.76C87.9399 250.419 94.9448 253.641 102.4 255.181H104.038L143.36 261.53L163.84 265.011Z" fill="white"/>
</svg>
