<svg width="512" height="512" viewBox="0 0 512 512" fill="none" xmlns="http://www.w3.org/2000/svg">
<path d="M430.08 244.327V400.384C430.637 408.44 429.6 416.527 427.029 424.182C424.458 431.837 420.403 438.911 415.096 444.997C409.789 451.084 403.335 456.065 396.101 459.655C388.868 463.245 380.998 465.374 372.941 465.92H307.2V343.04C307.2 329.461 301.806 316.438 292.204 306.836C282.602 297.234 269.579 291.84 256 291.84C242.421 291.84 229.398 297.234 219.796 306.836C210.194 316.438 204.8 329.461 204.8 343.04V465.92H139.059C131.002 465.374 123.132 463.245 115.899 459.655C108.665 456.065 102.211 451.084 96.9037 444.997C91.5969 438.911 87.5419 431.837 84.9709 424.182C82.3998 416.527 81.3631 408.44 81.9199 400.384V244.327C92.2129 248.712 103.295 250.942 114.483 250.88H138.854C157.995 250.918 176.545 244.251 191.283 232.039C206.076 244.296 224.706 250.966 243.917 250.88H268.083C287.294 250.966 305.924 244.296 320.717 232.039C335.455 244.251 354.005 250.918 373.146 250.88H397.517C408.705 250.942 419.787 248.712 430.08 244.327Z" fill="white"/>
<path d="M460.186 156.058V167.731C460.291 178.498 457.565 189.103 452.282 198.484C446.998 207.865 439.342 215.693 430.08 221.184C420.302 227.244 409.02 230.437 397.517 230.4H373.146C362.71 230.364 352.449 227.722 343.294 222.715C334.138 217.708 326.378 210.494 320.717 201.728C315.023 210.51 307.228 217.733 298.036 222.739C288.845 227.746 278.55 230.379 268.083 230.4H243.917C233.45 230.379 223.155 227.746 213.964 222.739C204.772 217.733 196.977 210.51 191.283 201.728C185.622 210.494 177.862 217.708 168.706 222.715C159.551 227.722 149.29 230.364 138.854 230.4H114.483C102.98 230.437 91.6976 227.244 81.92 221.184C72.6582 215.693 65.002 207.865 59.7182 198.484C54.4345 189.103 51.7089 178.498 51.8144 167.731V156.058C51.7329 147.939 53.6977 139.931 57.5277 132.772C61.3576 125.614 66.9291 119.535 73.7279 115.098C73.6321 114.694 73.6321 114.273 73.7279 113.869L85.6063 81.92C89.4117 71.6041 96.3172 62.7192 105.375 56.4853C114.432 50.2514 125.197 46.9743 136.192 47.104H375.808C386.803 46.9743 397.568 50.2514 406.625 56.4853C415.683 62.7192 422.588 71.6041 426.394 81.92L438.067 115.302C438.163 115.706 438.163 116.127 438.067 116.531C444.702 120.812 450.187 126.653 454.043 133.543C457.899 140.434 460.008 148.164 460.186 156.058Z" fill="white"/>
</svg>
