<svg width="18" height="18" viewBox="0 0 18 18" fill="none" xmlns="http://www.w3.org/2000/svg">
<path d="M12.4172 9.67949L12.0759 10.0192C12.0759 10.0192 11.2637 10.8262 9.0474 8.62274C6.83115 6.41923 7.6434 5.61223 7.6434 5.61223L7.8579 5.39773C8.38815 4.87123 8.4384 4.02523 7.97565 3.40723L7.03065 2.14498C6.45765 1.37998 5.3514 1.27873 4.69515 1.93123L3.51765 3.10123C3.1929 3.42523 2.9754 3.84373 3.00165 4.30873C3.06915 5.49898 3.60765 8.05873 6.61065 11.0452C9.7959 14.2117 12.7847 14.3377 14.0064 14.2237C14.3934 14.1877 14.7294 13.9912 15.0002 13.7212L16.0652 12.6622C16.7852 11.9475 16.5827 10.7212 15.6617 10.221L14.2292 9.44173C13.6247 9.11398 12.8897 9.20999 12.4172 9.67949Z" fill="white"/>
</svg>
