<svg width="13" height="13" viewBox="0 0 13 13" fill="none" xmlns="http://www.w3.org/2000/svg">
<path d="M8.75 2.25C10.1522 2.25 11.25 3.34337 11.25 4.75C11.25 5.6103 10.8645 6.41294 10.1348 7.30566C9.58542 7.97775 8.85611 8.68389 7.98047 9.48926L7.05664 10.3301L6.5 10.8369L5.94336 10.3301L5.01953 9.48926C4.14389 8.68389 3.41458 7.97775 2.86523 7.30566C2.13555 6.41294 1.75 5.6103 1.75 4.75C1.75 3.34337 2.84777 2.25 4.25 2.25C5.04442 2.25 5.81129 2.62142 6.31055 3.20312L6.5 3.42383L6.68945 3.20312C7.18871 2.62142 7.95558 2.25 8.75 2.25Z" stroke="black" stroke-width="0.5"/>
</svg>
