<svg width="21" height="26" viewBox="0 0 21 26" fill="none" xmlns="http://www.w3.org/2000/svg">
<path d="M17.9869 8.69141H16.7564V6.30301C16.7564 3.00703 14 0.332031 10.6038 0.332031C7.20764 0.332031 4.45129 3.00703 4.45129 6.30301V8.69141H3.22078C1.86722 8.69141 0.759766 9.76618 0.759766 11.0798V23.0218C0.759766 24.3354 1.86722 25.4102 3.22078 25.4102H17.9869C19.3405 25.4102 20.4479 24.3354 20.4479 23.0218V11.0798C20.4479 9.76618 19.3405 8.69141 17.9869 8.69141ZM6.91231 6.30301C6.91231 4.32065 8.5612 2.72042 10.6038 2.72042C12.6465 2.72042 14.2954 4.32065 14.2954 6.30301V8.69141H6.91231V6.30301ZM17.9869 23.0218H3.22078V11.0798H17.9869V23.0218ZM10.6038 19.4392C11.9574 19.4392 13.0649 18.3644 13.0649 17.0508C13.0649 15.7372 11.9574 14.6624 10.6038 14.6624C9.25028 14.6624 8.14282 15.7372 8.14282 17.0508C8.14282 18.3644 9.25028 19.4392 10.6038 19.4392Z" fill="white"/>
</svg>
