<svg width="18" height="19" viewBox="0 0 18 19" fill="none" xmlns="http://www.w3.org/2000/svg">
<path d="M9.75 16.25C9.5375 16.25 9.3595 16.178 9.216 16.034C9.0725 15.89 9.0005 15.712 9 15.5C8.9995 15.288 9.0715 15.11 9.216 14.966C9.3605 14.822 9.5385 14.75 9.75 14.75H14.25V4.25H9.75C9.5375 4.25 9.3595 4.178 9.216 4.034C9.0725 3.89 9.0005 3.712 9 3.5C8.9995 3.288 9.0715 3.11 9.216 2.966C9.3605 2.822 9.5385 2.75 9.75 2.75H14.25C14.6625 2.75 15.0158 2.897 15.3098 3.191C15.6038 3.485 15.7505 3.838 15.75 4.25V14.75C15.75 15.1625 15.6033 15.5158 15.3098 15.8098C15.0163 16.1038 14.663 16.2505 14.25 16.25H9.75ZM8.38125 10.25H3C2.7875 10.25 2.6095 10.178 2.466 10.034C2.3225 9.89 2.2505 9.712 2.25 9.5C2.2495 9.288 2.3215 9.11 2.466 8.966C2.6105 8.822 2.7885 8.75 3 8.75H8.38125L6.975 7.34375C6.8375 7.20625 6.76875 7.0375 6.76875 6.8375C6.76875 6.6375 6.8375 6.4625 6.975 6.3125C7.1125 6.1625 7.2875 6.08425 7.5 6.07775C7.7125 6.07125 7.89375 6.14325 8.04375 6.29375L10.725 8.975C10.875 9.125 10.95 9.3 10.95 9.5C10.95 9.7 10.875 9.875 10.725 10.025L8.04375 12.7062C7.89375 12.8562 7.71575 12.9282 7.50975 12.9222C7.30375 12.9162 7.1255 12.838 6.975 12.6875C6.8375 12.5375 6.772 12.3595 6.7785 12.1535C6.785 11.9475 6.85675 11.7755 6.99375 11.6375L8.38125 10.25Z" fill="black"/>
</svg>
