<svg width="19" height="19" viewBox="0 0 19 19" fill="none" xmlns="http://www.w3.org/2000/svg">
<path d="M14.5469 12.2151H12.6531C12.5413 12.2152 12.431 12.2405 12.3303 12.2892C12.2297 12.3379 12.1413 12.4087 12.0719 12.4963L9.87813 15.2338C9.80786 15.3217 9.71873 15.3926 9.61734 15.4414C9.51594 15.4901 9.40488 15.5154 9.29238 15.5154C9.17987 15.5154 9.06881 15.4901 8.96741 15.4414C8.86602 15.3926 8.77689 15.3217 8.70663 15.2338L6.51288 12.4963C6.44334 12.4086 6.35487 12.3378 6.25409 12.2891C6.1533 12.2404 6.04281 12.2151 5.93088 12.2151H4.04688C2.80038 12.2151 1.79688 11.2116 1.79688 9.96509V4.71509C1.79688 3.46859 2.80038 2.46509 4.04688 2.46509H14.5469C15.7941 2.46509 16.7969 3.46859 16.7969 4.71509V9.96509C16.7969 11.2116 15.7941 12.2151 14.5469 12.2151Z" fill="white"/>
</svg>
