<svg width="19" height="19" viewBox="0 0 19 19" fill="none" xmlns="http://www.w3.org/2000/svg">
<path fill-rule="evenodd" clip-rule="evenodd" d="M3.69889 4.54863C4.40211 3.84562 5.35577 3.45068 6.35014 3.45068C7.3445 3.45068 8.29816 3.84562 9.00139 4.54863C9.13889 4.68563 9.31589 4.85613 9.53239 5.06013C9.74839 4.85613 9.92514 4.68563 10.0626 4.54863C10.7629 3.85164 11.71 3.45917 12.698 3.45652C13.686 3.45388 14.6352 3.84127 15.3392 4.5345C16.0432 5.22774 16.4452 6.1708 16.4577 7.15875C16.4703 8.14669 16.0925 9.09969 15.4064 9.81063L10.0619 15.1551C9.92124 15.2957 9.73051 15.3747 9.53164 15.3747C9.33276 15.3747 9.14203 15.2957 9.00139 15.1551L3.65689 9.81138C2.97142 9.10443 2.59152 8.15623 2.59924 7.17156C2.60695 6.18688 3.00242 5.24475 3.69889 4.54863Z" fill="white"/>
</svg>
