<svg width="19" height="19" viewBox="0 0 19 19" fill="none" xmlns="http://www.w3.org/2000/svg">
<g clip-path="url(#clip0_2088_6694)">
<path d="M17.5373 6.63986C17.3422 6.17615 17.018 5.84182 16.5997 5.67342L16.5941 5.67131C16.4036 5.59676 16.2009 5.5586 15.9964 5.55881H15.9739C15.0162 5.57322 14.0385 6.38709 13.5414 7.58416C13.1769 8.45955 13.135 9.40104 13.4296 10.1028C13.6244 10.5668 13.9493 10.9012 14.3694 11.0696L14.3739 11.0713C14.5644 11.1459 14.7671 11.184 14.9716 11.1838C15.9384 11.1838 16.9263 10.3699 17.4325 9.15705C17.7925 8.28272 17.8323 7.34193 17.5373 6.63986ZM13.7109 11.8029C13.1586 11.471 12.6365 11.1571 12.2955 10.5932C11.3547 9.03225 10.7866 8.09006 9.29702 8.09006C7.80745 8.09006 7.23792 9.03225 6.29503 10.5932C5.95331 11.1578 5.43019 11.4721 4.87612 11.8054C4.24085 12.1872 3.58448 12.5816 3.30112 13.3579C3.19094 13.6377 3.13545 13.9361 3.13765 14.2368C3.13765 15.5006 4.12202 16.529 5.3314 16.529C5.95542 16.529 6.61952 16.3128 7.3223 16.0839C7.998 15.8638 8.69655 15.6363 9.30054 15.6363C9.90452 15.6363 10.6013 15.8638 11.2746 16.0839C11.9759 16.3113 12.6369 16.5276 13.2626 16.5276C14.4703 16.5276 15.4529 15.4992 15.4529 14.2354C15.4539 13.9344 15.3972 13.6361 15.2859 13.3565C15.0025 12.5795 14.3458 12.1847 13.7109 11.8029ZM5.57046 6.85432C5.98882 7.3792 6.51968 7.66818 7.0653 7.66818C7.13979 7.66817 7.21417 7.66264 7.28784 7.65166C8.42585 7.48432 9.13495 6.09564 8.90222 4.4876C8.80484 3.81154 8.54468 3.18189 8.17202 2.71502C7.75437 2.19119 7.2228 1.90256 6.67753 1.90256C6.60305 1.90258 6.52866 1.9081 6.45499 1.91908C5.31698 2.08643 4.60788 3.4751 4.84062 5.08314C4.93765 5.75814 5.1978 6.38709 5.57046 6.85432ZM11.3066 7.65166C11.3802 7.66264 11.4546 7.66817 11.5291 7.66818C12.0751 7.66818 12.6056 7.3792 13.0239 6.85432C13.3962 6.38709 13.655 5.75814 13.7534 5.08244C13.9862 3.4751 13.2771 2.08643 12.1391 1.91838C12.0654 1.9074 11.991 1.90187 11.9165 1.90186C11.3712 1.90256 10.8397 2.19119 10.422 2.71502C10.0494 3.18189 9.78921 3.81154 9.69218 4.4883C9.45944 6.09564 10.1685 7.48432 11.3066 7.65166ZM4.22011 11.0713L4.22503 11.0696C4.64444 10.9012 4.96894 10.5672 5.16335 10.1035C5.45796 9.40033 5.41648 8.4599 5.05261 7.58451C4.54882 6.37303 3.56128 5.55881 2.59554 5.55881C2.39103 5.55851 2.18829 5.59668 1.99788 5.67131L1.99296 5.67307C1.5746 5.84006 1.25011 6.17545 1.05569 6.63916C0.761085 7.34229 0.802569 8.28272 1.16644 9.15811C1.67023 10.3696 2.65776 11.1838 3.62351 11.1838C3.82766 11.184 4.03003 11.1458 4.22011 11.0713Z" fill="white"/>
</g>
<defs>
<clipPath id="clip0_2088_6694">
<rect width="18" height="18" fill="white" transform="translate(0.296875 0.215088)"/>
</clipPath>
</defs>
</svg>
