<svg width="19" height="19" viewBox="0 0 19 19" fill="none" xmlns="http://www.w3.org/2000/svg">
<path fill-rule="evenodd" clip-rule="evenodd" d="M6.29688 5.46509C6.29688 4.66944 6.61295 3.90638 7.17555 3.34377C7.73816 2.78116 8.50123 2.46509 9.29688 2.46509C10.0925 2.46509 10.8556 2.78116 11.4182 3.34377C11.9808 3.90638 12.2969 4.66944 12.2969 5.46509C12.2969 6.26074 11.9808 7.0238 11.4182 7.58641C10.8556 8.14902 10.0925 8.46509 9.29688 8.46509C8.50123 8.46509 7.73816 8.14902 7.17555 7.58641C6.61295 7.0238 6.29688 6.26074 6.29688 5.46509ZM6.29688 9.96509C5.30231 9.96509 4.34849 10.3602 3.64522 11.0634C2.94196 11.7667 2.54688 12.7205 2.54688 13.7151C2.54688 14.3118 2.78393 14.8841 3.20588 15.3061C3.62784 15.728 4.20014 15.9651 4.79688 15.9651H13.7969C14.3936 15.9651 14.9659 15.728 15.3879 15.3061C15.8098 14.8841 16.0469 14.3118 16.0469 13.7151C16.0469 12.7205 15.6518 11.7667 14.9485 11.0634C14.2453 10.3602 13.2914 9.96509 12.2969 9.96509H6.29688Z" fill="white"/>
</svg>
