<svg width="33" height="33" viewBox="0 0 33 33" fill="none" xmlns="http://www.w3.org/2000/svg">
    <path d="M10.1508 0.959961H5.08916C2.80867 0.959961 0.959961 2.80867 0.959961 5.08916V10.1508C0.959961 12.4313 2.80867 14.28 5.08916 14.28H10.1508C12.4313 14.28 14.28 12.4313 14.28 10.1508V5.08916C14.28 2.80867 12.4313 0.959961 10.1508 0.959961Z" fill="black"/>
    <path d="M27.9105 0.959961H22.8489C20.5684 0.959961 18.7197 2.80867 18.7197 5.08916V10.1508C18.7197 12.4313 20.5684 14.28 22.8489 14.28H27.9105C30.191 14.28 32.0397 12.4313 32.0397 10.1508V5.08916C32.0397 2.80867 30.191 0.959961 27.9105 0.959961Z" fill="black"/>
    <path d="M10.1508 18.72H5.08916C2.80867 18.72 0.959961 20.5687 0.959961 22.8492V27.9108C0.959961 30.1913 2.80867 32.04 5.08916 32.04H10.1508C12.4313 32.04 14.28 30.1913 14.28 27.9108V22.8492C14.28 20.5687 12.4313 18.72 10.1508 18.72Z" fill="black"/>
    <path d="M27.9105 18.72H22.8489C20.5684 18.72 18.7197 20.5687 18.7197 22.8492V27.9108C18.7197 30.1913 20.5684 32.04 22.8489 32.04H27.9105C30.191 32.04 32.0397 30.1913 32.0397 27.9108V22.8492C32.0397 20.5687 30.191 18.72 27.9105 18.72Z" fill="black"/>
    </svg>
    