<svg width="37" height="36" viewBox="0 0 37 36" fill="none" xmlns="http://www.w3.org/2000/svg">
<path fill-rule="evenodd" clip-rule="evenodd" d="M4.26923 2.63403H13.5192C14.7725 2.63403 15.7885 3.65 15.7885 4.90326V13.4417C15.7885 14.695 14.7725 15.711 13.5192 15.711H4.26923C3.01597 15.711 2 14.695 2 13.4417V4.90326C2 3.65 3.01597 2.63403 4.26923 2.63403ZM0 4.90326C0 2.54543 1.9114 0.634033 4.26923 0.634033H13.5192C15.8771 0.634033 17.7885 2.54543 17.7885 4.90326V13.4417C17.7885 15.7996 15.8771 17.711 13.5192 17.711H4.26923C1.9114 17.711 0 15.7996 0 13.4417V4.90326ZM23.4811 2.63403H32.7311C33.9844 2.63403 35.0004 3.65 35.0004 4.90326V13.4417C35.0004 14.695 33.9844 15.711 32.7311 15.711H23.4811C22.2279 15.711 21.2119 14.695 21.2119 13.4417V4.90326C21.2119 3.65 22.2279 2.63403 23.4811 2.63403ZM19.2119 4.90326C19.2119 2.54543 21.1233 0.634033 23.4811 0.634033H32.7311C35.089 0.634033 37.0004 2.54543 37.0004 4.90326V13.4417C37.0004 15.7996 35.089 17.711 32.7311 17.711H23.4811C21.1233 17.711 19.2119 15.7996 19.2119 13.4417V4.90326ZM32.7311 20.4231H23.4811C22.2279 20.4231 21.2119 21.4391 21.2119 22.6923V31.2308C21.2119 32.484 22.2279 33.5 23.4811 33.5H32.7311C33.9844 33.5 35.0004 32.4841 35.0004 31.2308V22.6923C35.0004 21.4391 33.9844 20.4231 32.7311 20.4231ZM23.4811 18.4231C21.1233 18.4231 19.2119 20.3345 19.2119 22.6923V31.2308C19.2119 33.5886 21.1233 35.5 23.4811 35.5H32.7311C35.089 35.5 37.0004 33.5886 37.0004 31.2308V22.6923C37.0004 20.3345 35.089 18.4231 32.7311 18.4231H23.4811ZM4.26923 20.4231H13.5192C14.7725 20.4231 15.7885 21.4391 15.7885 22.6923V31.2308C15.7885 32.4841 14.7725 33.5 13.5192 33.5H4.26923C3.01597 33.5 2 32.484 2 31.2308V22.6923C2 21.4391 3.01597 20.4231 4.26923 20.4231ZM0 22.6923C0 20.3345 1.9114 18.4231 4.26923 18.4231H13.5192C15.8771 18.4231 17.7885 20.3345 17.7885 22.6923V31.2308C17.7885 33.5886 15.8771 35.5 13.5192 35.5H4.26923C1.9114 35.5 0 33.5886 0 31.2308V22.6923Z" fill="white"/>
</svg>
