<svg width="37" height="38" viewBox="0 0 37 38" fill="none" xmlns="http://www.w3.org/2000/svg">
<path d="M33.3009 28.1873H31.0809V16.1549C31.1484 12.7474 29.8621 9.45202 27.504 6.99125C25.1459 4.53048 21.9083 3.10503 18.5009 3.02734C15.0936 3.10503 11.856 4.53048 9.49787 6.99125C7.13975 9.45202 5.85345 12.7474 5.92094 16.1549V28.1873H3.70094C3.50468 28.1873 3.31646 28.2653 3.17768 28.4041C3.0389 28.5429 2.96094 28.7311 2.96094 28.9273C2.96094 29.1236 3.0389 29.3118 3.17768 29.4506C3.31646 29.5894 3.50468 29.6673 3.70094 29.6673H33.3009C33.4972 29.6673 33.6854 29.5894 33.8242 29.4506C33.963 29.3118 34.0409 29.1236 34.0409 28.9273C34.0409 28.7311 33.963 28.5429 33.8242 28.4041C33.6854 28.2653 33.4972 28.1873 33.3009 28.1873Z" fill="black"/>
<path d="M22.2008 31.1473C22.0636 32.0302 21.6153 32.8349 20.9367 33.4161C20.2582 33.9974 19.3942 34.3168 18.5008 34.3168C17.6073 34.3168 16.7433 33.9974 16.0648 33.4161C15.3863 32.8349 14.938 32.0302 14.8008 31.1473H22.2008Z" fill="black"/>
</svg>
