<svg width="41" height="40" viewBox="0 0 41 40" fill="none" xmlns="http://www.w3.org/2000/svg">
<path d="M36.6218 30.4H34.2218V17.392C34.2947 13.7081 32.9041 10.1456 30.3548 7.48525C27.8055 4.82496 24.3054 3.28393 20.6218 3.19995C16.9381 3.28393 13.4381 4.82496 10.8887 7.48525C8.33941 10.1456 6.94882 13.7081 7.02178 17.392V30.4H4.62178C4.4096 30.4 4.20612 30.4843 4.05609 30.6343C3.90606 30.7843 3.82178 30.9878 3.82178 31.2C3.82178 31.4122 3.90606 31.6156 4.05609 31.7656C4.20612 31.9156 4.4096 32 4.62178 32H36.6218C36.834 32 37.0374 31.9156 37.1875 31.7656C37.3375 31.6156 37.4218 31.4122 37.4218 31.2C37.4218 30.9878 37.3375 30.7843 37.1875 30.6343C37.0374 30.4843 36.834 30.4 36.6218 30.4Z" fill="white"/>
<path d="M24.6216 33.6C24.4733 34.5544 23.9886 35.4244 23.2551 36.0527C22.5215 36.6811 21.5875 37.0265 20.6216 37.0265C19.6557 37.0265 18.7217 36.6811 17.9881 36.0527C17.2546 35.4244 16.7699 34.5544 16.6216 33.6H24.6216Z" fill="white"/>
</svg>
