<svg width="18" height="18" viewBox="0 0 18 18" fill="none" xmlns="http://www.w3.org/2000/svg">
    <path d="M10.5696 4.86035L4.27676 11.1604C4.25135 11.1834 4.22951 11.2101 4.21196 11.2396L1.49036 16.0204C1.4489 16.088 1.432 16.1679 1.44249 16.2466C1.45297 16.3252 1.49022 16.3979 1.54796 16.4524C1.58011 16.4869 1.61914 16.5144 1.66254 16.533C1.70594 16.5516 1.75275 16.5609 1.79996 16.5604C1.86361 16.5616 1.92622 16.5441 1.97996 16.51L6.74636 13.7668L6.81837 13.7092L13.1184 7.40915L10.5696 4.86035Z" fill="black"/>
    <path d="M15.2633 5.26338C15.6031 4.922 15.794 4.4599 15.794 3.97818C15.794 3.49646 15.6031 3.03436 15.2633 2.69298C15.1003 2.52342 14.9046 2.38876 14.688 2.29717C14.4714 2.20558 14.2384 2.15897 14.0033 2.16018C13.5209 2.16784 13.0608 2.3643 12.7217 2.70738L11.0801 4.32018L13.6289 6.86898L15.2633 5.26338Z" fill="black"/>
    <path d="M16.1994 15.8398H9.71937C9.6239 15.8398 9.53233 15.8778 9.46482 15.9453C9.3973 16.0128 9.35938 16.1044 9.35938 16.1998C9.35938 16.2953 9.3973 16.3869 9.46482 16.4544C9.53233 16.5219 9.6239 16.5598 9.71937 16.5598H16.1994C16.2949 16.5598 16.3864 16.5219 16.4539 16.4544C16.5214 16.3869 16.5594 16.2953 16.5594 16.1998C16.5594 16.1044 16.5214 16.0128 16.4539 15.9453C16.3864 15.8778 16.2949 15.8398 16.1994 15.8398Z" fill="black"/>
</svg>  