
<svg width="166" height="169" viewBox="0 0 166 169" fill="none" xmlns="http://www.w3.org/2000/svg">
<path fill-rule="evenodd" clip-rule="evenodd" d="M23.5123 59.0276C27.2634 42.9318 38.0474 26.1579 54.1611 22.4848C69.4875 18.9912 80.9656 35.1922 94.7242 42.7951C105.354 48.6688 118.937 50.5214 124.465 61.3343C130.196 72.542 126.217 85.5175 122.755 97.6198C118.781 111.515 117.256 130.177 103.503 134.619C89.7668 139.055 79.1778 122.401 66.3166 115.847C55.8002 110.489 43.1416 109.671 36.0398 100.244C27.0579 88.3208 20.1243 73.5654 23.5123 59.0276Z" fill="url(#paint0_radial_4092_6422)"/>
<path fill-rule="evenodd" clip-rule="evenodd" d="M151.932 76.7813C158.842 93.5679 159.37 113.713 149.774 129.123C139.735 145.246 121.242 155.217 102.293 156.502C84.6937 157.696 70.1792 145.883 55.9268 135.489C41.8425 125.217 25.973 115.152 22.2451 98.1235C18.3825 80.4794 26.0477 62.5911 36.7892 48.0702C47.3594 33.7808 62.0982 19.7912 79.8669 20.2271C96.4246 20.6333 104.194 39.8184 117.223 50.0435C129.167 59.4164 146.153 62.7419 151.932 76.7813Z" fill="url(#paint1_radial_4092_6422)"/>
<path fill-rule="evenodd" clip-rule="evenodd" d="M72.0747 12.318C89.9747 5.6675 111.173 5.84917 127.022 16.4996C143.605 27.6427 153.411 47.4487 154.07 67.4165C154.681 85.9623 141.732 100.789 130.284 115.393C118.971 129.824 107.809 146.139 89.7713 149.436C71.0811 152.852 52.5556 144.14 37.6827 132.317C23.0468 120.682 8.87844 104.676 9.98616 86.012C11.0184 68.6201 31.4713 61.1535 42.697 47.8295C52.9872 35.6159 57.1041 17.8801 72.0747 12.318Z" fill="url(#paint2_radial_4092_6422)"/>
<circle cx="85.1625" cy="81.4154" r="58.9418" fill="url(#paint3_radial_4092_6422)"/>
<circle cx="84.324" cy="80.2054" r="54.0701" fill="#FB874C"/>
<path fill-rule="evenodd" clip-rule="evenodd" d="M72.7739 68.4648C70.9566 70.2559 69.5676 72.4346 68.7108 74.8381C67.8541 77.2415 67.5517 79.8076 67.8263 82.3443C67.9057 83.0964 67.683 83.8492 67.2074 84.4372C66.7317 85.0251 66.0419 85.4 65.2898 85.4793C64.5377 85.5587 63.7849 85.3361 63.197 84.8604C62.6091 84.3847 62.2342 83.6949 62.1548 82.9428C61.7908 79.5542 62.1969 76.1272 63.3428 72.9175C64.4887 69.7078 66.3448 66.7984 68.7725 64.4064C77.7101 55.5942 92.114 55.7424 100.946 64.6971C109.778 73.6518 109.727 88.0614 100.792 96.8736C96.6564 100.961 91.1026 103.295 85.2883 103.389C83.0909 103.428 80.8994 103.15 78.7817 102.562C78.4127 102.47 78.0658 102.305 77.7615 102.077C77.4572 101.849 77.2017 101.562 77.01 101.233C76.8182 100.905 76.6942 100.541 76.6452 100.164C76.5962 99.787 76.6232 99.4038 76.7246 99.0372C76.826 98.6706 76.9998 98.328 77.2356 98.0296C77.4715 97.7312 77.7647 97.4831 78.098 97.2997C78.4313 97.1164 78.7979 97.0017 79.1762 96.9623C79.5545 96.9229 79.9369 96.9596 80.3008 97.0703C81.8907 97.511 83.5361 97.7193 85.1857 97.6887C89.5369 97.6213 93.6938 95.8752 96.788 92.8152C103.466 86.2317 103.528 75.4331 96.8878 68.7014C90.2473 61.9697 79.4486 61.8813 72.7739 68.4648Z" fill="white"/>
<path fill-rule="evenodd" clip-rule="evenodd" d="M67.1079 85.2511C66.859 85.5307 66.5575 85.7586 66.2205 85.9217C65.8836 86.0847 65.5179 86.1798 65.1442 86.2015C64.7705 86.2232 64.3962 86.1711 64.0426 86.0481C63.6891 85.9252 63.3632 85.7337 63.0837 85.4848L58.1817 81.1243C57.617 80.6217 57.2752 79.9153 57.2314 79.1606C57.1875 78.4059 57.4453 77.6647 57.948 77.1001C58.4506 76.5355 59.157 76.1936 59.9116 76.1498C60.6663 76.106 61.4075 76.3638 61.9721 76.8664L66.8742 81.2269C67.1538 81.4758 67.3816 81.7773 67.5447 82.1142C67.7078 82.4511 67.8029 82.8169 67.8246 83.1906C67.8463 83.5643 67.7942 83.9386 67.6712 84.2921C67.5482 84.6457 67.3568 84.9715 67.1079 85.2511Z" fill="white"/>
<path fill-rule="evenodd" clip-rule="evenodd" d="M62.6989 84.981C62.9235 85.2804 63.2048 85.5327 63.5268 85.7233C63.8489 85.914 64.2053 86.0394 64.5759 86.0924C64.9464 86.1453 65.3237 86.1247 65.6862 86.0318C66.0488 85.9389 66.3895 85.7756 66.6889 85.551L72.3889 81.276C72.9936 80.8225 73.3934 80.1473 73.5003 79.399C73.6072 78.6508 73.4124 77.8907 72.9589 77.286C72.5054 76.6813 71.8302 76.2815 71.082 76.1746C70.3337 76.0677 69.5736 76.2625 68.9689 76.716L63.2689 80.991C62.9695 81.2156 62.7172 81.4969 62.5266 81.8189C62.3359 82.141 62.2105 82.4974 62.1576 82.8679C62.1046 83.2385 62.1252 83.6158 62.2181 83.9783C62.311 84.3409 62.4743 84.6816 62.6989 84.981ZM84.3019 69.021C85.0578 69.021 85.7827 69.3213 86.3172 69.8557C86.8516 70.3902 87.1519 71.1151 87.1519 71.871V81.846C87.1519 82.6019 86.8516 83.3268 86.3172 83.8613C85.7827 84.3957 85.0578 84.696 84.3019 84.696C83.546 84.696 82.8211 84.3957 82.2867 83.8613C81.7522 83.3268 81.4519 82.6019 81.4519 81.846V71.871C81.4519 71.1151 81.7522 70.3902 82.2867 69.8557C82.8211 69.3213 83.546 69.021 84.3019 69.021Z" fill="white"/>
<path fill-rule="evenodd" clip-rule="evenodd" d="M95.7012 81.8456C95.7012 82.6015 95.4009 83.3264 94.8664 83.8609C94.3319 84.3953 93.607 84.6956 92.8512 84.6956H84.3012C83.5453 84.6956 82.8204 84.3953 82.2859 83.8609C81.7514 83.3264 81.4512 82.6015 81.4512 81.8456C81.4512 81.0897 81.7514 80.3648 82.2859 79.8304C82.8204 79.2959 83.5453 78.9956 84.3012 78.9956H92.8512C93.607 78.9956 94.3319 79.2959 94.8664 79.8304C95.4009 80.3648 95.7012 81.0897 95.7012 81.8456Z" fill="white"/>
<defs>
<radialGradient id="paint0_radial_4092_6422" cx="0" cy="0" r="1" gradientUnits="userSpaceOnUse" gradientTransform="translate(74.6379 76.9541) rotate(21.2494) scale(54.7761 46.7281)">
<stop stop-color="#FB874C"/>
<stop offset="1" stop-color="#FB874C" stop-opacity="0.1"/>
</radialGradient>
<radialGradient id="paint1_radial_4092_6422" cx="0" cy="0" r="1" gradientUnits="userSpaceOnUse" gradientTransform="translate(88.1631 88.6947) rotate(170.655) scale(66.6337 69.4872)">
<stop stop-color="#FB874C"/>
<stop offset="1" stop-color="#FB874C" stop-opacity="0"/>
</radialGradient>
<radialGradient id="paint2_radial_4092_6422" cx="0" cy="0" r="1" gradientUnits="userSpaceOnUse" gradientTransform="translate(82.2682 79.7929) rotate(82.646) scale(70.0932 73.0949)">
<stop stop-color="#FB874C"/>
<stop offset="1" stop-color="#FB874C" stop-opacity="0"/>
</radialGradient>
<radialGradient id="paint3_radial_4092_6422" cx="0" cy="0" r="1" gradientUnits="userSpaceOnUse" gradientTransform="translate(85.1625 81.4154) rotate(90) scale(58.9418)">
<stop stop-color="#FB874C"/>
<stop offset="1" stop-color="#FB874C"/>
</radialGradient>
</defs>
</svg>
