<svg width="12" height="13" viewBox="0 0 12 13" fill="none" xmlns="http://www.w3.org/2000/svg">
<path d="M0.667969 2.52441C0.558594 2.41504 0.483398 2.28288 0.442383 2.12793C0.405924 1.97298 0.405924 1.81803 0.442383 1.66309C0.483398 1.50814 0.560872 1.37142 0.674805 1.25293C0.788737 1.13444 0.923177 1.05697 1.07812 1.02051C1.23763 0.984049 1.39486 0.984049 1.5498 1.02051C1.70931 1.05697 1.84375 1.13216 1.95312 1.24609L11.3252 10.6182C11.4391 10.7321 11.5143 10.8665 11.5508 11.0215C11.5872 11.1764 11.585 11.3314 11.5439 11.4863C11.5075 11.6413 11.4323 11.778 11.3184 11.8965C11.2044 12.015 11.0677 12.0924 10.9082 12.1289C10.7533 12.1699 10.5983 12.1699 10.4434 12.1289C10.2884 12.0924 10.154 12.0173 10.04 11.9033L0.667969 2.52441ZM0.667969 10.625L10.04 1.24609C10.154 1.13216 10.2884 1.05697 10.4434 1.02051C10.5983 0.984049 10.7533 0.986328 10.9082 1.02734C11.0632 1.0638 11.1999 1.14128 11.3184 1.25977C11.4323 1.3737 11.5098 1.50814 11.5508 1.66309C11.5918 1.81803 11.5918 1.97298 11.5508 2.12793C11.5143 2.28288 11.4391 2.41732 11.3252 2.53125L1.95312 11.9033C1.84375 12.0127 1.71159 12.0856 1.55664 12.1221C1.40169 12.1631 1.24447 12.1631 1.08496 12.1221C0.930013 12.0856 0.793294 12.0104 0.674805 11.8965C0.556315 11.7826 0.478841 11.6481 0.442383 11.4932C0.405924 11.3337 0.405924 11.1764 0.442383 11.0215C0.483398 10.8665 0.558594 10.7344 0.667969 10.625Z" fill="black"/>
</svg>
