<svg width="23" height="23" viewBox="0 0 23 23" fill="none" xmlns="http://www.w3.org/2000/svg">
<path d="M8.63501 17.1124C6.33574 17.1124 4.39001 16.3159 2.79782 14.7229C1.20563 13.1298 0.409109 11.1841 0.408265 8.88568C0.407421 6.58725 1.20394 4.64152 2.79782 3.04849C4.39169 1.45545 6.33742 0.658936 8.63501 0.658936C10.9326 0.658936 12.8787 1.45545 14.4735 3.04849C16.0682 4.64152 16.8643 6.58725 16.8617 8.88568C16.8617 9.81382 16.7141 10.6892 16.4188 11.5119C16.1234 12.3346 15.7227 13.0623 15.2164 13.6952L22.3041 20.7828C22.5361 21.0148 22.6521 21.3102 22.6521 21.6688C22.6521 22.0274 22.5361 22.3227 22.3041 22.5547C22.072 22.7868 21.7767 22.9028 21.4181 22.9028C21.0595 22.9028 20.7642 22.7868 20.5321 22.5547L13.4445 15.4671C12.8117 15.9733 12.0839 16.3741 11.2612 16.6694C10.4386 16.9648 9.56315 17.1124 8.63501 17.1124ZM8.63501 14.5811C10.2171 14.5811 11.562 14.0276 12.6699 12.9206C13.7778 11.8136 14.3313 10.4686 14.3304 8.88568C14.3296 7.30277 13.7761 5.95822 12.6699 4.85204C11.5637 3.74586 10.2188 3.19193 8.63501 3.19024C7.05125 3.18855 5.70671 3.74249 4.60137 4.85204C3.49604 5.9616 2.9421 7.30614 2.93957 8.88568C2.93704 10.4652 3.49097 11.8102 4.60137 12.9206C5.71177 14.031 7.05631 14.5845 8.63501 14.5811Z" fill="#292929"/>
</svg>
