<svg width="27" height="28" viewBox="0 0 27 28" fill="none" xmlns="http://www.w3.org/2000/svg">
    <path d="M24.2218 23.5282L18.941 18.2484C20.4716 16.4108 21.2348 14.0539 21.0719 11.6679C20.909 9.28195 19.8325 7.05063 18.0664 5.43814C16.3003 3.82564 13.9804 2.95612 11.5895 3.01046C9.19861 3.0648 6.92069 4.03881 5.22963 5.72987C3.53856 7.42094 2.56455 9.69886 2.51021 12.0898C2.45588 14.4807 3.3254 16.8005 4.93789 18.5666C6.55039 20.3328 8.78171 21.4093 11.1677 21.5722C13.5537 21.7351 15.9106 20.9718 17.7482 19.4413L23.0279 24.7221C23.1063 24.8005 23.1994 24.8627 23.3018 24.9051C23.4042 24.9475 23.514 24.9693 23.6249 24.9693C23.7357 24.9693 23.8455 24.9475 23.9479 24.9051C24.0504 24.8627 24.1434 24.8005 24.2218 24.7221C24.3002 24.6437 24.3624 24.5506 24.4048 24.4482C24.4473 24.3458 24.4691 24.236 24.4691 24.1251C24.4691 24.0143 24.4473 23.9045 24.4048 23.8021C24.3624 23.6996 24.3002 23.6066 24.2218 23.5282ZM4.21862 12.3126C4.21862 10.8107 4.66399 9.34254 5.4984 8.09376C6.33281 6.84497 7.5188 5.87166 8.90637 5.29691C10.2939 4.72216 11.8208 4.57177 13.2938 4.86478C14.7669 5.15779 16.12 5.88102 17.182 6.94303C18.244 8.00503 18.9672 9.35811 19.2602 10.8312C19.5532 12.3042 19.4028 13.831 18.8281 15.2186C18.2533 16.6062 17.28 17.7922 16.0312 18.6266C14.7825 19.461 13.3143 19.9064 11.8124 19.9064C9.79907 19.9041 7.86887 19.1034 6.44525 17.6797C5.02163 16.2561 4.22086 14.3259 4.21862 12.3126Z" fill="white"/>
    <path d="M11.6006 3.51001C13.8629 3.4586 16.0584 4.28213 17.7295 5.80786C19.4004 7.33357 20.4191 9.44496 20.5732 11.7024C20.7273 13.9598 20.0047 16.1894 18.5566 17.928L18.2646 18.2795L18.5879 18.6018L23.8682 23.8821C23.9001 23.914 23.9261 23.9517 23.9434 23.9934C23.9606 24.0351 23.9688 24.0801 23.9688 24.1252L23.9629 24.1926C23.9585 24.2146 23.952 24.2363 23.9434 24.2571C23.9261 24.2988 23.9001 24.3365 23.8682 24.3684C23.8362 24.4004 23.7986 24.4263 23.7568 24.4436C23.7151 24.4609 23.6702 24.469 23.625 24.469C23.5799 24.469 23.5349 24.4609 23.4932 24.4436C23.4723 24.435 23.4523 24.4239 23.4336 24.4114L23.3818 24.3684L18.1016 19.0881L17.7793 18.7649L17.4277 19.0569C15.6892 20.5049 13.4595 21.2275 11.2021 21.0735C8.94471 20.9194 6.83333 19.9006 5.30762 18.2297C3.78188 16.5586 2.95835 14.3631 3.00977 12.1008C3.06125 9.83867 3.983 7.68326 5.58301 6.08325C7.18302 4.48324 9.33842 3.5615 11.6006 3.51001ZM13.3916 4.37427C11.8216 4.06197 10.1938 4.22261 8.71484 4.83521C7.23614 5.44776 5.9723 6.48491 5.08301 7.81567C4.19366 9.14668 3.71875 10.712 3.71875 12.3127L3.72852 12.7141C3.82973 14.7138 4.66931 16.611 6.0918 18.0334C7.51432 19.4559 9.41144 20.2946 11.4111 20.3958L11.8115 20.4065H11.8125C13.4131 20.4065 14.9777 19.9315 16.3086 19.0422C17.6395 18.153 18.6774 16.8892 19.29 15.4104C19.9026 13.9315 20.0632 12.3036 19.751 10.7336C19.4387 9.16361 18.6671 7.72104 17.5352 6.58911C16.4033 5.45742 14.9614 4.68656 13.3916 4.37427Z" stroke="#202020" stroke-opacity="0.5"/>
</svg>   