<svg width="166" height="169" viewBox="0 0 166 169" fill="none" xmlns="http://www.w3.org/2000/svg">
<path fill-rule="evenodd" clip-rule="evenodd" d="M23.5123 59.0276C27.2634 42.9318 38.0474 26.1579 54.1611 22.4848C69.4875 18.9912 80.9656 35.1922 94.7242 42.7951C105.354 48.6688 118.937 50.5214 124.465 61.3343C130.196 72.542 126.217 85.5175 122.755 97.6198C118.781 111.515 117.256 130.177 103.503 134.619C89.7668 139.055 79.1778 122.401 66.3166 115.847C55.8002 110.489 43.1416 109.671 36.0398 100.244C27.0579 88.3208 20.1243 73.5654 23.5123 59.0276Z" fill="url(#paint0_radial_4036_28156)"/>
<path fill-rule="evenodd" clip-rule="evenodd" d="M151.932 76.7813C158.842 93.5679 159.37 113.713 149.774 129.123C139.735 145.246 121.242 155.217 102.293 156.502C84.6937 157.696 70.1792 145.883 55.9268 135.489C41.8425 125.217 25.973 115.152 22.2451 98.1235C18.3825 80.4794 26.0477 62.5911 36.7892 48.0702C47.3594 33.7808 62.0982 19.7912 79.8669 20.2271C96.4246 20.6333 104.194 39.8184 117.223 50.0435C129.167 59.4164 146.153 62.7419 151.932 76.7813Z" fill="url(#paint1_radial_4036_28156)"/>
<path fill-rule="evenodd" clip-rule="evenodd" d="M72.0747 12.318C89.9747 5.6675 111.173 5.84917 127.022 16.4996C143.605 27.6427 153.411 47.4487 154.07 67.4165C154.681 85.9623 141.732 100.789 130.284 115.393C118.971 129.824 107.809 146.139 89.7713 149.436C71.0811 152.852 52.5556 144.14 37.6827 132.317C23.0468 120.682 8.87844 104.676 9.98616 86.012C11.0184 68.6201 31.4713 61.1535 42.697 47.8295C52.9872 35.6159 57.1041 17.8801 72.0747 12.318Z" fill="url(#paint2_radial_4036_28156)"/>
<circle cx="85.1625" cy="81.4154" r="58.9418" fill="url(#paint3_radial_4036_28156)"/>
<circle cx="84.324" cy="80.2054" r="54.0701" fill="#ACCB4A"/>
<path d="M84.3239 103.059C96.8931 103.059 107.177 92.775 107.177 80.2057C107.177 67.6365 96.8931 57.3525 84.3239 57.3525C71.7546 57.3525 61.4707 67.6365 61.4707 80.2057C61.4707 92.775 71.7546 103.059 84.3239 103.059Z" stroke="white" stroke-width="4" stroke-linecap="round" stroke-linejoin="round"/>
<path d="M74.6113 80.2057L81.0788 86.6732L94.0365 73.7383" stroke="white" stroke-width="4" stroke-linecap="round" stroke-linejoin="round"/>
<defs>
<radialGradient id="paint0_radial_4036_28156" cx="0" cy="0" r="1" gradientUnits="userSpaceOnUse" gradientTransform="translate(74.6379 76.9541) rotate(21.2494) scale(54.7761 46.7281)">
<stop stop-color="#ACCB4A"/>
<stop offset="1" stop-color="#ACCB4A" stop-opacity="0.1"/>
</radialGradient>
<radialGradient id="paint1_radial_4036_28156" cx="0" cy="0" r="1" gradientUnits="userSpaceOnUse" gradientTransform="translate(88.1631 88.6947) rotate(170.655) scale(66.6337 69.4872)">
<stop stop-color="#ACCB4A"/>
<stop offset="1" stop-color="#ACCB4A" stop-opacity="0"/>
</radialGradient>
<radialGradient id="paint2_radial_4036_28156" cx="0" cy="0" r="1" gradientUnits="userSpaceOnUse" gradientTransform="translate(82.2682 79.7929) rotate(82.646) scale(70.0932 73.0949)">
<stop stop-color="#ACCB4A"/>
<stop offset="1" stop-color="#ACCB4A" stop-opacity="0"/>
</radialGradient>
<radialGradient id="paint3_radial_4036_28156" cx="0" cy="0" r="1" gradientUnits="userSpaceOnUse" gradientTransform="translate(85.1625 81.4154) rotate(90) scale(58.9418)">
<stop stop-color="#ACCB4A"/>
<stop offset="1" stop-color="#ACCB4A"/>
</radialGradient>
</defs>
</svg>
