<svg width="37" height="38" viewBox="0 0 37 38" fill="none" xmlns="http://www.w3.org/2000/svg">
<path d="M18.4996 17.8273C22.5865 17.8273 25.8996 14.5142 25.8996 10.4273C25.8996 6.34044 22.5865 3.02734 18.4996 3.02734C14.4127 3.02734 11.0996 6.34044 11.0996 10.4273C11.0996 14.5142 14.4127 17.8273 18.4996 17.8273Z" fill="black"/>
<path d="M20.0679 19.3074H16.9303C15.0897 19.3132 13.2683 19.6815 11.5701 20.3912C9.87186 21.101 8.33006 22.1382 7.03271 23.4438C5.73537 24.7494 4.70788 26.2978 4.00892 28.0004C3.30996 29.7031 2.95321 31.5268 2.95905 33.3674C2.95905 33.5636 3.03702 33.7518 3.1758 33.8906C3.31457 34.0294 3.50279 34.1074 3.69906 34.1074H33.2991C33.5045 34.0887 33.6951 33.9927 33.8325 33.8389C33.9698 33.685 34.0437 33.4848 34.0391 33.2786C34.0312 29.5756 32.5568 26.0265 29.9384 23.4081C27.3199 20.7897 23.7708 19.3152 20.0679 19.3074Z" fill="black"/>
</svg>
