<svg width="211" height="40" viewBox="0 0 211 40" fill="none" xmlns="http://www.w3.org/2000/svg">
    <path d="M18.6704 38.9753V8.87402" stroke="url(#paint0_linear_108_229)" stroke-width="2.65425"/>
    <path d="M13.8612 39.2937L13.8612 30.0536L9.84668 27.9468" stroke="url(#paint1_linear_108_229)" stroke-width="2.65425"/>
    <path d="M18.7881 35.86L28.559 31.3975V28.3481" stroke="url(#paint2_linear_108_229)" stroke-width="2.65425"/>
    <path d="M19.0702 17.8276L23.964 14.9597V12.6353" stroke="url(#paint3_linear_108_229)" stroke-width="2.65425"/>
    <path d="M18.476 18.7652L13.4299 16.1851V12.2832L12.4479 11.3242" stroke="url(#paint4_linear_108_229)" stroke-width="2.65425"/>
    <path d="M18.476 26.2502L10.9701 22.439V19.7167L7.43105 17.811" stroke="url(#paint5_linear_108_229)" stroke-width="2.65425"/>
    <path d="M18.6315 29.642L23.4662 27.4642V21.9417L27.8955 19.313V17.4463" stroke="url(#paint6_linear_108_229)" stroke-width="2.65425"/>
    <g clip-path="url(#clip0_108_229)">
    <path d="M8.99473 30.8341C7.47711 30.7745 6.29521 29.4958 6.35489 27.9782L6.45091 25.5365L8.8926 25.6325C10.4102 25.6922 11.5921 26.9708 11.5324 28.4885L11.4364 30.9302L8.99473 30.8341Z" fill="url(#paint7_linear_108_229)"/>
    </g>
    <g clip-path="url(#clip1_108_229)">
    <path d="M28.7251 28.8062C30.2439 28.8062 31.4751 27.5749 31.4751 26.0561L31.4751 23.6125L29.0315 23.6125C27.5127 23.6125 26.2815 24.8438 26.2815 26.3626L26.2815 28.8062L28.7251 28.8062Z" fill="url(#paint8_linear_108_229)"/>
    </g>
    <path d="M14.9726 37.9667H2V1.53711H25.4184L36.6877 12.75V37.9667H17.3449" stroke="url(#paint9_linear_108_229)" stroke-width="2.65425"/>
    <g clip-path="url(#clip2_108_229)">
    <path d="M28.9574 18.6206C30.4762 18.6206 31.7074 17.3894 31.7074 15.8706L31.7074 13.427L29.2638 13.427C27.745 13.427 26.5138 14.6582 26.5138 16.177L26.5138 18.6206L28.9574 18.6206Z" fill="url(#paint10_linear_108_229)"/>
    </g>
    <g clip-path="url(#clip3_108_229)">
    <path d="M24.1134 13.6108C25.6322 13.6108 26.8634 12.3796 26.8634 10.8608L26.8634 8.41723L24.4198 8.41723C22.901 8.41723 21.6698 9.64846 21.6698 11.1673L21.6698 13.6108L24.1134 13.6108Z" fill="url(#paint11_linear_108_229)"/>
    </g>
    <g clip-path="url(#clip4_108_229)">
    <path d="M13.085 13.6108C11.5662 13.6108 10.335 12.3796 10.335 10.8608L10.335 8.41723L12.7785 8.41723C14.2973 8.41723 15.5286 9.64846 15.5286 11.1673L15.5286 13.6108L13.085 13.6108Z" fill="url(#paint12_linear_108_229)"/>
    </g>
    <g clip-path="url(#clip5_108_229)">
    <path d="M7.97549 20.4785C6.45669 20.4785 5.22546 19.2473 5.22546 17.7285L5.22546 15.2849L7.66904 15.2849C9.18784 15.2849 10.4191 16.5161 10.4191 18.0349L10.4191 20.4785L7.97549 20.4785Z" fill="url(#paint13_linear_108_229)"/>
    </g>
    <g clip-path="url(#clip6_108_229)">
    <path d="M17.0107 10.1513C15.8954 9.1204 15.8269 7.38052 16.8579 6.26519L18.5165 4.47076L20.3109 6.1294C21.4263 7.16032 21.4947 8.9002 20.4638 10.0155L18.8051 11.81L17.0107 10.1513Z" fill="url(#paint14_linear_108_229)"/>
    </g>
    <path d="M172.381 16.3926C173.718 16.3926 174.802 15.3085 174.802 13.9712L174.802 11.8196L172.651 11.8196C171.313 11.8196 170.229 12.9037 170.229 14.241L170.229 16.3926L172.381 16.3926Z" fill="url(#paint15_linear_108_229)"/>
    <path d="M68.9923 29.1524C68.6798 29.3673 68.211 29.6309 67.586 29.9434C66.9805 30.2364 66.2579 30.4903 65.418 30.7052C64.5977 30.92 63.6895 31.0177 62.6934 30.9981C61.0332 30.9786 59.5391 30.6856 58.211 30.1192C56.9024 29.5528 55.7891 28.7813 54.8711 27.8048C53.9531 26.8087 53.2402 25.6758 52.7324 24.4063C52.2441 23.1172 52 21.7501 52 20.3047C52 18.7032 52.2539 17.2383 52.7617 15.9102C53.2695 14.5625 53.9922 13.3906 54.9297 12.3945C55.8867 11.3985 57 10.627 58.2696 10.0801C59.5586 9.53321 60.9649 9.25977 62.4883 9.25977C63.7969 9.25977 64.9786 9.43555 66.0333 9.78712C67.088 10.1387 67.9766 10.5488 68.6993 11.0176L67.4688 13.9473C66.9024 13.5567 66.1993 13.1856 65.3594 12.834C64.5391 12.4629 63.6211 12.2774 62.6055 12.2774C61.6094 12.2774 60.6621 12.4824 59.7637 12.8926C58.8848 13.2832 58.1035 13.8399 57.4199 14.5625C56.7559 15.2657 56.2285 16.0957 55.8379 17.0528C55.4473 17.9903 55.252 19.0157 55.252 20.129C55.252 21.2618 55.4277 22.3067 55.7793 23.2637C56.1309 24.2208 56.6289 25.0508 57.2735 25.754C57.9375 26.4571 58.7285 27.004 59.6465 27.3946C60.5645 27.7852 61.5996 27.9805 62.752 27.9805C63.8457 27.9805 64.8028 27.8145 65.6231 27.4825C66.4629 27.1505 67.1465 26.7696 67.6739 26.3399L68.9923 29.1524Z" fill="white"/>
    <path d="M70.4956 24.4942C70.4956 23.2637 70.7885 22.1602 71.3745 21.1836C71.9604 20.1875 72.771 19.4063 73.8061 18.8399C74.8413 18.2735 76.0229 17.9903 77.351 17.9903C78.6987 17.9903 79.8804 18.2735 80.896 18.8399C81.9116 19.4063 82.6929 20.1875 83.2397 21.1836C83.8062 22.1602 84.0894 23.2637 84.0894 24.4942C84.0894 25.7247 83.8062 26.838 83.2397 27.8341C82.6929 28.8302 81.9116 29.6212 80.896 30.2071C79.8804 30.7735 78.6889 31.0567 77.3218 31.0567C76.0132 31.0567 74.8413 30.7931 73.8061 30.2657C72.7905 29.7384 71.9799 28.9864 71.3745 28.0098C70.7885 27.0137 70.4956 25.8419 70.4956 24.4942ZM73.5424 24.5235C73.5424 25.2852 73.7085 25.9786 74.0405 26.6036C74.3725 27.2091 74.8217 27.6973 75.3882 28.0684C75.9546 28.42 76.5893 28.5958 77.2925 28.5958C78.0151 28.5958 78.6596 28.42 79.2261 28.0684C79.7925 27.6973 80.2319 27.2091 80.5444 26.6036C80.8765 25.9786 81.0425 25.2852 81.0425 24.5235C81.0425 23.7618 80.8765 23.0782 80.5444 22.4727C80.2319 21.8672 79.7925 21.379 79.2261 21.0079C78.6596 20.6368 78.0151 20.4512 77.2925 20.4512C76.5698 20.4512 75.9253 20.6368 75.3589 21.0079C74.7924 21.379 74.3432 21.877 74.0112 22.502C73.6987 23.1075 73.5424 23.7813 73.5424 24.5235Z" fill="white"/>
    <path d="M88.8883 18.4883L89.152 21.1251L89.0348 20.92C89.5036 20.002 90.1481 19.2891 90.9684 18.7813C91.7887 18.2539 92.736 17.9903 93.8102 17.9903C94.4743 17.9903 95.07 18.0977 95.5974 18.3125C96.1442 18.5274 96.5935 18.8301 96.945 19.2207C97.2966 19.6114 97.5212 20.0997 97.6188 20.6856L97.4724 20.7735C97.9606 19.9141 98.6052 19.2403 99.406 18.752C100.226 18.2442 101.095 17.9903 102.013 17.9903C103.205 17.9903 104.152 18.3321 104.855 19.0157C105.578 19.6993 105.949 20.5782 105.968 21.6524V30.7638H102.98V22.795C102.961 22.1895 102.814 21.6817 102.541 21.2715C102.287 20.8614 101.828 20.6368 101.164 20.5977C100.461 20.5977 99.8357 20.8126 99.2888 21.2422C98.7614 21.6719 98.3513 22.2286 98.0583 22.9122C97.7653 23.5958 97.6091 24.3282 97.5896 25.1094V30.7638H94.572V22.795C94.5524 22.1895 94.4059 21.6817 94.1325 21.2715C93.8591 20.8614 93.3806 20.6368 92.697 20.5977C91.9938 20.5977 91.3786 20.8126 90.8512 21.2422C90.3239 21.6719 89.9137 22.2383 89.6208 22.9415C89.3473 23.6251 89.2106 24.3477 89.2106 25.1094V30.7638H86.193V18.4883H88.8883Z" fill="white"/>
    <path d="M116.486 31.0567C115.588 31.0567 114.729 30.8614 113.908 30.4708C113.088 30.0606 112.434 29.5138 111.945 28.8302L112.121 27.922V36.6525H109.133V18.2832H111.74L112.15 21.2715L111.828 20.4219C112.434 19.7188 113.176 19.1329 114.055 18.6641C114.953 18.1954 115.949 17.961 117.043 17.961C118.195 17.961 119.23 18.2344 120.148 18.7813C121.066 19.3282 121.789 20.0997 122.316 21.0958C122.844 22.0919 123.107 23.2637 123.107 24.6114C123.107 25.9395 122.814 27.0919 122.229 28.0684C121.662 29.0255 120.881 29.7677 119.885 30.295C118.889 30.8028 117.756 31.0567 116.486 31.0567ZM115.9 28.6837C116.643 28.6837 117.326 28.5079 117.951 28.1563C118.596 27.8048 119.104 27.3262 119.475 26.7208C119.865 26.0958 120.061 25.4024 120.061 24.6407C120.061 23.8399 119.875 23.1368 119.504 22.5313C119.152 21.9063 118.674 21.418 118.068 21.0665C117.482 20.7149 116.828 20.5391 116.105 20.5391C115.422 20.5391 114.816 20.6661 114.289 20.92C113.762 21.1543 113.312 21.4864 112.941 21.9161C112.57 22.3458 112.307 22.8633 112.15 23.4688V25.7247C112.268 26.2911 112.502 26.7989 112.854 27.2481C113.205 27.6973 113.645 28.0489 114.172 28.3028C114.699 28.5567 115.275 28.6837 115.9 28.6837Z" fill="white"/>
    <path d="M130.978 31.0567C129.552 31.0567 128.331 30.7833 127.315 30.2364C126.3 29.67 125.519 28.8985 124.972 27.922C124.425 26.9259 124.151 25.793 124.151 24.5235C124.151 23.3126 124.454 22.2188 125.06 21.2422C125.685 20.2461 126.515 19.4551 127.55 18.8692C128.605 18.2832 129.767 17.9903 131.036 17.9903C132.677 17.9903 134.034 18.4688 135.108 19.4258C136.202 20.3829 136.935 21.7208 137.306 23.4395L127.315 26.8966L126.612 25.1387L134.61 22.2676L133.995 22.6485C133.761 22.043 133.39 21.5157 132.882 21.0665C132.374 20.5977 131.681 20.3633 130.802 20.3633C130.099 20.3633 129.464 20.5391 128.898 20.8907C128.351 21.2227 127.911 21.6915 127.579 22.2969C127.267 22.8829 127.11 23.5762 127.11 24.377C127.11 25.1973 127.276 25.92 127.608 26.545C127.96 27.1505 128.429 27.629 129.015 27.9805C129.62 28.3321 130.294 28.5079 131.036 28.5079C131.564 28.5079 132.062 28.4102 132.53 28.2149C133.019 28.0196 133.478 27.7755 133.907 27.4825L135.284 29.7091C134.64 30.1192 133.937 30.4513 133.175 30.7052C132.433 30.9395 131.7 31.0567 130.978 31.0567Z" fill="white"/>
    <path d="M141.886 18.4883L142.15 21.3008L142.033 20.92C142.443 20.0411 143.078 19.3379 143.937 18.8106C144.796 18.2637 145.812 17.9903 146.984 17.9903C148.136 17.9903 149.083 18.3321 149.826 19.0157C150.587 19.6993 150.978 20.5879 150.997 21.6817V30.7638H147.98V22.7364C147.96 22.1114 147.775 21.6036 147.423 21.2129C147.072 20.8028 146.525 20.5879 145.783 20.5684C145.119 20.5684 144.513 20.7735 143.966 21.1836C143.419 21.5743 142.99 22.1114 142.677 22.795C142.365 23.4786 142.208 24.2696 142.208 25.168V30.7638H139.191V18.4883H141.886Z" fill="white"/>
    <path d="M159.158 31.0567C158.006 31.0567 156.971 30.7931 156.053 30.2657C155.135 29.7188 154.412 28.9473 153.885 27.9512C153.357 26.9552 153.094 25.793 153.094 24.4649C153.094 23.0977 153.377 21.9356 153.943 20.9786C154.51 20.002 155.271 19.2598 156.228 18.752C157.205 18.2246 158.299 17.961 159.51 17.961C160.447 17.961 161.336 18.1563 162.176 18.5469C163.035 18.918 163.699 19.4454 164.168 20.129L164.08 21.1543V8H167.068V30.7638H164.051V27.8634L164.373 28.6544C163.767 29.338 163.025 29.9141 162.146 30.3829C161.267 30.8321 160.271 31.0567 159.158 31.0567ZM160.096 28.5079C160.779 28.5079 161.385 28.3907 161.912 28.1563C162.439 27.922 162.889 27.5899 163.26 27.1602C163.631 26.711 163.894 26.1934 164.051 25.6075V23.1465C163.914 22.5997 163.65 22.1211 163.26 21.711C162.889 21.2813 162.43 20.9493 161.883 20.7149C161.336 20.4805 160.74 20.3633 160.096 20.3633C159.373 20.3633 158.709 20.5391 158.103 20.8907C157.517 21.2227 157.039 21.6915 156.668 22.2969C156.316 22.9024 156.14 23.6055 156.14 24.4063C156.14 25.168 156.316 25.8614 156.668 26.4864C157.039 27.1114 157.527 27.6095 158.133 27.9805C158.738 28.3321 159.392 28.5079 160.096 28.5079Z" fill="white"/>
    <path d="M170.222 18.4883H173.239V30.7638H170.222V18.4883Z" fill="white"/>
    <path d="M180.293 31.2618C179.16 31.2618 178.232 30.92 177.51 30.2364C176.787 29.5528 176.406 28.6739 176.367 27.5997V18.4883H179.385V26.5157C179.424 27.1407 179.6 27.6583 179.912 28.0684C180.244 28.4591 180.771 28.6641 181.494 28.6837C182.158 28.6837 182.744 28.4884 183.252 28.0977C183.779 27.6876 184.189 27.1407 184.482 26.4571C184.795 25.754 184.951 24.9532 184.951 24.0548V18.4883H187.969V30.7638H185.244L185.01 27.922L185.127 28.3907C184.873 28.9376 184.512 29.4356 184.043 29.8849C183.574 30.3145 183.018 30.6466 182.373 30.8809C181.728 31.1349 181.035 31.2618 180.293 31.2618Z" fill="white"/>
    <path d="M193.82 18.4883L194.083 21.1251L193.966 20.92C194.435 20.002 195.079 19.2891 195.9 18.7813C196.72 18.2539 197.667 17.9903 198.742 17.9903C199.406 17.9903 200.001 18.0977 200.529 18.3125C201.076 18.5274 201.525 18.8301 201.876 19.2207C202.228 19.6114 202.452 20.0997 202.55 20.6856L202.404 20.7735C202.892 19.9141 203.536 19.2403 204.337 18.752C205.158 18.2442 206.027 17.9903 206.945 17.9903C208.136 17.9903 209.083 18.3321 209.786 19.0157C210.509 19.6993 210.88 20.5782 210.9 21.6524V30.7638H207.911V22.795C207.892 22.1895 207.745 21.6817 207.472 21.2715C207.218 20.8614 206.759 20.6368 206.095 20.5977C205.392 20.5977 204.767 20.8126 204.22 21.2422C203.693 21.6719 203.283 22.2286 202.99 22.9122C202.697 23.5958 202.54 24.3282 202.521 25.1094V30.7638H199.503V22.795C199.484 22.1895 199.337 21.6817 199.064 21.2715C198.79 20.8614 198.312 20.6368 197.628 20.5977C196.925 20.5977 196.31 20.8126 195.783 21.2422C195.255 21.6719 194.845 22.2383 194.552 22.9415C194.279 23.6251 194.142 24.3477 194.142 25.1094V30.7638H191.124V18.4883H193.82Z" fill="white"/>
    <defs>
    <linearGradient id="paint0_linear_108_229" x1="19.1704" y1="8.87402" x2="19.1704" y2="38.9753" gradientUnits="userSpaceOnUse">
    <stop stop-color="#62D964"/>
    <stop offset="1" stop-color="#50B0CB"/>
    </linearGradient>
    <linearGradient id="paint1_linear_108_229" x1="11.854" y1="27.9468" x2="11.854" y2="39.2937" gradientUnits="userSpaceOnUse">
    <stop stop-color="#62D964"/>
    <stop offset="1" stop-color="#50B0CB"/>
    </linearGradient>
    <linearGradient id="paint2_linear_108_229" x1="23.6736" y1="28.3481" x2="23.6736" y2="35.86" gradientUnits="userSpaceOnUse">
    <stop stop-color="#62D964"/>
    <stop offset="1" stop-color="#50B0CB"/>
    </linearGradient>
    <linearGradient id="paint3_linear_108_229" x1="21.5171" y1="12.6353" x2="21.5171" y2="17.8276" gradientUnits="userSpaceOnUse">
    <stop stop-color="#62D964"/>
    <stop offset="1" stop-color="#50B0CB"/>
    </linearGradient>
    <linearGradient id="paint4_linear_108_229" x1="15.4619" y1="11.3242" x2="15.4619" y2="18.7652" gradientUnits="userSpaceOnUse">
    <stop stop-color="#62D964"/>
    <stop offset="1" stop-color="#50B0CB"/>
    </linearGradient>
    <linearGradient id="paint5_linear_108_229" x1="12.9535" y1="17.811" x2="12.9535" y2="26.2502" gradientUnits="userSpaceOnUse">
    <stop stop-color="#62D964"/>
    <stop offset="1" stop-color="#50B0CB"/>
    </linearGradient>
    <linearGradient id="paint6_linear_108_229" x1="23.2635" y1="17.4463" x2="23.2635" y2="29.642" gradientUnits="userSpaceOnUse">
    <stop stop-color="#62D964"/>
    <stop offset="1" stop-color="#50B0CB"/>
    </linearGradient>
    <linearGradient id="paint7_linear_108_229" x1="6.34887" y1="28.1313" x2="11.5385" y2="28.3354" gradientUnits="userSpaceOnUse">
    <stop stop-color="#62D964"/>
    <stop offset="1" stop-color="#50B0CB"/>
    </linearGradient>
    <linearGradient id="paint8_linear_108_229" x1="31.4751" y1="26.2093" x2="26.2815" y2="26.2093" gradientUnits="userSpaceOnUse">
    <stop stop-color="#62D964"/>
    <stop offset="1" stop-color="#50B0CB"/>
    </linearGradient>
    <linearGradient id="paint9_linear_108_229" x1="19.3439" y1="1.53711" x2="19.3439" y2="37.9667" gradientUnits="userSpaceOnUse">
    <stop stop-color="#62D964"/>
    <stop offset="1" stop-color="#50B0CB"/>
    </linearGradient>
    <linearGradient id="paint10_linear_108_229" x1="31.7074" y1="16.0238" x2="26.5138" y2="16.0238" gradientUnits="userSpaceOnUse">
    <stop stop-color="#62D964"/>
    <stop offset="1" stop-color="#50B0CB"/>
    </linearGradient>
    <linearGradient id="paint11_linear_108_229" x1="26.8634" y1="11.014" x2="21.6698" y2="11.014" gradientUnits="userSpaceOnUse">
    <stop stop-color="#62D964"/>
    <stop offset="1" stop-color="#50B0CB"/>
    </linearGradient>
    <linearGradient id="paint12_linear_108_229" x1="10.335" y1="11.014" x2="15.5286" y2="11.014" gradientUnits="userSpaceOnUse">
    <stop stop-color="#62D964"/>
    <stop offset="1" stop-color="#50B0CB"/>
    </linearGradient>
    <linearGradient id="paint13_linear_108_229" x1="5.22546" y1="17.8817" x2="10.4191" y2="17.8817" gradientUnits="userSpaceOnUse">
    <stop stop-color="#62D964"/>
    <stop offset="1" stop-color="#50B0CB"/>
    </linearGradient>
    <linearGradient id="paint14_linear_108_229" x1="16.7539" y1="6.37771" x2="20.5678" y2="9.903" gradientUnits="userSpaceOnUse">
    <stop stop-color="#62D964"/>
    <stop offset="1" stop-color="#50B0CB"/>
    </linearGradient>
    <linearGradient id="paint15_linear_108_229" x1="174.802" y1="14.1061" x2="170.229" y2="14.1061" gradientUnits="userSpaceOnUse">
    <stop stop-color="#62D964"/>
    <stop offset="1" stop-color="#50B0CB"/>
    </linearGradient>
    <clipPath id="clip0_108_229">
    <rect width="6.96674" height="8.52509" fill="white" transform="translate(3.09485 27.4336) rotate(-42.7479)"/>
    </clipPath>
    <clipPath id="clip1_108_229">
    <rect width="6.96674" height="8.52509" fill="white" transform="matrix(-0.734347 -0.678774 -0.678774 0.734347 34.3689 25.4097)"/>
    </clipPath>
    <clipPath id="clip2_108_229">
    <rect width="6.96674" height="8.52509" fill="white" transform="matrix(-0.734347 -0.678774 -0.678774 0.734347 34.6011 15.2241)"/>
    </clipPath>
    <clipPath id="clip3_108_229">
    <rect width="6.96674" height="8.52509" fill="white" transform="matrix(-0.734347 -0.678774 -0.678774 0.734347 29.7571 10.2144)"/>
    </clipPath>
    <clipPath id="clip4_108_229">
    <rect width="6.96674" height="8.52509" fill="white" transform="translate(7.44116 10.2144) rotate(-42.7479)"/>
    </clipPath>
    <clipPath id="clip5_108_229">
    <rect width="6.96674" height="8.52509" fill="white" transform="translate(2.33179 17.082) rotate(-42.7479)"/>
    </clipPath>
    <clipPath id="clip6_108_229">
    <rect width="6.96674" height="8.52509" fill="white" transform="translate(15.1718 3.82617)"/>
    </clipPath>
    </defs>
    </svg>
    