<svg width="68" height="68" viewBox="0 0 68 68" fill="none" xmlns="http://www.w3.org/2000/svg">
    <rect x="0.5" y="0.5" width="67" height="67" rx="33.5" fill="#0C0C0E"/>
    <path fill-rule="evenodd" clip-rule="evenodd" d="M34.0003 21.1667C34.6447 21.1667 35.167 21.689 35.167 22.3333V27C35.167 27.6443 34.6447 28.1667 34.0003 28.1667C33.356 28.1667 32.8337 27.6443 32.8337 27V22.3333C32.8337 21.689 33.356 21.1667 34.0003 21.1667Z" fill="#75788A"/>
    <path fill-rule="evenodd" clip-rule="evenodd" d="M34.0003 39.8333C34.6447 39.8333 35.167 40.3557 35.167 41V45.6667C35.167 46.311 34.6447 46.8333 34.0003 46.8333C33.356 46.8333 32.8337 46.311 32.8337 45.6667V41C32.8337 40.3557 33.356 39.8333 34.0003 39.8333Z" fill="#75788A"/>
    <path fill-rule="evenodd" clip-rule="evenodd" d="M24.9273 24.9267C25.3829 24.4711 26.1216 24.4711 26.5772 24.9267L29.8789 28.2284C30.3345 28.684 30.3345 29.4227 29.8789 29.8783C29.4232 30.3339 28.6846 30.3339 28.2289 29.8783L24.9273 26.5766C24.4717 26.121 24.4717 25.3823 24.9273 24.9267Z" fill="#75788A"/>
    <path fill-rule="evenodd" clip-rule="evenodd" d="M38.1222 38.1217C38.5778 37.6661 39.3165 37.6661 39.7721 38.1217L43.0737 41.4234C43.5294 41.879 43.5294 42.6177 43.0737 43.0733C42.6181 43.5289 41.8794 43.5289 41.4238 43.0733L38.1222 39.7716C37.6665 39.316 37.6665 38.5773 38.1222 38.1217Z" fill="#75788A"/>
    <path fill-rule="evenodd" clip-rule="evenodd" d="M21.167 34C21.167 33.3557 21.6893 32.8333 22.3337 32.8333H27.0003C27.6447 32.8333 28.167 33.3557 28.167 34C28.167 34.6443 27.6447 35.1667 27.0003 35.1667H22.3337C21.6893 35.1667 21.167 34.6443 21.167 34Z" fill="#75788A"/>
    <path fill-rule="evenodd" clip-rule="evenodd" d="M39.8337 34C39.8337 33.3557 40.356 32.8333 41.0003 32.8333H45.667C46.3113 32.8333 46.8337 33.3557 46.8337 34C46.8337 34.6443 46.3113 35.1667 45.667 35.1667H41.0003C40.356 35.1667 39.8337 34.6443 39.8337 34Z" fill="#75788A"/>
    <path fill-rule="evenodd" clip-rule="evenodd" d="M29.8789 38.1217C30.3345 38.5773 30.3345 39.316 29.8789 39.7716L26.5772 43.0733C26.1216 43.5289 25.3829 43.5289 24.9273 43.0733C24.4717 42.6177 24.4717 41.879 24.9273 41.4234L28.2289 38.1217C28.6846 37.6661 29.4232 37.6661 29.8789 38.1217Z" fill="#75788A"/>
    <path fill-rule="evenodd" clip-rule="evenodd" d="M43.0737 24.9267C43.5294 25.3823 43.5294 26.121 43.0737 26.5766L39.7721 29.8783C39.3165 30.3339 38.5778 30.3339 38.1222 29.8783C37.6665 29.4227 37.6665 28.684 38.1222 28.2284L41.4238 24.9267C41.8794 24.4711 42.6181 24.4711 43.0737 24.9267Z" fill="#75788A"/>
    <rect x="0.5" y="0.5" width="67" height="67" rx="33.5" stroke="url(#paint0_linear_4_927)"/>
    <defs>
    <linearGradient id="paint0_linear_4_927" x1="-4.04762" y1="34" x2="73.9603" y2="39.0303" gradientUnits="userSpaceOnUse">
    <stop stop-color="#EE3674"/>
    <stop offset="1" stop-color="#5951F6"/>
    </linearGradient>
    </defs>
    </svg>
    