<svg width="32" height="32" viewBox="0 0 32 32" fill="none" xmlns="http://www.w3.org/2000/svg">
<path d="M24 17.0665C24.2946 17.0665 24.5333 16.8278 24.5333 16.5332V12.7999C24.5333 12.5053 24.2946 12.2665 24 12.2665C23.7055 12.2665 23.4667 12.5053 23.4667 12.7999V16.5332C23.4667 16.8278 23.7055 17.0665 24 17.0665Z" fill="#C4C4C4"/>
<path d="M24 20.2666C24.2946 20.2666 24.5333 20.0278 24.5333 19.7333V18.6666C24.5333 18.3721 24.2946 18.1333 24 18.1333C23.7055 18.1333 23.4667 18.3721 23.4667 18.6666V19.7333C23.4667 20.0278 23.7055 20.2666 24 20.2666Z" fill="#C4C4C4"/>
<path d="M2.59995 27.6965C2.99146 27.7319 3.38559 27.7263 3.77595 27.6799C4.65863 29.4437 6.30989 30.698 8.24582 31.0751C9.07257 31.2487 9.92542 31.2578 10.7557 31.1018C11.1825 31.0227 11.6007 30.9023 12.0042 30.7423C12.1734 30.6619 12.3385 30.5729 12.4986 30.4757C12.6106 30.4122 12.7685 30.3231 12.8933 30.2549C14.9593 31.3745 17.2678 31.9716 19.6175 31.9941C21.1485 32.0099 22.6655 31.7009 24.0682 31.0874C25.0623 30.6783 25.8783 29.9286 26.3701 28.9727V28.9701C28.3504 28.9258 30.6074 28.2042 31.5354 26.265C31.9947 25.3325 32.0542 24.253 31.7002 23.2757C31.468 22.6469 31.0345 22.1125 30.4671 21.7557C30.7701 20.6559 30.0938 19.4517 29.1381 18.8474C28.4184 18.4312 27.6185 18.1726 26.7914 18.0885C26.7477 18.0821 26.7082 18.0789 26.6656 18.0741V6.93327C26.6656 5.25113 24.8661 3.7578 21.8346 2.89487C21.7738 2.33267 21.4835 1.82057 21.0323 1.47973C20.5811 1.1389 20.0091 0.999626 19.4517 1.09487C19.1089 0.47553 18.4796 0.0681428 17.7742 0.00891407C17.0688 -0.0503147 16.3804 0.24643 15.9391 0.799934C15.3655 0.480371 14.6755 0.447232 14.074 0.71035C13.4724 0.973469 13.0283 1.50261 12.8736 2.14073C12.8485 2.13913 12.825 2.13327 12.7999 2.13327C12.341 2.13453 11.895 2.28545 11.5295 2.56313C7.70502 3.32793 5.33328 4.9962 5.33328 6.93327V19.6479C5.13488 19.6645 4.92688 19.6746 4.70822 19.6815C3.75248 19.7119 2.56262 19.7498 1.85062 20.7701C1.54086 21.2035 1.41597 21.7422 1.50342 22.2677C1.51994 22.3517 1.5433 22.4343 1.57328 22.5146C0.989418 22.8364 0.535042 23.3505 0.287416 23.9695C-0.0603343 24.7964 0.0256162 25.7421 0.516749 26.4927C0.998746 27.1826 1.76161 27.6234 2.59995 27.6965ZM7.47782 24.9231C7.5449 24.4485 7.92033 24.0769 8.39562 24.0148C8.87091 23.9526 9.3293 24.2151 9.51622 24.6565C9.25611 25.0509 9.10622 25.5078 9.08208 25.9797C8.91674 26.0803 8.72686 26.1335 8.53328 26.1333C7.94418 26.1333 7.46662 25.6557 7.46662 25.0666C7.46673 25.0177 7.47048 24.9688 7.47782 24.9205V24.9231ZM10.1445 26.2287C10.1445 26.1973 10.1349 26.1679 10.1349 26.1359C10.0736 25.2019 10.772 24.3911 11.7048 24.3132C12.6375 24.2354 13.4606 24.9193 13.555 25.8506C13.6493 26.7818 12.9801 27.6169 12.0507 27.7278C11.1213 27.8386 10.2745 27.1843 10.1471 26.257V26.2479C10.1466 26.2399 10.1429 26.233 10.1429 26.2261L10.1445 26.2287ZM11.7333 23.4666C11.227 23.4677 10.7316 23.6141 10.3061 23.8885C9.91476 23.2923 9.24959 22.9333 8.53648 22.9333C7.82338 22.9333 7.15821 23.2923 6.76688 23.8885C6.54376 23.6186 6.41491 23.2831 6.39995 22.9333V9.0474C8.10982 10.6474 11.7173 11.7333 16 11.7333C20.2826 11.7333 23.8901 10.6495 25.6 9.0474V22.9333C25.6 24.6991 21.6576 26.6666 16 26.6666C15.457 26.6666 14.905 26.6399 14.3525 26.601C14.5024 25.8234 14.2947 25.0197 13.7869 24.4121C13.2792 23.8044 12.5251 23.4573 11.7333 23.4666ZM20.7999 3.19993C20.7999 3.78904 20.3224 4.2666 19.7333 4.2666C19.1442 4.2666 18.6666 3.78904 18.6666 3.19993C18.6666 2.61083 19.1442 2.13327 19.7333 2.13327C20.3224 2.13327 20.7999 2.61083 20.7999 3.19993ZM20.7999 6.39993C20.7999 6.98904 20.3224 7.4666 19.7333 7.4666C19.1442 7.4666 18.6666 6.98904 18.6666 6.39993C18.6666 5.81083 19.1442 5.33327 19.7333 5.33327C20.3224 5.33327 20.7999 5.81083 20.7999 6.39993ZM11.2106 5.33327C11.2288 5.33593 11.2469 5.33807 11.264 5.33913C11.5881 5.35907 11.885 5.52729 12.0687 5.79513C11.8507 6.13475 11.7343 6.52966 11.7333 6.93327C11.7336 7.05578 11.7446 7.17803 11.7663 7.2986C11.5977 7.40806 11.401 7.46641 11.1999 7.4666C10.8189 7.4647 10.4677 7.25963 10.2789 6.92865C10.09 6.59767 10.092 6.19106 10.2842 5.86198C10.4764 5.53291 10.8295 5.33136 11.2106 5.33327ZM12.9455 6.39673C13.2488 6.37343 13.5435 6.28502 13.8095 6.13753C14.0934 6.48976 14.4825 6.74188 14.92 6.857C14.92 6.88473 14.9333 6.90607 14.9333 6.93487C14.9306 7.44988 14.5602 7.8894 14.0531 7.97946C13.5461 8.06951 13.047 7.78438 12.8671 7.3018C12.8225 7.18407 12.7997 7.05918 12.7999 6.93327C12.8001 6.74417 12.8503 6.55849 12.9455 6.39513V6.39673ZM17.7066 3.82607C17.8222 4.20293 18.0405 4.54015 18.337 4.79993C18.0416 5.05783 17.8234 5.39251 17.7066 5.76687C17.4488 5.65787 17.2459 5.4494 17.1439 5.18873C17.0932 5.06538 17.0669 4.93332 17.0666 4.79993C17.0684 4.58852 17.131 4.38208 17.2469 4.20527C17.2928 4.13405 17.3495 4.07036 17.4149 4.01647C17.5001 3.93628 17.5989 3.87182 17.7066 3.82607ZM16.1653 3.99727C16.0586 4.25157 16.0025 4.52419 16 4.79993C16.003 4.89126 16.0119 4.98229 16.0266 5.07247C15.7051 5.25215 15.437 5.51384 15.2495 5.83087C14.8955 5.76193 14.6017 5.51573 14.4719 5.17913C14.4682 5.16793 14.4645 5.15673 14.4597 5.14553C14.4187 5.03498 14.3985 4.91782 14.4 4.79993C14.3987 4.6183 14.4443 4.4394 14.5322 4.28047C14.5757 4.20395 14.6296 4.13378 14.6922 4.07193C15.0446 3.70607 15.6034 3.63319 16.0378 3.89647C16.0821 3.92786 16.1239 3.96244 16.1632 3.99993L16.1653 3.99727ZM16.0687 6.56953C16.1401 6.375 16.2683 6.20645 16.4368 6.0858C16.7368 6.4867 17.1707 6.76661 17.6597 6.8746C17.7137 7.10985 17.8077 7.33408 17.9375 7.53753C17.6756 7.925 17.1906 8.09492 16.7441 7.95567C16.2976 7.81643 15.9952 7.40095 16 6.93327C15.999 6.8089 16.0216 6.68547 16.0666 6.56953H16.0687ZM16.6021 1.76153C16.7372 1.39478 17.0632 1.13211 17.4502 1.07802C17.8373 1.02393 18.2228 1.1872 18.4533 1.50287C18.051 1.80316 17.7676 2.2359 17.6533 2.72473C17.4151 2.77607 17.188 2.86924 16.9823 2.99993C16.9207 2.95649 16.8637 2.90681 16.8122 2.85167C16.6295 2.65748 16.5295 2.39986 16.5333 2.13327C16.5333 2.00567 16.5566 1.87914 16.6021 1.75993V1.76153ZM14.9333 1.59993C15.1343 1.60013 15.331 1.65847 15.4997 1.76793C15.478 1.88851 15.4669 2.01076 15.4666 2.13327C15.4692 2.32 15.4963 2.50558 15.5471 2.68527C14.9905 2.66653 14.4481 2.86331 14.033 3.2346C13.9376 3.08473 13.8825 2.91279 13.873 2.7354C13.8722 2.71236 13.8701 2.68939 13.8666 2.6666C13.8666 2.0775 14.3442 1.59993 14.9333 1.59993ZM12.881 3.2138C12.9762 3.57666 13.1658 3.90786 13.4303 4.1738C13.3675 4.37662 13.3348 4.58759 13.3333 4.79993C13.3331 4.92257 13.3437 5.04499 13.3647 5.1658C13.261 5.23276 13.1461 5.28063 13.0255 5.30713C12.7409 4.83204 12.2814 4.4874 11.7456 4.34713C11.7445 4.31673 11.7333 4.2954 11.7333 4.2666C11.7333 3.6775 12.2108 3.19993 12.7999 3.19993C12.8298 3.19993 12.8533 3.21167 12.881 3.2138ZM10.7093 3.84687C10.6813 3.98503 10.667 4.12563 10.6666 4.2666C10.6666 4.29167 10.6725 4.31513 10.673 4.3402C9.86756 4.53503 9.24861 5.17994 9.08699 5.99271C8.92538 6.80548 9.25054 7.63811 9.92019 8.12626C10.5898 8.6144 11.482 8.66917 12.2063 8.2666C12.5986 8.76064 13.191 9.05376 13.8217 9.06593C14.4524 9.07811 15.0556 8.80807 15.4666 8.32953C15.8773 8.80793 16.4801 9.0781 17.1105 9.06634C17.7409 9.05458 18.3332 8.76212 18.7258 8.26873C19.0342 8.43987 19.3806 8.53083 19.7333 8.53327C20.6229 8.53721 21.4207 7.98641 21.7324 7.15316C22.044 6.31991 21.8034 5.38073 21.1296 4.79993C21.3893 4.5746 21.5906 4.28967 21.7162 3.96953C24.0933 4.67887 25.6 5.81647 25.6 6.93327C25.6 8.69913 21.6576 10.6666 16 10.6666C10.3424 10.6666 6.39995 8.69913 6.39995 6.93327C6.39995 5.72847 8.09008 4.545 10.7093 3.84687ZM1.27568 24.3733C1.48934 23.8237 1.96201 23.4162 2.53702 23.2858C2.74801 23.2409 2.91117 23.0733 2.95039 22.8611C2.98962 22.649 2.89719 22.4341 2.71622 22.3167C2.62725 22.2609 2.56677 22.1693 2.55035 22.0655C2.52097 21.8241 2.58341 21.5804 2.72528 21.3829C3.10395 20.841 3.73862 20.7823 4.74182 20.7503C4.93755 20.7445 5.13595 20.737 5.33328 20.7231V22.9333C5.36946 23.7653 5.75718 24.5429 6.39995 25.0725C6.40318 26.2484 7.35736 27.1999 8.53328 27.1999C8.77648 27.1992 9.01773 27.1565 9.24635 27.0735C9.59404 28.0035 10.4312 28.662 11.4168 28.7809C12.4025 28.8999 13.3722 28.4594 13.9312 27.6389C14.6245 27.6975 15.3178 27.7333 16 27.7333C21.9813 27.7333 26.6666 25.625 26.6666 22.9333V19.1498C27.3349 19.2158 27.9822 19.4199 28.5674 19.7493C29.2389 20.1759 29.7178 21.0901 29.3312 21.7226C29.2502 21.8553 29.2312 22.0167 29.279 22.1646C29.3269 22.3125 29.4369 22.4321 29.5802 22.4922C30.1015 22.7048 30.5096 23.1264 30.705 23.6543C30.9514 24.3593 30.9043 25.1337 30.5744 25.8037C29.7856 27.4538 27.6298 27.9679 25.881 27.8991C25.6302 27.8852 25.4049 28.0519 25.345 28.2959C25.3169 28.4016 25.3219 28.5133 25.3594 28.6159C24.9651 29.2932 24.3571 29.8205 23.6309 30.1151C20.0442 31.7354 15.8767 30.7018 13.1727 29.1903C12.8863 29.0303 12.7461 29.1093 11.9754 29.5455C11.808 29.6405 11.6554 29.7269 11.6101 29.7493C11.2712 29.8836 10.92 29.9847 10.5615 30.0511C9.86821 30.1816 9.15594 30.174 8.46555 30.0287C6.70598 29.7009 5.23801 28.4925 4.57808 26.8287C4.47784 26.5522 4.17267 26.4091 3.89595 26.5087C3.8356 26.5305 3.77961 26.5628 3.73062 26.6042C3.39403 26.639 3.05535 26.6491 2.71728 26.6346C2.19186 26.5959 1.71052 26.3266 1.40262 25.8991C1.10646 25.4442 1.05877 24.8709 1.27568 24.3733Z" fill="#C4C4C4"/>
</svg>
