<svg width="32" height="32" viewBox="0 0 32 32" fill="none" xmlns="http://www.w3.org/2000/svg">
<path d="M5.41814 21.8769C6.1986 25.2542 7.65389 28.4389 9.69654 31.2395C10.4048 32.2529 21.5941 32.2529 22.3035 31.2395C24.3461 28.4389 25.8014 25.2542 26.5819 21.8769C28.1163 20.735 28.5104 19.0603 28.1221 17.1905C27.7666 15.7776 27.173 14.4356 26.3669 13.2219C26.3701 12.8111 26.2682 12.4063 26.0709 12.0459C25.4203 10.4822 23.2864 8.80273 21.6347 7.99259C22.168 6.66518 22.0029 5.15907 21.1947 3.97873C20.412 2.93458 19.0623 2.48778 17.8112 2.85873C18.5856 0.856592 19.9387 0.618725 21.7728 1.71579C22.0247 1.85926 22.3451 1.77521 22.4942 1.52654C22.6432 1.27788 22.5664 0.955689 22.3211 0.801125C19.7296 -0.751409 17.7824 0.0592583 16.8469 2.40006C16.065 1.45317 14.7999 1.05369 13.616 1.37979C11.3563 2.01179 9.80001 4.92166 11.1888 7.82566C8.78881 8.83899 5.88214 10.6747 5.22614 13.1958C5.16325 13.4617 5.14523 13.7362 5.17281 14.0081C3.60694 16.8001 2.82667 19.951 5.41814 21.8769ZM21.5248 30.4913C19.6048 31.0854 12.3867 31.0838 10.4763 30.4913C8.7647 28.0866 7.47915 25.4056 6.67574 22.5654C8.56641 23.2822 11.0965 23.2011 12.5755 21.6438C12.6241 21.5958 12.6668 21.5421 12.7024 21.4838C13.3467 22.7032 14.6124 23.4664 15.9916 23.467C17.3707 23.4677 18.6372 22.7058 19.2827 21.487C20.6917 23.1569 23.304 23.3339 25.3237 22.5681C24.5204 25.4071 23.2354 28.0872 21.5248 30.4913ZM12.8379 3.01926C14.2661 1.75952 15.8645 2.45179 16.2731 3.49446C16.392 3.78194 16.6294 4.00399 16.9242 4.10354C17.2189 4.20309 17.5423 4.17042 17.8112 4.01393C18.6891 3.5765 19.7543 3.83055 20.3403 4.61713C20.5841 4.95797 20.7463 5.35029 20.8144 5.76379C21.1381 7.47046 20.1211 9.09446 18.3739 9.80166C17.2348 9.87316 16.0928 9.88473 14.9525 9.83633C11.7211 8.69339 10.7371 4.90992 12.8379 3.01926ZM6.26027 13.4571C6.82454 11.2913 9.67787 9.59526 11.7397 8.75046C11.9762 9.07232 12.2456 9.36868 12.5435 9.63473C12.4251 9.61873 12.3573 9.60806 12.3531 9.60699C12.0624 9.55927 11.788 9.75627 11.7403 10.047C11.6926 10.3377 11.8895 10.6121 12.1803 10.6598C14.9093 11.0259 17.6745 11.0329 20.4053 10.6806C20.6481 10.6506 20.8387 10.4581 20.8663 10.215C20.8938 9.97192 20.751 9.74167 20.5211 9.65819C20.7454 9.43988 20.9484 9.20076 21.1275 8.94406C22.7195 9.72006 24.7717 11.2763 25.3024 12.9905C23.9755 12.6353 23.2107 12.1979 22.4949 12.6171C21.4912 13.2161 22.0485 14.5467 22.0869 15.0283C22.1223 15.361 22.0237 15.694 21.8128 15.9537C21.7861 15.9755 21.7392 16.0107 21.5995 15.9659C20.8395 15.7169 20.4933 12.9494 18.4736 12.4273C17.6171 12.1707 16.6979 12.5489 16.2699 13.3339C15.8352 14.2374 16.3232 15.0406 16.128 15.6614C16.0648 15.8772 15.886 16.0393 15.6651 16.0811C15.4894 16.1021 15.3209 16.0045 15.2517 15.8417C15.1787 15.5931 15.3803 15.1787 15.4347 14.7158C15.5425 13.6571 14.8637 12.6775 13.8347 12.4065C12.9737 12.2196 12.0866 12.5824 11.6032 13.319C10.7088 14.7115 12.0197 16.3542 11.5269 17.2001C11.3719 17.4704 11.0612 17.6111 10.7558 17.5493C10.4504 17.4876 10.2187 17.2373 10.1808 16.9281C10.0933 16.2273 10.9616 15.2481 10.5541 14.1857C10.1467 13.1233 8.65761 12.679 7.50721 13.7222C7.18721 14.0187 6.86721 14.4102 6.63521 14.447C6.40321 14.4838 6.09867 14.1142 6.26027 13.4571ZM5.74507 15.1926C6.03724 15.4464 6.42573 15.5598 6.80854 15.503C7.28191 15.383 7.70311 15.1117 8.00801 14.7302C8.24887 14.3907 8.64252 14.1929 9.05867 14.2022C9.27789 14.2302 9.46739 14.3687 9.56054 14.5691C9.77707 15.1361 8.99521 16.039 9.12481 17.0683C9.22155 17.8303 9.79348 18.4456 10.5463 18.5977C11.2991 18.7499 12.0651 18.4049 12.4501 17.7403C13.2427 16.3798 11.9168 14.8107 12.4992 13.9035C12.7391 13.5474 13.1678 13.368 13.5899 13.447C14.0915 13.5935 14.4206 14.0729 14.3771 14.5937C14.2079 15.0916 14.1574 15.6221 14.2293 16.143C14.4446 16.8075 15.1001 17.2267 15.7936 17.1435C16.4345 17.0547 16.9644 16.5995 17.1488 15.9793C17.4155 15.1355 16.9989 14.2854 17.2331 13.799C17.4456 13.4842 17.8398 13.3464 18.2021 13.4603C19.2069 13.7206 19.6581 15.0459 20.1755 15.9537C20.8565 17.1558 21.8555 17.2747 22.4688 16.7963C22.9661 16.3176 23.2169 15.6375 23.1493 14.9505C23.1307 14.7709 23.1003 14.5927 23.0581 14.4171C22.768 13.0614 23.0048 13.4779 25.048 14.0246C25.233 14.0726 25.4268 14.0759 25.6133 14.0342C26.2827 15.0711 26.7771 16.2109 27.0768 17.4081C27.456 19.2257 26.9168 20.6817 25.2352 21.4481C23.6165 22.1803 21.2491 22.1681 20.0976 20.7969C19.8717 20.5307 19.5293 20.3927 19.182 20.4279C18.8347 20.4631 18.5269 20.6668 18.3589 20.9729C17.9235 21.8728 16.9992 22.432 16 22.4001C15.0011 22.4329 14.0763 21.8748 13.64 20.9755C13.472 20.6692 13.1639 20.4652 12.8163 20.4301C12.4687 20.395 12.1261 20.5334 11.9003 20.8001C10.7616 22.1611 8.39521 22.1867 6.76481 21.4507C4.20587 20.2854 4.48374 17.6934 5.74507 15.1926Z" fill="#C4C4C4"/>
<path d="M10.6395 24.3649C10.5793 24.1838 10.4271 24.0487 10.2402 24.0103C10.0534 23.972 9.86022 24.0362 9.73356 24.1789C9.6069 24.3215 9.56597 24.5209 9.62618 24.7019C9.67098 24.8353 10.728 27.9889 11.8219 29.6294C11.9277 29.7879 12.11 29.878 12.3001 29.8657C12.4903 29.8534 12.6594 29.7405 12.7439 29.5697C12.8283 29.3988 12.8151 29.1959 12.7094 29.0374C11.696 27.5163 10.6496 24.3963 10.6395 24.3649Z" fill="#C4C4C4"/>
<path d="M14.4 24.5335C14.1055 24.5335 13.8667 24.7723 13.8667 25.0668V28.8002C13.8667 29.0947 14.1055 29.3335 14.4 29.3335C14.6946 29.3335 14.9334 29.0947 14.9334 28.8002V25.0668C14.9334 24.7723 14.6946 24.5335 14.4 24.5335Z" fill="#C4C4C4"/>
<path d="M22.0352 24.0272C21.901 23.9825 21.7545 23.9929 21.628 24.0563C21.5014 24.1196 21.4052 24.2306 21.3606 24.3648C21.3504 24.3963 20.3051 27.5147 19.2896 29.0374C19.1839 29.1959 19.1707 29.3988 19.2551 29.5697C19.3396 29.7405 19.5087 29.8533 19.6989 29.8657C19.889 29.878 20.0713 29.7879 20.1771 29.6294C21.271 27.9888 22.328 24.8352 22.3728 24.7019C22.4176 24.5677 22.4071 24.4212 22.3438 24.2946C22.2805 24.1681 22.1695 24.0719 22.0352 24.0272Z" fill="#C4C4C4"/>
<path d="M17.6 24.5335C17.3054 24.5335 17.0667 24.7723 17.0667 25.0668V28.8002C17.0667 29.0947 17.3054 29.3335 17.6 29.3335C17.8945 29.3335 18.1333 29.0947 18.1333 28.8002V25.0668C18.1333 24.7723 17.8945 24.5335 17.6 24.5335Z" fill="#C4C4C4"/>
<path d="M12.9915 5.24584C13.2675 5.3486 13.5745 5.20821 13.6774 4.93224C13.7358 4.7453 13.8351 4.5737 13.968 4.42984C14.0455 4.34781 14.1533 4.30132 14.2662 4.30131C14.4564 4.33391 14.6494 4.26123 14.7708 4.11124C14.8922 3.96126 14.9232 3.75737 14.8517 3.57812C14.7802 3.39886 14.6175 3.27219 14.4262 3.24691C13.9844 3.19309 13.5424 3.34598 13.2283 3.66131C12.9781 3.91469 12.7897 4.22241 12.6779 4.56051C12.5755 4.83635 12.7158 5.14301 12.9915 5.24584Z" fill="#C4C4C4"/>
</svg>
