<svg width="64" height="64" viewBox="0 0 64 64" fill="none" xmlns="http://www.w3.org/2000/svg">
<path d="M7.67969 27.0674H7.70752C8.39697 27.0674 8.95508 26.5093 8.95508 25.8198C8.95508 25.1309 8.39697 24.5728 7.70752 24.5728H7.67969C6.99072 24.5728 6.43213 25.1309 6.43213 25.8198C6.43213 26.5093 6.99072 27.0674 7.67969 27.0674Z" fill="black"/>
<path d="M56.1616 27.0674C56.8506 27.0674 57.4092 26.5093 57.4092 25.8198C57.4092 25.1309 56.8506 24.5728 56.1616 24.5728H56.1333C55.4443 24.5728 54.8857 25.1309 54.8857 25.8198C54.8857 26.5093 55.4443 27.0674 56.1333 27.0674H56.1616Z" fill="black"/>
<path d="M7.67969 54.5078H7.70752C8.39697 54.5078 8.95508 53.9492 8.95508 53.2603C8.95508 52.5713 8.39697 52.0127 7.70752 52.0127H7.67969C6.99072 52.0127 6.43213 52.5713 6.43213 53.2603C6.43213 53.9492 6.99072 54.5078 7.67969 54.5078Z" fill="black"/>
<path d="M56.2924 52.0127C55.6034 52.0127 55.0448 52.5713 55.0448 53.2603C55.0448 53.9492 55.6034 54.5078 56.2924 54.5078H56.3207C57.0096 54.5078 57.5682 53.9492 57.5682 53.2603C57.5682 52.5713 57.0096 52.0127 56.3207 52.0127H56.2924Z" fill="black"/>
<path d="M31.9242 58.1294H31.8993C31.2103 58.1294 30.6517 58.688 30.6517 59.377C30.6517 60.0659 31.2103 60.6245 31.8993 60.6245H31.9242C32.6132 60.6245 33.1713 60.0659 33.1713 59.377C33.1713 58.688 32.6132 58.1294 31.9242 58.1294Z" fill="black"/>
<path d="M58.7821 19.4741H47.5028C47.8363 18.6816 48.0204 17.812 48.0204 16.8999C48.0204 13.5552 45.5326 10.7666 42.3129 10.3032C41.6064 8.47851 40.3891 6.85302 38.8241 5.66259C36.9643 4.24805 34.7431 3.5 32.4008 3.5C30.059 3.5 27.8378 4.24805 25.9775 5.66259C24.4121 6.85302 23.1943 8.47851 22.4863 10.3032C19.2661 10.7661 16.7778 13.5552 16.7778 16.8999C16.7778 17.812 16.9633 18.6816 17.2964 19.4741H5.21776C2.34033 19.4741 0 21.8164 0 24.6958V55.4027C0 58.2821 2.34033 60.6244 5.21776 60.6244H26.9228C27.6118 60.6244 28.1699 60.0658 28.1699 59.3768C28.1699 58.6879 27.6118 58.1293 26.9228 58.1293H5.21776C3.7163 58.1293 2.49511 56.9061 2.49511 55.4027V24.6958C2.49511 23.1923 3.7163 21.9692 5.21776 21.9692H19.1235C19.8584 22.5952 20.7299 23.0654 21.6865 23.3261L22.7929 30.6821C23.0068 32.0844 24.0571 33.0639 25.3471 33.0639H39.8466C41.1366 33.0639 42.1869 32.0844 42.4013 30.6791L43.5238 23.1982C44.3192 22.9248 45.0463 22.5034 45.6737 21.9687H58.7826C60.2836 21.9687 61.5052 23.1919 61.5052 24.6958V55.4027C61.5052 56.9061 60.2836 58.1293 58.7826 58.1293H36.8764C36.1869 58.1293 35.6288 58.6879 35.6288 59.3768C35.6288 60.0658 36.1869 60.6244 36.8764 60.6244H58.7826C61.6595 60.6244 63.9999 58.2816 63.9999 55.4027V24.6958C63.9999 21.8164 61.6595 19.4741 58.7821 19.4741ZM25.3637 30.5688C25.3334 30.5361 25.2807 30.4462 25.2597 30.3085L24.2377 23.5122C24.2539 23.5102 24.269 23.5073 24.2841 23.5044C25.0073 23.4121 25.707 23.2041 26.3598 22.8847C26.3608 22.8852 26.3618 22.8857 26.3627 22.8862C26.478 22.9658 26.5942 23.0424 26.7123 23.1171L27.228 30.5688H25.3637ZM31.3476 30.5688H29.7289L29.2954 24.3032C29.4531 24.351 29.6118 24.395 29.7719 24.436C29.7905 24.4409 29.8095 24.4458 29.8286 24.4502C30.3266 24.5747 30.8344 24.6635 31.3476 24.7148V30.5688ZM35.4648 30.5688H33.8427V24.6684C34.1938 24.6201 34.5419 24.5551 34.8857 24.4721C34.8896 24.4707 34.8935 24.4697 34.8979 24.4687C35.0536 24.4311 35.2079 24.3896 35.3622 24.3447C35.3871 24.3374 35.412 24.33 35.4369 24.3227C35.5956 24.2753 35.7529 24.2255 35.9086 24.1709L35.4648 30.5688ZM39.9345 30.3061C39.913 30.4457 39.8603 30.5361 39.83 30.5688H37.9657L38.497 22.9101C39.2602 23.2749 40.0844 23.4902 40.932 23.5449L39.9345 30.3061ZM42.1703 20.9863C42.1698 20.9863 42.1693 20.9863 42.1684 20.9863C42.1029 20.9995 42.037 21.0107 41.9706 21.0205C41.9672 21.021 41.9643 21.0214 41.9609 21.0219C41.8984 21.0307 41.8354 21.0385 41.7719 21.0449C41.7538 21.0468 41.7353 21.0473 41.7172 21.0493C41.6684 21.0532 41.6195 21.0576 41.5707 21.06C41.5028 21.0634 41.4345 21.0654 41.3656 21.0654C40.5351 21.0654 39.7314 20.8203 39.04 20.3569C38.5824 20.0507 37.9784 20.08 37.5532 20.4297C36.1059 21.6191 34.2758 22.2744 32.4008 22.2744C30.5234 22.2744 28.6923 21.6191 27.2446 20.4297C27.0156 20.2412 26.7348 20.146 26.4526 20.146C26.2104 20.146 25.9677 20.2163 25.7563 20.3584C25.0688 20.8208 24.2656 21.0649 23.4326 21.0649C21.1386 21.0649 19.2724 19.1963 19.2724 16.8994C19.2724 14.6142 21.1279 12.7441 23.4086 12.7304C23.9594 12.727 24.4423 12.3633 24.5981 11.8345C25.6088 8.39647 28.8173 5.99511 32.4008 5.99511C35.9853 5.99511 39.1928 8.39599 40.2001 11.8335C40.3549 12.3628 40.8388 12.727 41.3896 12.7304C43.6703 12.7441 45.5258 14.6142 45.5258 16.8994C45.5253 18.9209 44.0805 20.6098 42.1703 20.9863Z" fill="black"/>
<path d="M13.441 37.6001L11.245 38.3921L11.713 40.0361L13.201 39.6281V46.0001H15.121V37.6001H13.441Z" fill="black"/>
<path d="M24.4848 40.0001H19.0848V41.7281H20.8968V46.0001H22.6968V41.7281H24.4848V40.0001Z" fill="black"/>
<path d="M27.9072 46.1681C29.6712 46.1681 31.0872 44.7881 31.0872 43.0001C31.0872 41.2121 29.6712 39.8321 27.9072 39.8321C26.1432 39.8321 24.7272 41.2121 24.7272 43.0001C24.7272 44.7881 26.1432 46.1681 27.9072 46.1681ZM27.9072 44.4161C27.1272 44.4161 26.5272 43.8521 26.5272 43.0001C26.5272 42.1481 27.1272 41.5841 27.9072 41.5841C28.6872 41.5841 29.2872 42.1481 29.2872 43.0001C29.2872 43.8521 28.6872 44.4161 27.9072 44.4161Z" fill="black"/>
<path d="M35.9453 40.0001V42.1601H33.9053V40.0001H32.1053V46.0001H33.9053V43.8401H35.9453V46.0001H37.7453V40.0001H35.9453Z" fill="black"/>
<path d="M42.9062 40.0001V42.1601H40.8662V40.0001H39.0662V46.0001H40.8662V43.8401H42.9062V46.0001H44.7062V40.0001H42.9062Z" fill="black"/>
<path d="M50.3832 40.0001V40.5641C49.9872 40.1081 49.3992 39.8321 48.5952 39.8321C47.0232 39.8321 45.7272 41.2121 45.7272 43.0001C45.7272 44.7881 47.0232 46.1681 48.5952 46.1681C49.3992 46.1681 49.9872 45.8921 50.3832 45.4361V46.0001H52.1832V40.0001H50.3832ZM48.9552 44.4641C48.1272 44.4641 47.5272 43.9001 47.5272 43.0001C47.5272 42.1001 48.1272 41.5361 48.9552 41.5361C49.7832 41.5361 50.3832 42.1001 50.3832 43.0001C50.3832 43.9001 49.7832 44.4641 48.9552 44.4641Z" fill="black"/>
</svg>
