<svg width="24" height="24" viewBox="0 0 24 24" fill="none" xmlns="http://www.w3.org/2000/svg">
<path d="M18.1883 17.8337C16.6524 17.8337 15.386 19.0732 15.386 20.636C15.386 22.1719 16.6255 23.4384 18.1883 23.4384C19.7242 23.4384 20.9907 22.1989 20.9907 20.636C20.9637 19.1001 19.7242 17.8337 18.1883 17.8337Z" fill="#E8437B"/>
<path d="M23.1194 4.46867C23.0655 4.46867 22.9846 4.44173 22.9038 4.44173H5.92804L5.65859 2.63637C5.49691 1.45076 4.47298 0.561554 3.26042 0.561554H1.07783C0.485022 0.561554 0 1.04658 0 1.63938C0 2.23218 0.485022 2.71721 1.07783 2.71721H3.26042C3.39515 2.71721 3.50294 2.82499 3.52988 2.95972L5.20051 14.3308C5.41608 15.7589 6.65558 16.8367 8.11064 16.8367H19.32C20.7212 16.8367 21.9338 15.8397 22.2302 14.4655L23.9816 5.70817C24.0894 5.14232 23.7122 4.57646 23.1194 4.46867Z" fill="#E8437B"/>
<path d="M11.3172 20.5013C11.2633 19.0193 10.0238 17.8337 8.54176 17.8337C6.97891 17.9145 5.7933 19.2079 5.84719 20.7438C5.90109 22.2258 7.11364 23.4114 8.59565 23.4114H8.64954C10.1854 23.3306 11.398 22.0372 11.3172 20.5013Z" fill="#E8437B"/>
</svg>
