<svg width="33" height="33" viewBox="0 0 33 33" fill="none" xmlns="http://www.w3.org/2000/svg">
<path d="M30.5876 31.3606H2.04702C1.81765 31.3606 1.59767 31.2694 1.43547 31.1073C1.27328 30.9451 1.18216 30.7251 1.18216 30.4957V28.766C1.18216 28.5366 1.27328 28.3166 1.43547 28.1544C1.59767 27.9922 1.81765 27.9011 2.04702 27.9011H30.5876C30.8169 27.9011 31.0369 27.9922 31.1991 28.1544C31.3613 28.3166 31.4524 28.5366 31.4524 28.766V30.4957C31.4524 30.7251 31.3613 30.9451 31.1991 31.1073C31.0369 31.2694 30.8169 31.3606 30.5876 31.3606ZM2.04702 28.766V30.4957H30.5876V28.766H2.04702Z" fill="#C4C4C4"/>
<path d="M29.2903 28.7659H3.34433C3.22964 28.7659 3.11965 28.7204 3.03855 28.6393C2.95746 28.5582 2.9119 28.4482 2.9119 28.3335V21.4146C2.91281 20.612 3.23202 19.8426 3.7995 19.2752C4.36698 18.7077 5.13639 18.3885 5.93892 18.3876H26.6957C27.4982 18.3885 28.2676 18.7077 28.8351 19.2752C29.4026 19.8426 29.7218 20.612 29.7227 21.4146V28.3335C29.7227 28.4482 29.6771 28.5582 29.596 28.6393C29.5149 28.7204 29.4049 28.7659 29.2903 28.7659ZM3.77676 27.9011H28.8578V21.4146C28.8571 20.8414 28.6291 20.2918 28.2238 19.8865C27.8185 19.4811 27.2689 19.2531 26.6957 19.2524H5.93892C5.36569 19.2531 4.81614 19.4811 4.4108 19.8865C4.00547 20.2918 3.77745 20.8414 3.77676 21.4146V27.9011Z" fill="#C4C4C4"/>
<path d="M24.9659 25.5227C24.0614 25.5291 23.1894 25.1852 22.5326 24.5632C22.0266 24.0695 21.3475 23.7931 20.6405 23.7931C19.9335 23.7931 19.2545 24.0695 18.7484 24.5632C18.0886 25.1797 17.2193 25.5227 16.3162 25.5227C15.4132 25.5227 14.5438 25.1797 13.884 24.5632C13.378 24.0694 12.6991 23.793 11.9921 23.793C11.2851 23.793 10.6062 24.0694 10.1002 24.5632C9.44071 25.1798 8.57154 25.5229 7.66865 25.5229C6.76576 25.5229 5.89659 25.1798 5.23708 24.5632C4.98777 24.3166 4.69225 24.1216 4.36745 23.9895C4.04266 23.8573 3.69497 23.7905 3.34433 23.793C3.22964 23.793 3.11965 23.7474 3.03855 23.6663C2.95746 23.5852 2.9119 23.4752 2.9119 23.3606C2.9119 23.2459 2.95746 23.1359 3.03855 23.0548C3.11965 22.9737 3.22964 22.9281 3.34433 22.9281C4.24827 22.9217 5.11956 23.2656 5.77546 23.8877C6.28113 24.3814 6.9598 24.6577 7.66649 24.6577C8.37318 24.6577 9.05184 24.3814 9.55751 23.8877C10.2174 23.271 11.0868 22.928 11.9899 22.928C12.8931 22.928 13.7625 23.271 14.4224 23.8877C14.9283 24.3814 15.6072 24.6578 16.3141 24.6578C17.021 24.6578 17.6998 24.3814 18.2057 23.8877C18.8657 23.2711 19.7352 22.9281 20.6384 22.9281C21.5416 22.9281 22.4111 23.2711 23.071 23.8877C23.5775 24.3815 24.2568 24.6579 24.9642 24.6579C25.6716 24.6579 26.3509 24.3815 26.8574 23.8877C27.5139 23.2655 28.3858 22.9216 29.2903 22.9281C29.4049 22.9281 29.5149 22.9737 29.596 23.0548C29.6771 23.1359 29.7227 23.2459 29.7227 23.3606C29.7227 23.4752 29.6771 23.5852 29.596 23.6663C29.5149 23.7474 29.4049 23.793 29.2903 23.793C28.9396 23.7907 28.592 23.8576 28.2672 23.9897C27.9425 24.1219 27.6469 24.3167 27.3975 24.5632C26.7412 25.1848 25.8699 25.5286 24.9659 25.5227Z" fill="#C4C4C4"/>
<path d="M26.2632 19.2524H6.37134C6.25665 19.2524 6.14666 19.2069 6.06556 19.1258C5.98446 19.0447 5.9389 18.9347 5.9389 18.82V12.3335C5.93959 11.7603 6.16761 11.2107 6.57294 10.8054C6.97828 10.4 7.52783 10.172 8.10106 10.1713H24.5335C25.1067 10.172 25.6563 10.4 26.0616 10.8054C26.4669 11.2107 26.695 11.7603 26.6956 12.3335V18.82C26.6956 18.9347 26.6501 19.0447 26.569 19.1258C26.4879 19.2069 26.3779 19.2524 26.2632 19.2524ZM6.80377 18.3876H25.8308V12.3335C25.8308 11.9894 25.6941 11.6595 25.4508 11.4162C25.2075 11.1729 24.8776 11.0362 24.5335 11.0362H8.10106C7.757 11.0362 7.42703 11.1729 7.18374 11.4162C6.94045 11.6595 6.80377 11.9894 6.80377 12.3335V18.3876Z" fill="#C4C4C4"/>
<path d="M22.9465 16.2397C22.2299 16.2463 21.5387 15.9747 21.0182 15.4821C20.6481 15.1178 20.1496 14.9137 19.6304 14.9137C19.1111 14.9137 18.6126 15.1178 18.2425 15.4821C17.7187 15.9691 17.0299 16.2398 16.3147 16.2398C15.5994 16.2398 14.9107 15.9691 14.3869 15.4821C14.017 15.1179 13.5187 14.9138 12.9997 14.9138C12.4806 14.9138 11.9823 15.1179 11.6124 15.4821C11.0888 15.9691 10.4002 16.2399 9.68506 16.2399C8.96994 16.2399 8.28133 15.9691 7.75771 15.4821C7.57593 15.3 7.35971 15.1561 7.12168 15.0585C6.88365 14.9609 6.62857 14.9118 6.37134 14.9138C6.25665 14.9138 6.14666 14.8683 6.06556 14.7872C5.98446 14.7061 5.9389 14.5961 5.9389 14.4814C5.9389 14.3667 5.98446 14.2567 6.06556 14.1756C6.14666 14.0945 6.25665 14.049 6.37134 14.049C7.08747 14.0427 7.77817 14.3143 8.29825 14.8066C8.66803 15.1707 9.16614 15.3747 9.68506 15.3747C10.204 15.3747 10.7021 15.1707 11.0719 14.8066C11.5957 14.3196 12.2844 14.0489 12.9997 14.0489C13.7149 14.0489 14.4036 14.3196 14.9274 14.8066C15.2974 15.1707 15.7956 15.3748 16.3147 15.3748C16.8337 15.3748 17.332 15.1707 17.7019 14.8066C18.2259 14.3195 18.9148 14.0488 19.6301 14.0488C20.3455 14.0488 21.0344 14.3195 21.5584 14.8066C21.9286 15.1709 22.4273 15.375 22.9467 15.375C23.4661 15.375 23.9647 15.1709 24.335 14.8066C24.8554 14.3139 25.5466 14.0424 26.2632 14.049C26.3779 14.049 26.4879 14.0945 26.569 14.1756C26.6501 14.2567 26.6956 14.3667 26.6956 14.4814C26.6956 14.5961 26.6501 14.7061 26.569 14.7872C26.4879 14.8683 26.3779 14.9138 26.2632 14.9138C26.0057 14.9118 25.7503 14.9609 25.5119 15.0585C25.2735 15.156 25.0569 15.3 24.8747 15.4821C24.3543 15.9747 23.663 16.2463 22.9465 16.2397Z" fill="#C4C4C4"/>
<path d="M21.5065 11.0362H18.9119C18.7972 11.0362 18.6872 10.9906 18.6061 10.9095C18.525 10.8284 18.4795 10.7184 18.4795 10.6037V5.41453C18.4795 5.29985 18.525 5.18985 18.6061 5.10876C18.6872 5.02766 18.7972 4.9821 18.9119 4.9821H21.5065C21.6212 4.9821 21.7312 5.02766 21.8123 5.10876C21.8934 5.18985 21.9389 5.29985 21.9389 5.41453V10.6037C21.9389 10.7184 21.8934 10.8284 21.8123 10.9095C21.7312 10.9906 21.6212 11.0362 21.5065 11.0362ZM19.3443 10.1713H21.0741V5.84697H19.3443V10.1713Z" fill="#C4C4C4"/>
<path d="M13.7227 11.0362H11.1281C11.0134 11.0362 10.9034 10.9906 10.8223 10.9095C10.7412 10.8284 10.6957 10.7184 10.6957 10.6037V5.41453C10.6957 5.29985 10.7412 5.18985 10.8223 5.10876C10.9034 5.02766 11.0134 4.9821 11.1281 4.9821H13.7227C13.8374 4.9821 13.9474 5.02766 14.0285 5.10876C14.1096 5.18985 14.1551 5.29985 14.1551 5.41453V10.6037C14.1551 10.7184 14.1096 10.8284 14.0285 10.9095C13.9474 10.9906 13.8374 11.0362 13.7227 11.0362ZM11.5605 10.1713H13.2903V5.84697H11.5605V10.1713Z" fill="#C4C4C4"/>
<path d="M20.2092 4.72999C19.8651 4.72999 19.5352 4.59331 19.2919 4.35002C19.0486 4.10673 18.9119 3.77675 18.9119 3.43269C18.9119 2.89301 19.5605 1.7609 19.839 1.29907C19.8804 1.23904 19.9357 1.18996 20.0002 1.15606C20.0647 1.12215 20.1365 1.10444 20.2094 1.10444C20.2823 1.10444 20.3541 1.12215 20.4186 1.15606C20.4831 1.18996 20.5384 1.23904 20.5798 1.29907C20.8578 1.7609 21.5065 2.89258 21.5065 3.43269C21.5065 3.77675 21.3698 4.10673 21.1265 4.35002C20.8832 4.59331 20.5533 4.72999 20.2092 4.72999ZM20.2092 2.4035C20.0178 2.72491 19.8723 3.07146 19.7768 3.43312C19.7768 3.54781 19.8223 3.6578 19.9034 3.7389C19.9845 3.81999 20.0945 3.86555 20.2092 3.86555C20.3239 3.86555 20.4339 3.81999 20.515 3.7389C20.5961 3.6578 20.6416 3.54781 20.6416 3.43312C20.5462 3.0713 20.4006 2.72459 20.2092 2.40307V2.4035Z" fill="#C4C4C4"/>
<path d="M20.2092 5.84698C20.0945 5.84698 19.9845 5.80142 19.9034 5.72032C19.8223 5.63922 19.7768 5.52923 19.7768 5.41455V4.29757C19.7768 4.18289 19.8223 4.0729 19.9034 3.9918C19.9845 3.9107 20.0945 3.86514 20.2092 3.86514C20.3239 3.86514 20.4339 3.9107 20.515 3.9918C20.5961 4.0729 20.6416 4.18289 20.6416 4.29757V5.41455C20.6416 5.52923 20.5961 5.63922 20.515 5.72032C20.4339 5.80142 20.3239 5.84698 20.2092 5.84698Z" fill="#C4C4C4"/>
<path d="M12.4254 4.72999C12.0813 4.72999 11.7514 4.59331 11.5081 4.35002C11.2648 4.10673 11.1281 3.77675 11.1281 3.43269C11.1281 2.89301 11.7768 1.7609 12.0552 1.29907C12.0966 1.23904 12.1519 1.18996 12.2164 1.15606C12.2809 1.12215 12.3527 1.10444 12.4256 1.10444C12.4985 1.10444 12.5703 1.12215 12.6348 1.15606C12.6993 1.18996 12.7547 1.23904 12.796 1.29907C13.0741 1.7609 13.7227 2.89258 13.7227 3.43269C13.7227 3.77675 13.586 4.10673 13.3427 4.35002C13.0994 4.59331 12.7695 4.72999 12.4254 4.72999ZM12.4254 2.4035C12.2341 2.72491 12.0885 3.07146 11.993 3.43312C11.993 3.54781 12.0385 3.6578 12.1196 3.7389C12.2007 3.81999 12.3107 3.86555 12.4254 3.86555C12.5401 3.86555 12.6501 3.81999 12.7312 3.7389C12.8123 3.6578 12.8578 3.54781 12.8578 3.43312C12.7624 3.0713 12.6168 2.72459 12.4254 2.40307V2.4035Z" fill="#C4C4C4"/>
<path d="M12.4254 5.84698C12.3107 5.84698 12.2007 5.80142 12.1196 5.72032C12.0385 5.63922 11.993 5.52923 11.993 5.41455V4.29757C11.993 4.18289 12.0385 4.0729 12.1196 3.9918C12.2007 3.9107 12.3107 3.86514 12.4254 3.86514C12.5401 3.86514 12.6501 3.9107 12.7312 3.9918C12.8123 4.0729 12.8578 4.18289 12.8578 4.29757V5.41455C12.8578 5.52923 12.8123 5.63922 12.7312 5.72032C12.6501 5.80142 12.5401 5.84698 12.4254 5.84698Z" fill="#C4C4C4"/>
</svg>
