<svg width="32" height="32" viewBox="0 0 32 32" fill="none" xmlns="http://www.w3.org/2000/svg">
<path d="M30.2703 31.1352H1.72973C1.50036 31.1352 1.28037 31.0441 1.11818 30.8819C0.955988 30.7197 0.864868 30.4997 0.864868 30.2703V28.5406C0.864868 28.3112 0.955988 28.0912 1.11818 27.929C1.28037 27.7668 1.50036 27.6757 1.72973 27.6757H30.2703C30.4997 27.6757 30.7196 27.7668 30.8818 27.929C31.044 28.0912 31.1351 28.3112 31.1351 28.5406V30.2703C31.1351 30.4997 31.044 30.7197 30.8818 30.8819C30.7196 31.0441 30.4997 31.1352 30.2703 31.1352ZM1.72973 28.5406V30.2703H30.2703V28.5406H1.72973Z" fill="#C4C4C4"/>
<path d="M28.973 28.5405H3.02704C2.91235 28.5405 2.80236 28.495 2.72126 28.4139C2.64016 28.3328 2.5946 28.2228 2.5946 28.1081V21.1892C2.59552 20.3867 2.91473 19.6173 3.48221 19.0498C4.04969 18.4823 4.81909 18.1631 5.62163 18.1622H26.3784C27.1809 18.1631 27.9503 18.4823 28.5178 19.0498C29.0853 19.6173 29.4045 20.3867 29.4054 21.1892V28.1081C29.4054 28.2228 29.3598 28.3328 29.2787 28.4139C29.1977 28.495 29.0877 28.5405 28.973 28.5405ZM3.45947 27.6757H28.5405V21.1892C28.5399 20.616 28.3118 20.0664 27.9065 19.6611C27.5012 19.2557 26.9516 19.0277 26.3784 19.027H5.62163C5.0484 19.0277 4.49884 19.2557 4.09351 19.6611C3.68817 20.0664 3.46016 20.616 3.45947 21.1892V27.6757Z" fill="#C4C4C4"/>
<path d="M24.6486 25.2973C23.7441 25.3037 22.8721 24.9598 22.2154 24.3378C21.7093 23.8441 21.0303 23.5677 20.3232 23.5677C19.6162 23.5677 18.9372 23.8441 18.4311 24.3378C17.7713 24.9543 16.902 25.2973 15.9989 25.2973C15.0959 25.2973 14.2265 24.9543 13.5667 24.3378C13.0607 23.844 12.3818 23.5676 11.6748 23.5676C10.9678 23.5676 10.2889 23.844 9.78293 24.3378C9.12342 24.9544 8.25425 25.2975 7.35136 25.2975C6.44847 25.2975 5.5793 24.9544 4.91979 24.3378C4.67048 24.0912 4.37496 23.8962 4.05016 23.7641C3.72537 23.6319 3.37768 23.5651 3.02704 23.5676C2.91235 23.5676 2.80236 23.522 2.72126 23.4409C2.64016 23.3598 2.5946 23.2499 2.5946 23.1352C2.5946 23.0205 2.64016 22.9105 2.72126 22.8294C2.80236 22.7483 2.91235 22.7027 3.02704 22.7027C3.93098 22.6964 4.80227 23.0403 5.45817 23.6623C5.96384 24.156 6.64251 24.4323 7.3492 24.4323C8.05588 24.4323 8.73455 24.156 9.24022 23.6623C9.90006 23.0456 10.7695 22.7026 11.6727 22.7026C12.5758 22.7026 13.4452 23.0456 14.1051 23.6623C14.611 24.1561 15.2899 24.4324 15.9968 24.4324C16.7037 24.4324 17.3825 24.1561 17.8884 23.6623C18.5484 23.0457 19.4179 22.7027 20.3211 22.7027C21.2243 22.7027 22.0938 23.0457 22.7537 23.6623C23.2602 24.1561 23.9396 24.4325 24.6469 24.4325C25.3543 24.4325 26.0337 24.1561 26.5401 23.6623C27.1966 23.0401 28.0685 22.6962 28.973 22.7027C29.0877 22.7027 29.1977 22.7483 29.2787 22.8294C29.3598 22.9105 29.4054 23.0205 29.4054 23.1352C29.4054 23.2499 29.3598 23.3598 29.2787 23.4409C29.1977 23.522 29.0877 23.5676 28.973 23.5676C28.6224 23.5653 28.2747 23.6322 27.95 23.7643C27.6252 23.8965 27.3296 24.0913 27.0802 24.3378C26.4239 24.9594 25.5526 25.3032 24.6486 25.2973Z" fill="#C4C4C4"/>
<path d="M25.9459 19.027H6.05401C5.93933 19.027 5.82934 18.9815 5.74824 18.9004C5.66714 18.8193 5.62158 18.7093 5.62158 18.5946V12.1081C5.62227 11.5349 5.85029 10.9853 6.25562 10.58C6.66096 10.1747 7.21051 9.94664 7.78374 9.94595H24.2162C24.7894 9.94664 25.339 10.1747 25.7443 10.58C26.1496 10.9853 26.3776 11.5349 26.3783 12.1081V18.5946C26.3783 18.7093 26.3328 18.8193 26.2517 18.9004C26.1706 18.9815 26.0606 19.027 25.9459 19.027ZM6.48645 18.1622H25.5135V12.1081C25.5135 11.7641 25.3768 11.4341 25.1335 11.1908C24.8902 10.9475 24.5602 10.8108 24.2162 10.8108H7.78374C7.43968 10.8108 7.10971 10.9475 6.86642 11.1908C6.62313 11.4341 6.48645 11.7641 6.48645 12.1081V18.1622Z" fill="#C4C4C4"/>
<path d="M22.6291 16.0143C21.9126 16.0209 21.2213 15.7493 20.7009 15.2566C20.3308 14.8924 19.8323 14.6883 19.313 14.6883C18.7938 14.6883 18.2953 14.8924 17.9251 15.2566C17.4013 15.7437 16.7126 16.0144 15.9974 16.0144C15.2821 16.0144 14.5934 15.7437 14.0696 15.2566C13.6997 14.8925 13.2014 14.6884 12.6823 14.6884C12.1633 14.6884 11.665 14.8925 11.2951 15.2566C10.7715 15.7437 10.0829 16.0145 9.36774 16.0145C8.65262 16.0145 7.96401 15.7437 7.44039 15.2566C7.2586 15.0746 7.04239 14.9306 6.80436 14.8331C6.56633 14.7355 6.31125 14.6864 6.05401 14.6884C5.93933 14.6884 5.82934 14.6429 5.74824 14.5618C5.66714 14.4807 5.62158 14.3707 5.62158 14.256C5.62158 14.1413 5.66714 14.0313 5.74824 13.9502C5.82934 13.8691 5.93933 13.8236 6.05401 13.8236C6.77015 13.8173 7.46084 14.0888 7.98093 14.5812C8.3507 14.9453 8.84882 15.1493 9.36774 15.1493C9.88667 15.1493 10.3848 14.9453 10.7546 14.5812C11.2784 14.0942 11.9671 13.8235 12.6823 13.8235C13.3976 13.8235 14.0863 14.0942 14.6101 14.5812C14.98 14.9453 15.4783 15.1494 15.9974 15.1494C16.5164 15.1494 17.0147 14.9453 17.3846 14.5812C17.9086 14.0941 18.5974 13.8234 19.3128 13.8234C20.0282 13.8234 20.7171 14.0941 21.241 14.5812C21.6113 14.9455 22.1099 15.1496 22.6294 15.1496C23.1488 15.1496 23.6474 14.9455 24.0177 14.5812C24.5381 14.0885 25.2293 13.8169 25.9459 13.8236C26.0606 13.8236 26.1706 13.8691 26.2517 13.9502C26.3328 14.0313 26.3783 14.1413 26.3783 14.256C26.3783 14.3707 26.3328 14.4807 26.2517 14.5618C26.1706 14.6429 26.0606 14.6884 25.9459 14.6884C25.6883 14.6864 25.4329 14.7355 25.1946 14.8331C24.9562 14.9306 24.7396 15.0746 24.5574 15.2566C24.0369 15.7493 23.3457 16.0209 22.6291 16.0143Z" fill="#C4C4C4"/>
<path d="M21.1891 10.8108H18.5945C18.4799 10.8108 18.3699 10.7652 18.2888 10.6841C18.2077 10.603 18.1621 10.493 18.1621 10.3783V5.18915C18.1621 5.07446 18.2077 4.96447 18.2888 4.88337C18.3699 4.80227 18.4799 4.75671 18.5945 4.75671H21.1891C21.3038 4.75671 21.4138 4.80227 21.4949 4.88337C21.576 4.96447 21.6216 5.07446 21.6216 5.18915V10.3783C21.6216 10.493 21.576 10.603 21.4949 10.6841C21.4138 10.7652 21.3038 10.8108 21.1891 10.8108ZM19.027 9.9459H20.7567V5.62158H19.027V9.9459Z" fill="#C4C4C4"/>
<path d="M13.4054 10.8108H10.8109C10.6962 10.8108 10.5862 10.7652 10.5051 10.6841C10.424 10.603 10.3784 10.493 10.3784 10.3783V5.18915C10.3784 5.07446 10.424 4.96447 10.5051 4.88337C10.5862 4.80227 10.6962 4.75671 10.8109 4.75671H13.4054C13.5201 4.75671 13.6301 4.80227 13.7112 4.88337C13.7923 4.96447 13.8379 5.07446 13.8379 5.18915V10.3783C13.8379 10.493 13.7923 10.603 13.7112 10.6841C13.6301 10.7652 13.5201 10.8108 13.4054 10.8108ZM11.2433 9.9459H12.973V5.62158H11.2433V9.9459Z" fill="#C4C4C4"/>
<path d="M19.8919 4.50461C19.5478 4.50461 19.2179 4.36793 18.9746 4.12464C18.7313 3.88135 18.5946 3.55137 18.5946 3.20731C18.5946 2.66763 19.2433 1.53553 19.5217 1.07369C19.5631 1.01366 19.6184 0.964583 19.6829 0.930678C19.7474 0.896774 19.8192 0.879059 19.8921 0.879059C19.965 0.879059 20.0368 0.896774 20.1013 0.930678C20.1658 0.964583 20.2212 1.01366 20.2625 1.07369C20.5405 1.53553 21.1892 2.6672 21.1892 3.20731C21.1892 3.55137 21.0525 3.88135 20.8092 4.12464C20.5659 4.36793 20.236 4.50461 19.8919 4.50461ZM19.8919 2.17812C19.7005 2.49953 19.555 2.84608 19.4595 3.20774C19.4595 3.32243 19.505 3.43242 19.5861 3.51352C19.6672 3.59461 19.7772 3.64017 19.8919 3.64017C20.0066 3.64017 20.1166 3.59461 20.1977 3.51352C20.2788 3.43242 20.3243 3.32243 20.3243 3.20774C20.2289 2.84592 20.0833 2.49921 19.8919 2.17769V2.17812Z" fill="#C4C4C4"/>
<path d="M19.8919 5.62157C19.7772 5.62157 19.6672 5.57601 19.5861 5.49492C19.505 5.41382 19.4595 5.30383 19.4595 5.18914V4.07217C19.4595 3.95748 19.505 3.84749 19.5861 3.7664C19.6672 3.6853 19.7772 3.63974 19.8919 3.63974C20.0066 3.63974 20.1166 3.6853 20.1977 3.7664C20.2788 3.84749 20.3243 3.95748 20.3243 4.07217V5.18914C20.3243 5.30383 20.2788 5.41382 20.1977 5.49492C20.1166 5.57601 20.0066 5.62157 19.8919 5.62157Z" fill="#C4C4C4"/>
<path d="M12.1081 4.50461C11.764 4.50461 11.4341 4.36793 11.1908 4.12464C10.9475 3.88135 10.8108 3.55137 10.8108 3.20731C10.8108 2.66763 11.4594 1.53553 11.7379 1.07369C11.7793 1.01366 11.8346 0.964583 11.8991 0.930678C11.9636 0.896774 12.0354 0.879059 12.1083 0.879059C12.1812 0.879059 12.253 0.896774 12.3175 0.930678C12.382 0.964583 12.4373 1.01366 12.4787 1.07369C12.7567 1.53553 13.4054 2.6672 13.4054 3.20731C13.4054 3.55137 13.2687 3.88135 13.0254 4.12464C12.7821 4.36793 12.4522 4.50461 12.1081 4.50461ZM12.1081 2.17812C11.9167 2.49953 11.7712 2.84608 11.6757 3.20774C11.6757 3.32243 11.7212 3.43242 11.8023 3.51352C11.8834 3.59461 11.9934 3.64017 12.1081 3.64017C12.2228 3.64017 12.3328 3.59461 12.4139 3.51352C12.495 3.43242 12.5405 3.32243 12.5405 3.20774C12.4451 2.84592 12.2995 2.49921 12.1081 2.17769V2.17812Z" fill="#C4C4C4"/>
<path d="M12.1081 5.62157C11.9934 5.62157 11.8834 5.57601 11.8023 5.49492C11.7212 5.41382 11.6757 5.30383 11.6757 5.18914V4.07217C11.6757 3.95748 11.7212 3.84749 11.8023 3.7664C11.8834 3.6853 11.9934 3.63974 12.1081 3.63974C12.2228 3.63974 12.3328 3.6853 12.4139 3.7664C12.495 3.84749 12.5405 3.95748 12.5405 4.07217V5.18914C12.5405 5.30383 12.495 5.41382 12.4139 5.49492C12.3328 5.57601 12.2228 5.62157 12.1081 5.62157Z" fill="#C4C4C4"/>
</svg>
