<svg width="32" height="32" viewBox="0 0 32 32" fill="none" xmlns="http://www.w3.org/2000/svg">
<path d="M31.9909 5.82184C31.9918 5.80347 31.9917 5.78503 31.9906 5.76665C31.9843 5.74722 31.9769 5.72822 31.9683 5.70972C31.9378 5.61853 31.8852 5.53622 31.8153 5.47016C31.7891 5.44859 31.7609 5.42959 31.7312 5.41347C31.7048 5.39634 31.6768 5.38172 31.6476 5.36972C31.6112 5.35822 31.5736 5.35066 31.5356 5.34716C31.513 5.34091 31.4899 5.33628 31.4666 5.33322C31.4609 5.33322 31.4563 5.33628 31.4506 5.33641C31.4446 5.33653 31.4393 5.33391 31.4333 5.33422L12.7915 6.49809C12.7212 4.86766 11.6679 3.44323 10.1295 2.89848C10.2019 2.5408 10.3544 2.20424 10.5755 1.91399C11.1449 1.30099 11.9671 0.987744 12.8 1.06662C13.0946 1.06662 13.3333 0.82787 13.3333 0.533309C13.3333 0.238749 13.0946 0 12.8001 0C11.4308 0 10.4016 0.42031 9.74119 1.24893C9.41545 1.6698 9.19045 2.15967 9.08326 2.68098C8.98932 2.67436 8.89564 2.66661 8.80001 2.66661C6.82571 2.67005 5.14878 4.11254 4.85041 6.06421C4.32248 5.59397 3.64035 5.33391 2.93336 5.33328C1.62149 5.33691 0.47206 6.21228 0.119687 7.47589C0.0444373 7.56696 0.00224999 7.68077 0 7.79889V25.6702C0.000124999 29.1603 3.11029 31.9998 6.93346 31.9998C6.96527 31.9965 6.99671 31.9901 7.02733 31.9809C7.11927 32.0082 7.21752 32.0061 7.30821 31.9748L31.6281 24.2467C31.6363 24.2442 31.6416 24.2378 31.6496 24.2349C31.6844 24.2203 31.7175 24.2019 31.7483 24.18C31.8669 24.1175 31.9499 24.0037 31.9731 23.8716C31.9844 23.8361 31.9918 23.7995 31.9951 23.7625C31.9955 23.754 32 23.7469 32 23.7384V5.86665C31.9999 5.85072 31.9923 5.83734 31.9909 5.82184ZM6.14703 5.41022C6.63152 4.38416 7.66546 3.73067 8.80014 3.73329C8.85714 3.73329 8.91289 3.7386 8.96907 3.74185C8.96476 4.1371 9.00207 4.53172 9.08032 4.91922C9.13589 5.16128 9.3512 5.33303 9.59957 5.33328C9.63988 5.33341 9.68007 5.32884 9.71938 5.31972C10.0064 5.25384 10.1858 4.96778 10.1199 4.68072C10.1199 4.68072 10.1199 4.68072 10.1199 4.68066C10.0781 4.46041 10.0524 4.23741 10.043 4.01348C11.5046 4.7036 12.1299 6.4479 11.4397 7.90945C10.7496 9.37101 9.00532 9.99632 7.54377 9.30619C6.08221 8.61607 5.45684 6.87177 6.14703 5.41022ZM6.40009 30.9118C3.41417 30.6691 1.06681 28.4108 1.06681 25.6702V11.2624C2.27486 13.0619 4.23941 14.2101 6.40009 14.3796V30.9118ZM6.86059 13.3297C3.79979 13.292 1.22087 10.9114 1.08043 8.04283C1.08712 7.99564 1.09362 7.94783 1.10462 7.89633C1.28087 7.02608 2.04561 6.4004 2.93355 6.39996C3.73629 6.40171 4.44854 6.91502 4.7041 7.67602C4.7571 7.83089 4.87947 7.95214 5.03485 8.00364C5.77028 10.0836 8.05264 11.1736 10.1326 10.4381C11.4193 9.98313 12.3847 8.9027 12.6926 7.57308L27.311 6.6604L15.3014 10.5755C15.2938 10.578 15.2888 10.5841 15.2814 10.5869C15.247 10.6016 15.2144 10.6201 15.184 10.642C15.0653 10.704 14.9825 10.818 14.9602 10.9501C14.9487 10.9861 14.9412 11.0232 14.9379 11.0608C14.9376 11.0686 14.9335 11.0751 14.9335 11.0829V13.8667C14.9335 14.1613 14.6947 14.4 14.4002 14.4C14.1056 14.4 13.8669 14.1613 13.8669 13.8667V11.7812C13.8669 11.4866 13.628 11.2479 13.3335 11.2479C13.039 11.2479 12.8002 11.4867 12.8002 11.7812V25.0665C12.8002 25.3611 12.5615 25.5998 12.2669 25.5998C11.9724 25.5998 11.7336 25.3611 11.7336 25.0665V12.4744C11.7203 12.4201 11.7115 12.3646 11.7073 12.3088C11.7049 12.3014 11.6989 12.2964 11.6962 12.2891C11.6816 12.2553 11.6635 12.2231 11.6421 12.1932C11.615 12.1346 11.5701 12.086 11.5139 12.0544C11.4666 12.0085 11.406 11.9787 11.3408 11.9695C11.302 11.9567 11.2617 11.9486 11.221 11.9453C11.2137 11.945 11.2077 11.9411 11.2003 11.9411C11.1726 11.9444 11.1452 11.9499 11.1183 11.9577C11.0903 11.9587 11.0624 11.9621 11.0349 11.9677L6.86059 13.3297ZM7.46677 22.7317V20.6533L10.6668 19.6091V21.6876L7.46677 22.7317ZM10.6668 22.8091V24.8887L7.46677 25.9315V23.8532L10.6668 22.8091ZM7.46677 19.5318V14.2533L10.6668 13.2092V18.4876L7.46677 19.5318ZM30.9333 23.3482L7.46677 30.8051V27.0538L10.9226 25.9277C11.3967 26.6715 12.3841 26.8903 13.1279 26.4162C13.5889 26.1223 13.8677 25.6132 13.8667 25.0665V24.9684L30.9333 19.4018V23.3482ZM30.9333 18.2792L13.8667 23.8459V21.7684L30.9333 16.2018V18.2792ZM30.9333 15.0792L13.8667 20.6459V18.5685L30.9333 13.0019V15.0792ZM30.9333 11.8792L13.8667 17.446V15.3683C14.0375 15.4315 14.218 15.4648 14.4 15.4666C15.2833 15.4657 15.9991 14.7499 16 13.8666V11.4701L30.9333 6.60165V11.8792H30.9333Z" fill="#C4C4C4"/>
</svg>
