<svg width="32" height="32" viewBox="0 0 32 32" fill="none" xmlns="http://www.w3.org/2000/svg">
    <path class="stroke" d="M16 31.5C7.44094 31.5 0.5 24.5591 0.5 16C0.5 7.44094 7.44094 0.5 16 0.5C24.5591 0.5 31.5 7.44094 31.5 16C31.5 24.5591 24.5591 31.5 16 31.5Z" stroke="#DE7D49" />
    <path class="fill"
        d="M20.1604 30.9405V19.6064H24.3204L24.9444 14.7776H20.1604V11.6928C20.1604 10.2944 20.5476 9.3408 22.554 9.3408H25.1108V5.024C24.6692 4.9664 23.1492 4.83521 21.3828 4.83521C17.6964 4.83521 15.1716 7.08481 15.1716 11.2192V14.7808H11.002V19.6096H15.1716V32L20.1604 30.9405Z"
        fill="#E8437B"
    />
</svg>
