<svg width="18" height="18" viewBox="0 0 18 18" fill="none" xmlns="http://www.w3.org/2000/svg">
    <path
        d="M13.0042 14.6111L14.611 13.0043L17.5137 15.907L15.9069 17.5138L13.0042 14.6111ZM16.7104 1.46978C17.5361 2.29471 18 3.41401 18 4.58118C18 5.74835 17.5361 6.86766 16.7104 7.69258L9.92856 14.4732C9.48489 14.9168 8.76569 14.9168 8.32202 14.4732L6.81773 12.969L2.27306 17.5136L0.666513 15.9071L7.48353 9.09007L6.41553 8.02321L5.51568 8.92419C5.40911 9.03104 5.26439 9.09109 5.11348 9.09109C4.96256 9.09109 4.81785 9.03104 4.71128 8.92419L0.166598 4.37951C-0.0555328 4.15738 -0.0555328 3.79724 0.166598 3.57511C0.388729 3.35298 0.748875 3.35298 0.971006 3.57511L4.54539 7.15063L5.44638 6.24965L1.87085 2.67526C1.64872 2.45313 1.64872 2.09298 1.87085 1.87085C2.09298 1.64872 2.45313 1.64872 2.67526 1.87085L6.24965 5.44638L7.15063 4.54539L3.57511 0.971006C3.35297 0.748875 3.35297 0.388729 3.57511 0.166598C3.79724 -0.0555328 4.15738 -0.0555328 4.37951 0.166598L8.92419 4.71127C9.03104 4.81785 9.09109 4.96256 9.09109 5.11348C9.09109 5.26439 9.03104 5.4091 8.92419 5.51568L8.02321 6.41553L9.09007 7.48353L15.1038 1.46978C15.5475 1.02624 16.2667 1.02624 16.7104 1.46978Z"
        fill="#E8437B"
    />
</svg>
