<svg width="32" height="32" viewBox="0 0 32 32" fill="none" xmlns="http://www.w3.org/2000/svg">
    <path class="stroke" d="M16 31.5C7.44094 31.5 0.5 24.5591 0.5 16C0.5 7.44094 7.44094 0.5 16 0.5C24.5591 0.5 31.5 7.44094 31.5 16C31.5 24.5591 24.5591 31.5 16 31.5Z" stroke="#E8437B" />
    <path class="fill"
        d="M15.999 7.04612C18.9142 7.04612 19.2598 7.05572 20.4118 7.11012C21.4774 7.15812 22.0566 7.33732 22.4406 7.48772C22.9494 7.68612 23.3142 7.92292 23.695 8.30372C24.0758 8.68452 24.3126 9.04932 24.511 9.55812C24.6614 9.94212 24.8374 10.5213 24.8886 11.5869C24.9398 12.7389 24.9526 13.0845 24.9526 15.9997C24.9526 18.9149 24.943 19.2605 24.8886 20.4125C24.8406 21.4781 24.6614 22.0573 24.511 22.4413C24.3126 22.9501 24.0758 23.3149 23.695 23.6957C23.3142 24.0765 22.9494 24.3133 22.4406 24.5117C22.0566 24.6621 21.4774 24.8381 20.4118 24.8893C19.2598 24.9405 18.9142 24.9533 15.999 24.9533C13.0838 24.9533 12.7382 24.9437 11.5862 24.8893C10.5206 24.8413 9.94142 24.6621 9.55742 24.5117C9.04862 24.3133 8.68382 24.0765 8.30302 23.6957C7.92222 23.3149 7.68542 22.9501 7.48702 22.4413C7.33662 22.0573 7.16062 21.4781 7.10942 20.4125C7.05822 19.2605 7.04542 18.9149 7.04542 15.9997C7.04542 13.0845 7.05502 12.7389 7.10942 11.5869C7.15742 10.5213 7.33662 9.94212 7.48702 9.55812C7.68542 9.04932 7.92222 8.68452 8.30302 8.30372C8.68382 7.92292 9.04862 7.68612 9.55742 7.48772C9.94142 7.33732 10.5206 7.16132 11.5862 7.11012C12.7382 7.05572 13.0838 7.04612 15.999 7.04612ZM15.999 5.07812C13.0326 5.07812 12.6614 5.09093 11.4966 5.14533C10.335 5.19973 9.54142 5.38212 8.84382 5.65412C8.12702 5.92932 7.51582 6.30372 6.91102 6.91172C6.30302 7.51972 5.93182 8.12772 5.65022 8.84772C5.38142 9.54212 5.19582 10.3357 5.14142 11.5005C5.08702 12.6653 5.07422 13.0365 5.07422 16.0029C5.07422 18.9693 5.08702 19.3405 5.14142 20.5053C5.19582 21.6669 5.37822 22.4605 5.65022 23.1581C5.92862 23.8717 6.30302 24.4829 6.91102 25.0877C7.51902 25.6957 8.12702 26.0669 8.84702 26.3485C9.54142 26.6173 10.335 26.8029 11.4998 26.8573C12.6646 26.9117 13.0358 26.9245 16.0022 26.9245C18.9686 26.9245 19.3398 26.9117 20.5046 26.8573C21.6662 26.8029 22.4598 26.6205 23.1574 26.3485C23.871 26.0701 24.4822 25.6957 25.087 25.0877C25.695 24.4797 26.0662 23.8717 26.3478 23.1517C26.6166 22.4573 26.8022 21.6637 26.8566 20.4989C26.911 19.3341 26.9238 18.9629 26.9238 15.9965C26.9238 13.0301 26.911 12.6589 26.8566 11.4941C26.8022 10.3325 26.6198 9.53892 26.3478 8.84132C26.0694 8.12772 25.695 7.51652 25.087 6.91172C24.479 6.30372 23.871 5.93253 23.151 5.65093C22.4566 5.38213 21.663 5.19652 20.4982 5.14212C19.3366 5.09092 18.9654 5.07812 15.999 5.07812Z"
        fill="#E8437B"
    />
    <path class="fill"
        d="M15.9983 10.39C12.9007 10.39 10.3887 12.902 10.3887 15.9996C10.3887 19.0972 12.9007 21.6092 15.9983 21.6092C19.0959 21.6092 21.6079 19.0972 21.6079 15.9996C21.6079 12.902 19.0959 10.39 15.9983 10.39ZM15.9983 19.6412C13.9887 19.6412 12.3567 18.0124 12.3567 15.9996C12.3567 13.9868 13.9887 12.358 15.9983 12.358C18.0079 12.358 19.6399 13.9868 19.6399 15.9996C19.6399 18.0124 18.0079 19.6412 15.9983 19.6412Z"
        fill="#E8437B"
    />
    <path class="fill"
        d="M21.8296 11.4813C22.5542 11.4813 23.1416 10.8939 23.1416 10.1693C23.1416 9.4447 22.5542 8.8573 21.8296 8.8573C21.105 8.8573 20.5176 9.4447 20.5176 10.1693C20.5176 10.8939 21.105 11.4813 21.8296 11.4813Z"
        fill="#E8437B"
    />
</svg>
