<svg width="18" height="18" viewBox="0 0 18 18" fill="none" xmlns="http://www.w3.org/2000/svg">
    <path
        d="M15.8906 6.1875C16.434 6.1875 16.875 6.6285 16.875 7.17188V14.0625C16.875 14.6059 16.434 15.0469 15.8906 15.0469H13.9219V18L10.9688 15.0469H6.04688L7.84631 13.0781H13.9219C14.4653 13.0781 14.9062 12.6371 14.9062 12.0938V6.1875H15.8906ZM2.10938 2.25H11.9531C12.4965 2.25 12.9375 2.691 12.9375 3.23438V10.125C12.9375 10.6684 12.4965 11.1094 11.9531 11.1094H7.03125L4.07812 14.0625V11.1094H2.10938C1.566 11.1094 1.125 10.6684 1.125 10.125V3.23438C1.125 2.691 1.566 2.25 2.10938 2.25Z"
        fill="#E8437B"
    />
</svg>
