<svg width="18" height="21" viewBox="0 0 18 21" fill="none" xmlns="http://www.w3.org/2000/svg">
    <path
        d="M9.06321 0C4.01371 0 0 4.01371 0 9.06321C0 11.5232 0.906321 13.8538 2.71896 15.5369C2.84844 15.6664 8.02742 20.3275 8.15689 20.457C8.67479 20.8454 9.45164 20.8454 9.84006 20.457C9.96953 20.3275 15.278 15.6664 15.278 15.5369C17.0906 13.8538 17.997 11.5232 17.997 9.06321C18.1264 4.01371 14.1127 0 9.06321 0ZM9.06321 11.6527C7.63899 11.6527 6.47372 10.4874 6.47372 9.06321C6.47372 7.63899 7.63899 6.47372 9.06321 6.47372C10.4874 6.47372 11.6527 7.63899 11.6527 9.06321C11.6527 10.4874 10.4874 11.6527 9.06321 11.6527Z"
        fill="#E8437B"
    />
</svg>
