<svg width="20" height="24" viewBox="0 0 20 24" fill="none" xmlns="http://www.w3.org/2000/svg">
<path d="M18.0505 3.17088H14.3468V1.6229C14.3468 0.728022 13.6449 0 12.7822 0H7.21758C6.35486 0 5.653 0.728022 5.653 1.6229V3.17088H1.94924C1.36629 3.17088 0.89209 3.66274 0.89209 4.26743V6.2771C0.89209 6.88178 1.36629 7.37365 1.94924 7.37365H2.56324V22.4647C2.56324 23.3113 3.22721 23.9999 4.04325 23.9999H15.9564C16.7725 23.9999 17.4364 23.3113 17.4364 22.4647V7.37374H18.0505C18.6335 7.37374 19.1077 6.88187 19.1077 6.27719V4.26743C19.1077 3.66283 18.6334 3.17088 18.0505 3.17088ZM6.92158 1.6229C6.92158 1.45648 7.05715 1.31586 7.21758 1.31586H12.7822C12.9426 1.31586 13.0782 1.45648 13.0782 1.6229V3.17088H6.92158V1.6229ZM16.1679 22.4648C16.1679 22.5837 16.071 22.6841 15.9564 22.6841H4.04325C3.92865 22.6841 3.83182 22.5837 3.83182 22.4648V7.37374H16.1679V22.4648ZM17.8391 6.05788H2.16067V4.48674H17.8391V6.05788Z" fill="#E8437B"/>
<path d="M6.28712 20.824C6.63742 20.824 6.92142 20.5294 6.92142 20.166V10.1295C6.92142 9.76617 6.63742 9.47159 6.28712 9.47159C5.93674 9.47159 5.65283 9.76617 5.65283 10.1295V20.166C5.65283 20.5294 5.93674 20.824 6.28712 20.824Z" fill="#E8437B"/>
<path d="M9.99953 20.824C10.3499 20.824 10.6338 20.5294 10.6338 20.166V10.1295C10.6338 9.76617 10.3499 9.47159 9.99953 9.47159C9.64914 9.47159 9.36523 9.76617 9.36523 10.1295V20.166C9.36523 20.5294 9.64923 20.824 9.99953 20.824Z" fill="#E8437B"/>
<path d="M13.7124 20.824C14.0628 20.824 14.3467 20.5294 14.3467 20.166V10.1295C14.3467 9.76617 14.0628 9.47159 13.7124 9.47159C13.362 9.47159 13.0781 9.76617 13.0781 10.1295V20.166C13.0781 20.5294 13.362 20.824 13.7124 20.824Z" fill="#E8437B"/>
</svg>
