<svg width="72" height="72" viewBox="0 0 72 72" fill="none" xmlns="http://www.w3.org/2000/svg">
<g clip-path="url(#clip0)">
<path d="M71.97 45.506C71.9298 45.3113 71.848 45.1234 71.7308 44.9624L63.6099 33.799C62.3625 32.0844 60.3519 31.0606 58.2314 31.0606H47.108V27.5239C47.108 26.7472 46.4784 26.1176 45.7017 26.1176H36.0058C35.3022 19.5609 29.7363 14.4377 22.9957 14.4377C16.2551 14.4377 10.6893 19.5609 9.98578 26.1176H1.40625C0.629578 26.1176 0 26.7472 0 27.5239V57.5656C0 58.3423 0.629578 58.9719 1.40625 58.9719H7.70034C7.68797 59.1296 7.67967 59.2885 7.67967 59.4494C7.67967 62.7818 10.3908 65.4929 13.7233 65.4929C17.0558 65.4929 19.7668 62.7818 19.7668 59.4494C19.7668 59.2885 19.7587 59.1296 19.7461 58.9719H26.3109C27.0876 58.9719 27.7172 58.3423 27.7172 57.5656C27.7172 56.7889 27.0876 56.1594 26.3109 56.1594H18.7927C17.6896 54.4609 15.7479 53.4058 13.7233 53.4058C11.6982 53.4058 9.75755 54.4606 8.6535 56.1594H2.8125V28.9301H9.98494C10.6895 35.4809 16.4111 40.6092 22.9957 40.6092C29.582 40.6092 35.3033 35.4793 36.0065 28.9301H44.2955V56.1594H38.6851C37.9084 56.1594 37.2788 56.7889 37.2788 57.5656C37.2788 58.3423 37.9084 58.9719 38.6851 58.9719H50.7355C50.7232 59.1296 50.7149 59.2885 50.7149 59.4494C50.7149 62.7818 53.426 65.4929 56.7585 65.4929C60.091 65.4929 62.802 62.7818 62.802 59.4494C62.802 59.2885 62.7938 59.1296 62.7813 58.9719H70.5938C71.3704 58.9719 72 58.3423 72 57.5656V45.7897C72 45.6938 71.9892 45.5988 71.97 45.506ZM13.7233 62.6804C11.9417 62.6804 10.4922 61.231 10.4922 59.4494C10.4922 57.7768 11.8384 56.3377 13.5072 56.2264C15.3394 56.1034 16.9542 57.6131 16.9542 59.4494C16.9543 61.2309 15.5049 62.6804 13.7233 62.6804ZM22.9957 17.2501C28.6604 17.2501 33.2689 21.8587 33.2689 27.5233C33.2689 33.1146 28.5893 37.7964 22.9964 37.7964C17.4043 37.7964 12.7225 33.114 12.7225 27.5233C12.7226 21.8587 17.3312 17.2501 22.9957 17.2501ZM57.7122 33.8732H58.2313C59.455 33.8732 60.6154 34.464 61.3353 35.4536L67.8317 44.3834H59.857C58.6744 44.3834 57.7122 43.4213 57.7122 42.2386V33.8732ZM56.7585 62.6804C54.9769 62.6804 53.5274 61.231 53.5274 59.4494C53.5274 57.6895 55.0014 56.2184 56.7589 56.2184C58.5155 56.2184 59.9894 57.6912 59.9894 59.4494C59.9895 61.2309 58.5401 62.6804 56.7585 62.6804ZM61.8282 56.1592C60.7254 54.4606 58.7832 53.4056 56.7585 53.4056C54.7339 53.4056 52.7915 54.4607 51.6885 56.1592H47.108V33.873H54.8997V42.2387C54.8997 44.9722 57.1236 47.1961 59.857 47.1961H69.1875V50.3933H67.4207C66.644 50.3933 66.0144 51.0229 66.0144 51.7996C66.0144 52.5762 66.644 53.2058 67.4207 53.2058H69.1875V56.1592H61.8282Z" fill="#E8437B"/>
<path d="M4.77548 19.7393C4.99134 19.8588 5.22478 19.9155 5.45526 19.9155C5.95012 19.9155 6.43021 19.6537 6.68685 19.19C10.0569 13.1018 16.4679 9.31983 23.4179 9.31983C29.1056 9.31983 34.3623 11.7871 37.9666 16.0357L36.9555 15.962C36.1817 15.9047 35.5072 16.4876 35.4507 17.2623C35.3943 18.0369 35.9764 18.7106 36.7511 18.7672L40.7787 19.0606C41.4629 19.111 42.1007 18.6372 42.2526 17.968L43.1965 13.7899C43.3676 13.0323 42.8922 12.2794 42.1346 12.1083C41.3775 11.9374 40.6243 12.4126 40.453 13.1701L40.1927 14.322C38.5244 12.3412 36.5126 10.6566 34.2575 9.37115C30.9707 7.49761 27.2223 6.50732 23.4177 6.50732C15.4451 6.50732 8.09128 10.8452 4.22606 17.8281C3.85003 18.5074 4.09598 19.3631 4.77548 19.7393Z" fill="#E8437B"/>
<path d="M19.2598 32.4672C19.6197 32.4672 19.9797 32.3298 20.2542 32.0553L23.7918 28.5176C24.0554 28.254 24.2036 27.8964 24.2036 27.5233V21.3157C24.2036 20.539 23.5741 19.9094 22.7974 19.9094C22.0207 19.9094 21.3912 20.539 21.3912 21.3157V26.9408L18.2653 30.0666C17.7162 30.6158 17.7162 31.5062 18.2653 32.0553C18.5401 32.33 18.9 32.4672 19.2598 32.4672Z" fill="#E8437B"/>
<path d="M33.2789 56.3964C32.2141 55.6992 30.8002 56.7076 31.1434 57.9411C31.3039 58.5183 31.8283 58.9412 32.4282 58.9697C33.029 58.9983 33.5919 58.6322 33.8088 58.0717C34.043 57.4663 33.8192 56.7564 33.2789 56.3964Z" fill="#E8437B"/>
</g>
<defs>
<clipPath id="clip0">
<rect width="72" height="72" fill="white"/>
</clipPath>
</defs>
</svg>
