<svg width="32" height="32" viewBox="0 0 32 32" fill="none" xmlns="http://www.w3.org/2000/svg">
<path d="M29.8219 21.5227L25.5899 7.8859C25.4832 6.38937 23.3419 5.13977 19.9163 4.57497C19.4917 3.54368 18.3589 2.9972 17.2875 3.3067C17.5063 2.47265 18.0705 1.77151 18.8384 1.37923C19.8839 0.888518 21.1108 0.987099 22.0645 1.63843C22.3037 1.81045 22.637 1.75601 22.8091 1.51683C22.9811 1.27766 22.9266 0.94432 22.6875 0.772301C21.5912 -0.0207354 20.1772 -0.229781 18.8984 0.212108C17.6196 0.653998 16.6363 1.69137 16.2635 2.99204C14.6827 1.71577 12.8869 2.70617 12.4005 4.52377C9.49653 4.96057 6.5408 6.04857 6.4128 7.87844L2.17813 21.5227C0.7568 22.5734 0 23.7942 0 25.0667C0 28.9547 7.02827 32 16 32C24.9717 32 32 28.9547 32 25.0667C32 23.7942 31.2432 22.5734 29.8219 21.5227ZM5.70293 13.7643C6.16051 14.132 6.42827 14.6861 6.432 15.2731C6.45173 16.3995 5.8752 17.5387 5.7168 18.7846C5.63627 19.4011 5.67947 20.7648 6.41813 21.5147C7.13707 22.2438 8.43253 22.208 9.14133 20.9147C9.5792 20.1051 9.6352 19.1355 10.1397 18.5654C10.2956 18.3637 10.5447 18.2568 10.7983 18.2829C11.0519 18.3089 11.274 18.4642 11.3856 18.6934C12.0533 19.8811 10.4976 21.4704 10.6533 23.2182C10.6948 23.9342 11.1009 24.5789 11.7289 24.9254C12.3569 25.2718 13.1188 25.2717 13.7467 24.9248C16.1349 23.7307 14.9392 20.5094 15.7467 20.2027C15.935 20.1442 16.1394 20.169 16.3083 20.271C17.4816 20.911 16.7488 23.1552 18.3104 24.3494C18.8971 24.7752 19.6507 24.8986 20.3425 24.682C21.0344 24.4655 21.5832 23.9345 21.8224 23.2502C22.3141 21.7659 21.1355 20.4411 20.9984 19.3067C20.9135 18.8721 21.0969 18.4289 21.464 18.1814C21.7485 18.1086 22.0507 18.1786 22.2741 18.3691C22.9381 18.8459 23.2875 19.9206 24.3691 20.5376C24.9104 20.8712 25.5953 20.8637 26.1291 20.5182C26.6629 20.1728 26.9503 19.551 26.8677 18.9206C26.8144 17.9547 26.1184 17.1446 26.0555 16.447C26.0213 16.028 26.186 15.6173 26.5003 15.3382C26.5738 15.2797 26.6536 15.2297 26.7381 15.1888L29.3333 23.5398C29.2005 25.5387 23.7627 27.7334 16 27.7334C8.23733 27.7334 2.79947 25.5387 2.66933 23.5398L5.70293 13.7643ZM24.9467 9.41284L26.4181 14.1552C25.4752 14.5582 24.8999 15.5235 24.9941 16.5446C25.0837 17.5312 25.7637 18.2512 25.8032 18.9755C25.8304 19.5254 25.4299 19.9158 24.8997 19.6112C24.0693 19.1387 23.7483 18.1142 22.9045 17.5083C22.3884 17.0952 21.697 16.9745 21.0715 17.1883C20.2437 17.6058 19.7847 18.5142 19.9397 19.4283C20.0997 20.7446 21.1381 21.9232 20.8112 22.9126C20.6808 23.2699 20.3919 23.5465 20.0293 23.6613C19.6667 23.7762 19.2713 23.7163 18.9589 23.4992C17.8112 22.6224 18.5749 20.2902 16.8229 19.3334C16.3785 19.0786 15.8444 19.0321 15.3627 19.2064C13.4821 19.9206 15.144 23.032 13.2709 23.9686C12.881 24.1773 12.4048 24.1369 12.0555 23.8656C11.1445 23.0342 12.2661 21.3163 12.5259 20.1323C13.1125 17.4715 10.6059 16.4139 9.3392 17.8566C8.95998 18.3362 8.69004 18.8928 8.54827 19.4875C8.4064 19.9483 8.14667 20.8544 7.6304 20.9115C7.46422 20.941 7.29432 20.8851 7.17813 20.7627C6.81569 20.2205 6.67148 19.5614 6.7744 18.9174C6.92693 17.727 7.52107 16.6064 7.49867 15.248C7.49466 14.2046 6.93107 13.2436 6.0224 12.7307L7.05333 9.4091C10.0517 12.4683 21.9008 12.5174 24.9467 9.41284ZM14.9771 3.5035C15.4515 3.63384 15.8497 3.95683 16.0752 4.39417C16.1413 4.54294 16.2714 4.65365 16.4288 4.69514C16.5862 4.73662 16.754 4.70438 16.8848 4.6075C17.2951 4.33419 17.8017 4.24648 18.28 4.3659C19.0155 4.55524 19.1867 5.5323 18.9979 6.2699C18.7105 7.22959 18.0332 8.0244 17.1312 8.4603C16.3388 8.52801 15.543 8.54725 14.7483 8.5179C12.2571 6.2971 13.5195 3.1307 14.9771 3.5035ZM12.2779 5.62084C12.2841 6.62038 12.6065 7.59231 13.1989 8.39737C12.9276 8.40611 12.7071 8.61914 12.6891 8.88999C12.671 9.16084 12.8613 9.40125 13.1291 9.4459C15.3578 9.72596 17.6181 9.62205 19.8117 9.1387C20.002 9.10278 20.1579 8.96652 20.219 8.78273C20.28 8.59893 20.2366 8.39649 20.1056 8.25386C19.9746 8.11122 19.7766 8.05081 19.5883 8.09604C19.4459 8.12697 19.3067 8.15204 19.1669 8.17924C19.7674 7.48795 20.1093 6.60973 20.1344 5.69444C23.024 6.23204 24.5333 7.23257 24.5333 8.00004C24.5333 9.11364 21.2869 10.6667 16 10.6667C10.7131 10.6667 7.46667 9.11364 7.46667 8.00004C7.46667 7.20004 9.14773 6.13337 12.2779 5.62084ZM16 30.9334C7.90507 30.9334 1.06667 28.2464 1.06667 25.0667C1.08329 24.5203 1.2722 23.9932 1.6064 23.5606C1.74027 26.9638 9.0832 28.8 16 28.8C22.9168 28.8 30.2597 26.9638 30.3936 23.5606C30.7278 23.9932 30.9167 24.5203 30.9333 25.0667C30.9333 28.2464 24.0949 30.9334 16 30.9334Z" fill="#C4C4C4"/>
</svg>
