<svg width="24" height="24" viewBox="0 0 24 24" fill="none" xmlns="http://www.w3.org/2000/svg">
<path d="M12 23.5C5.64974 23.5 0.5 18.3503 0.5 12C0.5 5.64974 5.64974 0.5 12 0.5C18.3503 0.5 23.5 5.64974 23.5 12C23.5 18.3503 18.3503 23.5 12 23.5Z" stroke="white"/>
<path d="M15.1202 23.2055V14.7049H18.2402L18.7082 11.0833H15.1202V8.76966C15.1202 7.72086 15.4106 7.00566 16.9154 7.00566H18.833V3.76806C18.5018 3.72486 17.3618 3.62646 16.037 3.62646C13.2722 3.62646 11.3786 5.31367 11.3786 8.41446V11.0857H8.25137V14.7073H11.3786V24.0001L15.1202 23.2055Z" fill="white"/>
</svg>
