<svg width="64" height="64" viewBox="0 0 64 64" fill="none" xmlns="http://www.w3.org/2000/svg">
<g clip-path="url(#clip0)">
<path d="M63.5165 41.6877C61.7847 40.3428 59.0418 39.6 55.3642 39.4798C52.8248 39.3967 49.8678 39.6357 47.0939 40.1398C45.9583 37.073 43.8239 34.6448 40.9984 33.2363C37.8195 31.6516 34.13 31.5261 30.6098 32.8828C30.0297 33.1065 29.702 33.7222 29.8409 34.3282C29.8479 34.3587 29.856 34.3885 29.8632 34.4188C27.5088 33.9723 25.0053 34.2106 22.6089 35.1352C22.029 35.359 21.7017 35.9746 21.8404 36.5803C21.8474 36.6108 21.8555 36.6408 21.8627 36.6712C19.5093 36.2252 17.0059 36.4633 14.6088 37.3871C14.0284 37.6107 13.7008 38.2271 13.84 38.8332C13.847 38.8635 13.855 38.8931 13.8622 38.9232C11.5089 38.4771 9.00666 38.7153 6.61141 39.6395C6.03153 39.8632 5.70416 40.4788 5.84291 41.0846C6.28141 43 7.07741 44.7167 8.15203 46.1655C4.68878 47.4248 1.82441 50.0922 0.119409 53.7157C-0.145216 54.2781 0.0435337 54.9495 0.562409 55.2915C3.08716 56.9557 5.89478 57.8081 8.67728 57.808C9.57378 57.808 10.4674 57.7161 11.3484 57.5377C11.1845 59.3371 11.3992 61.2201 12.0234 63.0857C12.1964 63.6027 12.6794 63.9392 13.208 63.9392C13.2829 63.9392 13.3588 63.9325 13.4347 63.9185C15.9622 63.4542 18.2208 62.3497 19.9949 60.7418C20.0049 60.7723 20.0138 60.803 20.024 60.8336C20.197 61.3506 20.68 61.6871 21.2087 61.6871C21.2835 61.6871 21.3594 61.6803 21.4353 61.6663C23.963 61.202 26.2205 60.098 27.9925 58.4912C28.0023 58.5211 28.0109 58.5508 28.0209 58.5807C28.1937 59.0981 28.6769 59.435 29.2058 59.4348C29.2805 59.4348 29.3564 59.4281 29.4323 59.4142C31.9619 58.95 34.2207 57.846 35.9932 56.2388C36.0029 56.2687 36.0115 56.2986 36.0215 56.3285C36.1943 56.8458 36.6775 57.1827 37.2064 57.1826C37.2812 57.1826 37.357 57.1758 37.4329 57.162C41.0438 56.4992 44.0728 54.5597 45.9618 51.7005C47.7143 49.048 48.3427 45.824 47.757 42.5608C53.1338 41.6145 59.4369 41.6843 61.9837 43.662C62.5289 44.0853 63.3143 43.9866 63.7375 43.4413C64.1605 42.8963 64.0618 42.1111 63.5165 41.6877ZM14.8673 41.7811C16.0924 44.3308 18.0424 46.3348 20.4438 47.5457L16.9234 48.5368C13.035 48.1391 9.87103 45.4848 8.58416 41.6156C10.7224 41.0185 12.905 41.0741 14.8673 41.7811ZM11.9042 54.8226C8.97453 55.7263 5.77328 55.353 2.90091 53.7837C4.53666 50.9412 7.07366 48.9511 10.0417 48.196C11.2915 49.2668 12.7472 50.0743 14.3467 50.5606C13.2352 51.8097 12.4134 53.2576 11.9042 54.8226ZM19.363 57.779C18.059 59.4061 16.225 60.5937 14.0862 61.2025C13.1695 57.2295 14.4884 53.3132 17.6008 50.9433L21.1194 49.9527C19.7004 52.2387 19.0802 54.9653 19.363 57.779ZM16.582 39.3636C18.7217 38.7666 20.9044 38.822 22.866 39.5282C24.09 42.0785 26.0402 44.0827 28.4428 45.2936L24.9232 46.2845C21.0362 45.8866 17.8715 43.2326 16.582 39.3636ZM27.3617 55.5257C26.0603 57.1533 24.2269 58.3413 22.0868 58.9503C21.1702 54.977 22.4892 51.0605 25.6022 48.6906L29.1203 47.7001C27.7013 49.9858 27.0803 52.7122 27.3617 55.5257ZM24.5818 37.1112C26.7205 36.5137 28.9035 36.5691 30.8667 37.2761C32.0907 39.8262 34.0405 41.8303 36.443 43.0413L32.9232 44.0323C29.0333 43.6338 25.8685 40.9798 24.5818 37.1112ZM35.3623 53.2735C34.0608 54.9012 32.2263 56.0892 30.0847 56.6982C29.1705 52.7242 30.4908 48.8072 33.6032 46.438L37.121 45.4476C35.7019 47.7333 35.0809 50.4598 35.3623 53.2735ZM32.5824 34.8592C35.1012 34.1556 37.6575 34.3643 39.8832 35.4738C42.0462 36.552 43.7043 38.396 44.6419 40.733L40.9228 41.7801C37.0334 41.3813 33.8692 38.7275 32.5824 34.8592ZM43.8754 50.3227C42.5587 52.3157 40.5289 53.7536 38.0853 54.4466C37.1708 50.472 38.4913 46.5547 41.6045 44.1853L45.3182 43.1398C45.7477 45.7201 45.2454 48.2491 43.8754 50.3227Z" fill="black"/>
<path d="M2.01687 11.7731C4.568 9.79214 10.8703 9.72302 16.2431 10.6719C16.0296 11.859 15.9754 13.0483 16.0849 14.2153C16.1494 14.9026 16.7591 15.407 17.4461 15.3431C18.1335 15.2786 18.6384 14.6691 18.574 13.9819C18.49 13.0855 18.5273 12.1696 18.6807 11.2513L22.3976 12.2978C25.5098 14.6676 26.8285 18.5838 25.9124 22.5565C25.1357 22.3361 24.3984 22.0409 23.7105 21.6744C23.1011 21.3498 22.3441 21.5805 22.0195 22.1899C21.6949 22.7991 21.9258 23.5563 22.535 23.8809C23.7681 24.5378 25.123 25.0061 26.5623 25.2729C26.8766 25.3313 27.2066 25.2649 27.4741 25.09C27.7469 24.9118 27.905 24.6528 28.0045 24.3489C29.7785 25.9568 32.0371 27.0613 34.5648 27.5255C34.8785 27.5833 35.2078 27.5168 35.4748 27.3423C35.7474 27.164 35.9056 26.905 36.005 26.6011C37.7794 28.2095 40.0381 29.314 42.5656 29.7778C42.8794 29.8354 43.2085 29.7689 43.4755 29.5943C43.7481 29.416 43.9062 29.157 44.0057 28.8533C45.7801 30.4616 48.0387 31.5661 50.5662 32.0299C51.1712 32.1409 51.7829 31.7794 51.9776 31.1961C52.6003 29.3303 52.8139 27.4475 52.6497 25.6486C53.5294 25.8268 54.4216 25.9184 55.3176 25.9184C58.0985 25.9183 60.9084 25.0664 63.4371 23.4034C63.9571 23.0614 64.1464 22.389 63.881 21.826C62.173 18.2026 59.3077 15.5354 55.8462 14.2761C56.9225 12.8265 57.7195 11.1085 58.158 9.19202C58.2967 8.58577 57.9688 7.96977 57.3884 7.74652C54.9876 6.82314 52.4845 6.58589 50.1346 7.03289C50.142 7.00177 50.1502 6.97114 50.1574 6.93977C50.2961 6.33352 49.968 5.71752 49.3876 5.49427C46.9871 4.57089 44.484 4.33364 42.1339 4.78064C42.1413 4.74952 42.1495 4.71889 42.1567 4.68752C42.2955 4.08127 41.9674 3.46527 41.387 3.24202C38.9868 2.31877 36.484 2.08152 34.1343 2.52827C34.1413 2.49839 34.1493 2.46902 34.1561 2.43902C34.2949 1.83302 33.9672 1.21727 33.3871 0.993641C29.8684 -0.362359 26.1804 -0.237484 23.0025 1.34527C20.1758 2.75314 18.0397 5.18177 16.9025 8.24977C14.131 7.74489 11.1749 7.50564 8.63437 7.58914C4.95812 7.71014 2.21587 8.45339 0.483499 9.79864C-0.0617507 10.222 -0.160501 11.0073 0.262874 11.5526C0.686249 12.0978 1.47162 12.1966 2.01687 11.7731ZM33.9126 24.809C31.7739 24.2003 29.9399 23.0126 28.6357 21.3855C28.9188 18.572 28.2986 15.8456 26.8797 13.5596L30.3935 14.5489C33.509 16.9181 34.8294 20.8349 33.9126 24.809ZM41.913 27.0614C39.7745 26.4529 37.9406 25.2653 36.6362 23.6376C36.9191 20.8239 36.2986 18.0975 34.879 15.8118L38.3946 16.8015C41.5089 19.1704 42.829 23.087 41.913 27.0614ZM49.9129 29.3134C47.7746 28.7048 45.9406 27.517 44.6365 25.8894C44.9189 23.0759 44.2982 20.3496 42.8792 18.0643L46.396 19.0544C49.5075 21.4215 50.8271 25.3375 49.9129 29.3134ZM61.0979 21.8941C58.2202 23.463 55.0181 23.8363 52.0929 22.9328C51.5834 21.3671 50.7614 19.9191 49.6496 18.6704C51.249 18.1838 52.7045 17.3764 53.9545 16.3063C56.9212 17.0608 59.4592 19.0509 61.0979 21.8941ZM55.4157 9.72402C54.1292 13.592 50.9639 16.2469 47.0728 16.6476L43.5514 15.6563C45.9544 14.4451 47.9047 12.4414 49.1291 9.89252C51.0874 9.18277 53.271 9.12614 55.4157 9.72402ZM47.4152 7.47177C46.1287 11.3395 42.9639 13.9943 39.073 14.3954L35.5511 13.4039C37.9539 12.1928 39.9041 10.1891 41.1285 7.64027C43.0868 6.93052 45.2706 6.87414 47.4152 7.47177ZM39.4146 5.21964C38.1283 9.08702 34.9636 11.7419 31.0732 12.1431L27.5524 11.1519C29.955 9.94077 31.9053 7.93677 33.1294 5.38764C35.0872 4.67839 37.2706 4.62202 39.4146 5.21964ZM24.1166 3.58327C26.3414 2.47527 28.8965 2.26714 31.414 2.97014C30.1275 6.83627 26.9634 9.49027 23.0742 9.89102L19.3539 8.84352C20.2929 6.50564 21.9526 4.66114 24.1166 3.58327Z" fill="black"/>
<path d="M18.588 18.102C17.9705 18.4107 17.7202 19.1616 18.029 19.779L18.0325 19.7861C18.2511 20.2232 18.6902 20.4745 19.1472 20.4745C19.3357 20.4745 19.5274 20.4317 19.7077 20.3416C20.3252 20.0328 20.5737 19.2785 20.265 18.661C19.9562 18.0436 19.2056 17.7932 18.588 18.102Z" fill="black"/>
</g>
<defs>
<clipPath id="clip0">
<rect width="64" height="64" fill="white"/>
</clipPath>
</defs>
</svg>
