<svg width="16" height="16" viewBox="0 0 16 16" fill="none" xmlns="http://www.w3.org/2000/svg">
<path d="M8.00002 4.46656C6.87243 4.46656 5.95508 5.38394 5.95508 6.5115C5.95508 7.63906 6.87243 8.55644 8.00002 8.55644C9.12762 8.55644 10.045 7.63906 10.045 6.5115C10.045 5.38394 9.12759 4.46656 8.00002 4.46656Z" fill="#E8437B"/>
<path d="M12.7851 1.98206C11.507 0.703906 9.8076 0 8.00004 0C6.19247 0 4.49307 0.703906 3.21494 1.98206C1.93676 3.26025 1.23285 4.95962 1.23285 6.76716C1.23285 10.4238 4.69035 13.4652 6.54785 15.0992C6.80594 15.3263 7.02885 15.5223 7.20638 15.6882C7.42891 15.8961 7.71441 16 8.00001 16C8.28557 16 8.57113 15.896 8.79363 15.6882C8.97122 15.5223 9.1941 15.3263 9.45219 15.0992C11.3097 13.4653 14.7672 10.4238 14.7672 6.76719C14.7672 4.95963 14.0633 3.26025 12.7851 1.98206ZM8.00004 9.49366C6.35563 9.49366 5.01785 8.15588 5.01785 6.51147C5.01785 4.86706 6.35563 3.52928 8.00004 3.52928C9.64444 3.52928 10.9822 4.86706 10.9822 6.51147C10.9822 8.15588 9.64441 9.49366 8.00004 9.49366Z" fill="#E8437B"/>
</svg>
