<svg width="188" height="61" viewBox="0 0 188 61" fill="none" xmlns="http://www.w3.org/2000/svg">
<path d="M185.318 61H2.68616C1.97374 61 1.29051 60.7205 0.786757 60.2231C0.283005 59.7257 0 59.051 0 58.3475L0 13.2587C0 9.74228 1.41462 6.36987 3.93265 3.88338C6.45068 1.39689 9.86587 0 13.4269 0L174.573 0C178.134 0 181.549 1.39689 184.067 3.88338C186.585 6.36987 188 9.74228 188 13.2587V58.3475C188.001 58.6956 187.932 59.0405 187.797 59.3623C187.662 59.6841 187.465 59.9765 187.216 60.2229C186.967 60.4692 186.671 60.6647 186.345 60.798C186.019 60.9314 185.67 61 185.318 61ZM5.37232 55.695H182.632V13.2587C182.631 11.1489 181.781 9.12586 180.27 7.63436C178.759 6.14287 176.71 5.30501 174.573 5.30501H13.4269C11.2907 5.30501 9.24198 6.14299 7.73145 7.6346C6.22092 9.1262 5.37232 11.1493 5.37232 13.2587V55.695Z" fill="#C4C4C4"/>
<path d="M181.58 22.6691C176.093 22.8111 170.659 21.5795 165.785 19.089C161.518 17.0474 156.838 15.9868 152.096 15.9868C147.354 15.9868 142.674 17.0474 138.407 19.089C133.535 21.5852 128.099 22.8171 122.612 22.6691C117.126 22.8111 111.692 21.5795 106.817 19.089C102.582 16.9349 97.8658 15.8684 93.1033 15.988C88.3498 15.8713 83.6429 16.9377 79.4163 19.089C74.5404 21.5795 69.1055 22.8111 63.6177 22.6691C58.1224 22.8118 52.6798 21.5803 47.7958 19.089C43.5692 16.9377 38.8623 15.8713 34.1088 15.988C29.3549 15.868 24.6472 16.9346 20.4218 19.089C15.5459 21.5759 10.1132 22.8073 4.62703 22.6691C3.9328 22.643 3.27579 22.3523 2.79397 21.8581C2.31214 21.3639 2.04297 20.7045 2.04297 20.0185C2.04297 19.3325 2.31214 18.6731 2.79397 18.1789C3.27579 17.6846 3.9328 17.394 4.62703 17.3679C9.36943 17.5265 14.0761 16.505 18.314 14.3972C23.203 11.9193 28.6421 10.6886 34.136 10.8171C39.6213 10.6867 45.0521 11.9177 49.9307 14.3972C54.1706 16.5539 58.8926 17.6204 63.6604 17.4982C68.4141 17.6164 73.1213 16.5499 77.3474 14.3972C82.2057 11.8723 87.6294 10.595 93.1188 10.683C98.6242 10.5966 104.064 11.8736 108.941 14.3972C113.167 16.5494 117.874 17.6159 122.628 17.4982C127.381 17.6164 132.089 16.5499 136.315 14.3972C141.197 11.9234 146.627 10.6928 152.113 10.8171C157.599 10.6867 163.03 11.9177 167.908 14.3972C172.146 16.505 176.853 17.5265 181.595 17.3679C182.289 17.394 182.946 17.6846 183.428 18.1789C183.91 18.6731 184.179 19.3325 184.179 20.0185C184.179 20.7045 183.91 21.3639 183.428 21.8581C182.946 22.3523 182.289 22.643 181.595 22.6691H181.58Z" fill="#C4C4C4"/>
<path d="M181.58 38.2199C176.093 38.3587 170.66 37.1259 165.785 34.6359C161.518 32.5944 156.838 31.5338 152.096 31.5338C147.354 31.5338 142.674 32.5944 138.407 34.6359C133.534 37.1316 128.099 38.3647 122.612 38.2199C117.126 38.3587 111.692 37.1259 106.817 34.6359C102.582 32.4818 97.8658 31.4154 93.1033 31.5349C88.3498 31.4183 83.6429 32.4847 79.4163 34.6359C74.54 37.1259 69.1056 38.3587 63.6177 38.2199C58.1221 38.3614 52.6794 37.1286 47.7957 34.6359C43.5692 32.4847 38.8623 31.4183 34.1088 31.5349C29.3549 31.4149 24.6472 32.4815 20.4218 34.6359C15.5455 37.1223 10.1133 38.3549 4.62701 38.2199C3.9146 38.2199 3.23137 37.9404 2.72761 37.443C2.22386 36.9455 1.94086 36.2709 1.94086 35.5674C1.94086 34.8639 2.22386 34.1892 2.72761 33.6918C3.23137 33.1943 3.9146 32.9149 4.62701 32.9149C9.36958 33.0753 14.0767 32.0537 18.314 29.9442C23.203 27.4663 28.6421 26.2355 34.1359 26.3641C39.6213 26.2337 45.0521 27.4646 49.9307 29.9442C54.1706 32.1008 58.8926 33.1673 63.6604 33.0452C68.4143 33.1652 73.1219 32.0986 77.3474 29.9442C82.2064 27.421 87.6296 26.1438 93.1188 26.2299C98.6242 26.1436 104.064 27.4206 108.941 29.9442C113.166 32.0981 117.874 33.1647 122.628 33.0452C127.382 33.1652 132.089 32.0986 136.315 29.9442C141.197 27.4703 146.627 26.2397 152.113 26.3641C157.599 26.2337 163.03 27.4646 167.908 29.9442C172.146 32.0519 176.853 33.0735 181.595 32.9149C182.308 32.9149 182.991 33.1943 183.495 33.6918C183.998 34.1892 184.281 34.8639 184.281 35.5674C184.281 36.2709 183.998 36.9455 183.495 37.443C182.991 37.9404 182.308 38.2199 181.595 38.2199H181.58Z" fill="#C4C4C4"/>
<path d="M180.722 53.767C175.236 53.9052 169.803 52.6738 164.927 50.1869C160.66 48.1437 155.98 47.0822 151.238 47.0822C146.496 47.0822 141.816 48.1437 137.549 50.1869C132.675 52.6796 127.241 53.9113 121.754 53.767C116.272 53.9032 110.844 52.6719 105.971 50.1869C101.737 48.0299 97.0201 46.962 92.2571 47.0821C87.5019 46.9659 82.7936 48.0336 78.5662 50.1869C73.6903 52.6738 68.2576 53.9052 62.7715 53.767C57.2764 53.9072 51.8344 52.6758 46.9495 50.1869C42.7233 48.0343 38.0164 46.9665 33.2625 47.0821C28.5082 46.9616 23.8001 48.0296 19.5756 50.1869C14.697 52.6703 9.26392 53.9015 3.77692 53.767C3.0645 53.767 2.38127 53.4875 1.87752 52.9901C1.37376 52.4927 1.09076 51.818 1.09076 51.1145C1.09076 50.411 1.37376 49.7363 1.87752 49.2389C2.38127 48.7414 3.0645 48.462 3.77692 48.462C8.52091 48.6244 13.2297 47.6027 17.4678 45.4913C22.3568 43.0134 27.7959 41.7827 33.2897 41.9112C38.775 41.7813 44.2057 43.0122 49.0845 45.4913C53.3198 47.6454 58.0361 48.7119 62.7986 48.5923C67.5472 48.7092 72.2491 47.6427 76.4701 45.4913C81.3306 42.9688 86.7552 41.6929 92.2454 41.7809C97.7506 41.696 103.19 42.9729 108.067 45.4952C112.293 47.6495 117 48.7161 121.754 48.5961C126.508 48.7156 131.216 47.6491 135.441 45.4952C140.322 43.0214 145.751 41.7908 151.236 41.915C156.723 41.7846 162.155 43.0156 167.035 45.4952C171.273 47.6032 175.979 48.6248 180.722 48.4658C181.434 48.4658 182.117 48.7453 182.621 49.2427C183.125 49.7402 183.408 50.4148 183.408 51.1183C183.408 51.8218 183.125 52.4965 182.621 52.9939C182.117 53.4914 181.434 53.7708 180.722 53.7708V53.767Z" fill="#C4C4C4"/>
</svg>
