<svg width="72" height="72" viewBox="0 0 72 72" fill="none" xmlns="http://www.w3.org/2000/svg">
<path d="M66.2161 30.0715C66.2161 28.3665 65.4605 26.8355 64.2679 25.7925C65.4605 24.7496 66.2161 23.2186 66.2161 21.5135C66.2161 18.3787 63.6656 15.8282 60.5307 15.8282H59.3098C58.6343 15.8282 57.9919 15.9722 57.4104 16.2294V5.38327C57.4106 2.41495 54.9956 0 52.0273 0H28.3473C25.379 0 22.964 2.41495 22.964 5.38327V16.6504C21.5395 15.0688 19.6395 13.9586 17.4127 13.5193C15.5923 13.1624 13.8544 14.6101 13.8544 16.4587V33.7102C13.8544 35.8845 13.4675 38.0052 12.7043 40.013C11.5 43.1824 10.0711 47.9793 9.98689 53.0547L6.0605 58.3484C5.88092 58.5907 5.78375 58.8845 5.78375 59.1861V70.5938C5.78375 71.3704 6.41347 72 7.19 72H29.264C29.6789 72 30.0725 71.8169 30.3397 71.4995L35.1616 65.7733C37.4584 65.5093 45.6539 64.2538 50.1654 59.4475H52.0273C54.9956 59.4475 57.4106 57.0326 57.4106 54.0643V52.4714C57.992 52.7286 58.6343 52.8726 59.31 52.8726H60.5309C63.6657 52.8726 66.2162 50.3222 66.2162 47.1873C66.2162 45.4822 65.4606 43.9512 64.268 42.9083C65.4606 41.8655 66.2162 40.3343 66.2162 38.6293C66.2162 36.9242 65.4606 35.3932 64.268 34.3503C65.4605 33.3076 66.2161 31.7766 66.2161 30.0715ZM59.31 18.6408H60.5309C62.115 18.6408 63.4037 19.9295 63.4037 21.5137C63.4037 23.0977 62.115 24.3863 60.5309 24.3863H59.31C58.2627 24.3863 57.4106 23.5342 57.4106 22.4869V20.5404C57.4106 19.4929 58.2627 18.6408 59.31 18.6408ZM42.8349 2.8125V3.12342C42.8349 4.57622 41.653 5.75817 40.2002 5.75817C38.7474 5.75817 37.5656 4.57622 37.5656 3.12342V2.8125H42.8349ZM54.5981 54.0644C54.5981 55.4819 53.4448 56.6352 52.0273 56.6352H28.3473C26.9298 56.6352 25.7765 55.4819 25.7765 54.0644V46.6639C25.7765 45.8872 25.1468 45.2576 24.3703 45.2576C23.5938 45.2576 22.964 45.8872 22.964 46.6639V54.0644V54.0647C22.964 57.033 25.379 59.4478 28.3472 59.4478H45.7556C41.0421 62.4563 34.4227 63.0232 34.3429 63.0297C33.9677 63.0592 33.6199 63.2378 33.3775 63.5258L28.6097 69.1875H8.59639V59.6509L12.5188 54.3625C12.6984 54.1202 12.7956 53.8265 12.7956 53.5248C12.7956 48.7032 14.1757 44.0591 15.3336 41.0123C16.2184 38.6841 16.667 36.2274 16.667 33.7103V16.4587C16.667 16.3536 16.7625 16.2581 16.8701 16.2789C20.5151 16.9979 22.964 20.257 22.964 24.3886V34.2896C22.964 35.0662 23.5938 35.6958 24.3703 35.6958C25.1468 35.6958 25.7765 35.0662 25.7765 34.2896V24.3886V5.38327C25.7765 3.96577 26.9298 2.8125 28.3473 2.8125H34.7529V3.12342C34.7529 6.12703 37.1966 8.57067 40.2 8.57067C43.2036 8.57067 45.6473 6.12703 45.6473 3.12342V2.8125H52.0272C53.4447 2.8125 54.5979 3.96577 54.5979 5.38327V54.0644H54.5981ZM63.4036 47.1876C63.4036 48.7717 62.1149 50.0604 60.5307 50.0604H59.3098C58.2626 50.0604 57.4104 49.2082 57.4104 48.161V46.2144C57.4104 45.1671 58.2626 44.315 59.3098 44.315H60.5307C62.1149 44.3147 63.4036 45.6036 63.4036 47.1876ZM63.4036 38.6295C63.4036 40.2135 62.1149 41.5022 60.5307 41.5022H59.3098C58.2626 41.5022 57.4104 40.65 57.4104 39.6028V37.6563C57.4104 36.6089 58.2626 35.7569 59.3098 35.7569H60.5307C62.1149 35.7569 63.4036 37.0455 63.4036 38.6295ZM59.31 32.9444C58.2627 32.9444 57.4106 32.0922 57.4106 31.0449V29.0984C57.4106 28.051 58.2627 27.199 59.31 27.199H60.5309C62.115 27.199 63.4037 28.4877 63.4037 30.0718C63.4037 31.6558 62.115 32.9445 60.5309 32.9445H59.31V32.9444Z" fill="#E8437B"/>
<path d="M43.5384 40.2959H36.8209C34.1396 40.2959 31.9583 42.4773 31.9583 45.1586C31.9583 47.8399 34.1396 50.0212 36.8209 50.0212H43.5384C46.2197 50.0212 48.4011 47.8399 48.4011 45.1586C48.4011 42.4773 46.2199 40.2959 43.5384 40.2959ZM43.5384 47.2086H36.8209C35.6904 47.2086 34.7708 46.2889 34.7708 45.1584C34.7708 44.0279 35.6904 43.1083 36.8209 43.1083H43.5384C44.6689 43.1083 45.5886 44.0279 45.5886 45.1584C45.5886 46.2889 44.6689 47.2086 43.5384 47.2086Z" fill="#E8437B"/>
<path d="M49.8791 19.3223C49.8033 18.607 49.1999 18.0644 48.4807 18.0644H44.7934V17.025C44.7934 14.4922 42.7328 12.4316 40.2 12.4316C37.6672 12.4316 35.6067 14.4922 35.6067 17.025V18.0644H31.8786C31.1595 18.0644 30.5561 18.607 30.4803 19.3223L29.074 32.5814C29.032 32.9779 29.1602 33.3737 29.427 33.6702C29.6936 33.9667 30.0737 34.136 30.4725 34.136H49.8871C50.2859 34.136 50.6659 33.9667 50.9326 33.6702C51.1993 33.3738 51.3276 32.9779 51.2856 32.5814L49.8791 19.3223ZM38.4193 17.025C38.4193 16.043 39.2181 15.2441 40.2 15.2441C41.182 15.2441 41.9809 16.043 41.9809 17.025V18.0644H38.4193V17.025ZM32.0357 31.3233L33.1437 20.8767H35.6069V22.275C35.6069 23.0516 36.2366 23.6812 37.0131 23.6812C37.7897 23.6812 38.4194 23.0516 38.4194 22.275V20.8767H41.981V22.275C41.981 23.0516 42.6107 23.6812 43.3873 23.6812C44.1638 23.6812 44.7935 23.0516 44.7935 22.275V20.8767H47.2159L48.3239 31.3233H32.0357Z" fill="#E8437B"/>
<path d="M25.6823 39.8558C25.3919 39.1472 24.5517 38.8019 23.8456 39.095C23.138 39.3888 22.7915 40.2229 23.085 40.9316C23.3779 41.6388 24.2142 41.986 24.9216 41.6923C25.6276 41.3991 25.9769 40.563 25.6823 39.8558Z" fill="#E8437B"/>
</svg>
