<svg width="72" height="72" viewBox="0 0 72 72" fill="none" xmlns="http://www.w3.org/2000/svg">
<g clip-path="url(#clip0)">
<mask id="path-1-outside-1" maskUnits="userSpaceOnUse" x="11" y="-1" width="50" height="74" fill="black">
<rect fill="white" x="11" y="-1" width="50" height="74"/>
<path d="M15.315 52.8H32.925L37.2 59.145C37.395 66.3 43.245 72 50.4 72H58.8C59.46 72 60 71.46 60 70.8V42C60 41.01 59.76 40.05 59.295 39.18L50.4 22.5V3.315C50.4 1.485 48.915 0 47.085 0H15.315C13.485 0 12 1.485 12 3.315V49.485C12 51.315 13.485 52.8 15.315 52.8ZM57.6 42V69.6H50.4C44.52 69.6 39.735 64.905 39.6 59.025C39.66 58.71 39.6 58.395 39.42 58.125L31.635 46.605C30.525 44.955 30.975 42.72 32.64 41.61C34.275 40.515 36.495 40.95 37.605 42.57C37.605 42.585 37.62 42.585 37.62 42.6L44.625 52.29C44.85 52.605 45.21 52.785 45.6 52.785H49.2C49.86 52.785 50.4 52.245 50.4 51.585V27.6L57.18 40.305C57.45 40.83 57.6 41.415 57.6 42ZM14.4 3.315C14.4 2.805 14.805 2.4 15.315 2.4H47.085C47.595 2.4 48 2.805 48 3.315V50.4H46.215L44.475 48C45.105 47.955 45.6 47.43 45.6 46.8V39.6C45.6 38.94 45.06 38.4 44.4 38.4C43.74 38.4 43.2 38.94 43.2 39.6V46.23L39.57 41.22C37.71 38.49 33.99 37.77 31.245 39.63C31.23 39.645 31.2 39.66 31.185 39.675C31.185 39.66 31.185 39.63 31.185 39.615V34.815C31.185 34.155 30.645 33.615 29.985 33.615C29.325 33.615 28.785 34.155 28.785 34.815V39.615C28.785 40.26 29.31 40.8 29.955 40.815C28.29 42.87 28.155 45.765 29.625 47.97L31.275 50.415H15.315C14.805 50.415 14.4 50.01 14.4 49.5V3.315Z"/>
<path d="M34.875 15.75H39.375C39.9937 15.75 40.5 15.2437 40.5 14.625V7.875C40.5 7.25625 39.9937 6.75 39.375 6.75H34.875C34.2563 6.75 33.75 7.25625 33.75 7.875V14.625C33.75 15.2437 34.2563 15.75 34.875 15.75ZM36 9H38.25V13.5H36V9Z"/>
<path d="M19.125 11.25C19.7438 11.25 20.25 10.7437 20.25 10.125V7.875C20.25 7.25625 19.7438 6.75 19.125 6.75C18.5062 6.75 18 7.25625 18 7.875V10.125C18 10.7437 18.5062 11.25 19.125 11.25Z"/>
<path d="M19.125 27C19.7438 27 20.25 26.4937 20.25 25.875V14.625C20.25 14.0063 19.7438 13.5 19.125 13.5C18.5062 13.5 18 14.0063 18 14.625V25.875C18 26.4937 18.5062 27 19.125 27Z"/>
<path d="M30.375 13.5C30.9937 13.5 31.5 12.9937 31.5 12.375V7.875C31.5 7.25625 30.9937 6.75 30.375 6.75C29.7563 6.75 29.25 7.25625 29.25 7.875V12.375C29.25 12.9937 29.7563 13.5 30.375 13.5Z"/>
<path d="M30.375 22.5C30.9937 22.5 31.5 21.9937 31.5 21.375V16.875C31.5 16.2563 30.9937 15.75 30.375 15.75C29.7563 15.75 29.25 16.2563 29.25 16.875V21.375C29.25 21.9937 29.7563 22.5 30.375 22.5Z"/>
<path d="M30.375 31.5C30.9937 31.5 31.5 30.9937 31.5 30.375V25.875C31.5 25.2563 30.9937 24.75 30.375 24.75C29.7563 24.75 29.25 25.2563 29.25 25.875V30.375C29.25 30.9937 29.7563 31.5 30.375 31.5Z"/>
<path d="M43.875 15.75C44.4938 15.75 45 15.2437 45 14.625V7.875C45 7.25625 44.4938 6.75 43.875 6.75C43.2563 6.75 42.75 7.25625 42.75 7.875V14.625C42.75 15.2437 43.2563 15.75 43.875 15.75Z"/>
<path d="M21.375 47.25C19.5188 47.25 18 45.7313 18 43.875V39.375C18 37.5187 19.5188 36 21.375 36C23.2312 36 24.75 37.5187 24.75 39.375V43.875C24.75 45.7313 23.2312 47.25 21.375 47.25ZM21.375 38.25C20.7563 38.25 20.25 38.7562 20.25 39.375V43.875C20.25 44.4938 20.7563 45 21.375 45C21.9937 45 22.5 44.4938 22.5 43.875V39.375C22.5 38.7562 21.9937 38.25 21.375 38.25Z"/>
</mask>
<path d="M15.315 52.8H32.925L37.2 59.145C37.395 66.3 43.245 72 50.4 72H58.8C59.46 72 60 71.46 60 70.8V42C60 41.01 59.76 40.05 59.295 39.18L50.4 22.5V3.315C50.4 1.485 48.915 0 47.085 0H15.315C13.485 0 12 1.485 12 3.315V49.485C12 51.315 13.485 52.8 15.315 52.8ZM57.6 42V69.6H50.4C44.52 69.6 39.735 64.905 39.6 59.025C39.66 58.71 39.6 58.395 39.42 58.125L31.635 46.605C30.525 44.955 30.975 42.72 32.64 41.61C34.275 40.515 36.495 40.95 37.605 42.57C37.605 42.585 37.62 42.585 37.62 42.6L44.625 52.29C44.85 52.605 45.21 52.785 45.6 52.785H49.2C49.86 52.785 50.4 52.245 50.4 51.585V27.6L57.18 40.305C57.45 40.83 57.6 41.415 57.6 42ZM14.4 3.315C14.4 2.805 14.805 2.4 15.315 2.4H47.085C47.595 2.4 48 2.805 48 3.315V50.4H46.215L44.475 48C45.105 47.955 45.6 47.43 45.6 46.8V39.6C45.6 38.94 45.06 38.4 44.4 38.4C43.74 38.4 43.2 38.94 43.2 39.6V46.23L39.57 41.22C37.71 38.49 33.99 37.77 31.245 39.63C31.23 39.645 31.2 39.66 31.185 39.675C31.185 39.66 31.185 39.63 31.185 39.615V34.815C31.185 34.155 30.645 33.615 29.985 33.615C29.325 33.615 28.785 34.155 28.785 34.815V39.615C28.785 40.26 29.31 40.8 29.955 40.815C28.29 42.87 28.155 45.765 29.625 47.97L31.275 50.415H15.315C14.805 50.415 14.4 50.01 14.4 49.5V3.315Z" fill="#E8437B"/>
<path d="M34.875 15.75H39.375C39.9937 15.75 40.5 15.2437 40.5 14.625V7.875C40.5 7.25625 39.9937 6.75 39.375 6.75H34.875C34.2563 6.75 33.75 7.25625 33.75 7.875V14.625C33.75 15.2437 34.2563 15.75 34.875 15.75ZM36 9H38.25V13.5H36V9Z" fill="#E8437B"/>
<path d="M19.125 11.25C19.7438 11.25 20.25 10.7437 20.25 10.125V7.875C20.25 7.25625 19.7438 6.75 19.125 6.75C18.5062 6.75 18 7.25625 18 7.875V10.125C18 10.7437 18.5062 11.25 19.125 11.25Z" fill="#E8437B"/>
<path d="M19.125 27C19.7438 27 20.25 26.4937 20.25 25.875V14.625C20.25 14.0063 19.7438 13.5 19.125 13.5C18.5062 13.5 18 14.0063 18 14.625V25.875C18 26.4937 18.5062 27 19.125 27Z" fill="#E8437B"/>
<path d="M30.375 13.5C30.9937 13.5 31.5 12.9937 31.5 12.375V7.875C31.5 7.25625 30.9937 6.75 30.375 6.75C29.7563 6.75 29.25 7.25625 29.25 7.875V12.375C29.25 12.9937 29.7563 13.5 30.375 13.5Z" fill="#E8437B"/>
<path d="M30.375 22.5C30.9937 22.5 31.5 21.9937 31.5 21.375V16.875C31.5 16.2563 30.9937 15.75 30.375 15.75C29.7563 15.75 29.25 16.2563 29.25 16.875V21.375C29.25 21.9937 29.7563 22.5 30.375 22.5Z" fill="#E8437B"/>
<path d="M30.375 31.5C30.9937 31.5 31.5 30.9937 31.5 30.375V25.875C31.5 25.2563 30.9937 24.75 30.375 24.75C29.7563 24.75 29.25 25.2563 29.25 25.875V30.375C29.25 30.9937 29.7563 31.5 30.375 31.5Z" fill="#E8437B"/>
<path d="M43.875 15.75C44.4938 15.75 45 15.2437 45 14.625V7.875C45 7.25625 44.4938 6.75 43.875 6.75C43.2563 6.75 42.75 7.25625 42.75 7.875V14.625C42.75 15.2437 43.2563 15.75 43.875 15.75Z" fill="#E8437B"/>
<path d="M21.375 47.25C19.5188 47.25 18 45.7313 18 43.875V39.375C18 37.5187 19.5188 36 21.375 36C23.2312 36 24.75 37.5187 24.75 39.375V43.875C24.75 45.7313 23.2312 47.25 21.375 47.25ZM21.375 38.25C20.7563 38.25 20.25 38.7562 20.25 39.375V43.875C20.25 44.4938 20.7563 45 21.375 45C21.9937 45 22.5 44.4938 22.5 43.875V39.375C22.5 38.7562 21.9937 38.25 21.375 38.25Z" fill="#E8437B"/>
<path d="M15.315 52.8H32.925L37.2 59.145C37.395 66.3 43.245 72 50.4 72H58.8C59.46 72 60 71.46 60 70.8V42C60 41.01 59.76 40.05 59.295 39.18L50.4 22.5V3.315C50.4 1.485 48.915 0 47.085 0H15.315C13.485 0 12 1.485 12 3.315V49.485C12 51.315 13.485 52.8 15.315 52.8ZM57.6 42V69.6H50.4C44.52 69.6 39.735 64.905 39.6 59.025C39.66 58.71 39.6 58.395 39.42 58.125L31.635 46.605C30.525 44.955 30.975 42.72 32.64 41.61C34.275 40.515 36.495 40.95 37.605 42.57C37.605 42.585 37.62 42.585 37.62 42.6L44.625 52.29C44.85 52.605 45.21 52.785 45.6 52.785H49.2C49.86 52.785 50.4 52.245 50.4 51.585V27.6L57.18 40.305C57.45 40.83 57.6 41.415 57.6 42ZM14.4 3.315C14.4 2.805 14.805 2.4 15.315 2.4H47.085C47.595 2.4 48 2.805 48 3.315V50.4H46.215L44.475 48C45.105 47.955 45.6 47.43 45.6 46.8V39.6C45.6 38.94 45.06 38.4 44.4 38.4C43.74 38.4 43.2 38.94 43.2 39.6V46.23L39.57 41.22C37.71 38.49 33.99 37.77 31.245 39.63C31.23 39.645 31.2 39.66 31.185 39.675C31.185 39.66 31.185 39.63 31.185 39.615V34.815C31.185 34.155 30.645 33.615 29.985 33.615C29.325 33.615 28.785 34.155 28.785 34.815V39.615C28.785 40.26 29.31 40.8 29.955 40.815C28.29 42.87 28.155 45.765 29.625 47.97L31.275 50.415H15.315C14.805 50.415 14.4 50.01 14.4 49.5V3.315Z" stroke="#E8437B" stroke-width="0.6" mask="url(#path-1-outside-1)"/>
<path d="M34.875 15.75H39.375C39.9937 15.75 40.5 15.2437 40.5 14.625V7.875C40.5 7.25625 39.9937 6.75 39.375 6.75H34.875C34.2563 6.75 33.75 7.25625 33.75 7.875V14.625C33.75 15.2437 34.2563 15.75 34.875 15.75ZM36 9H38.25V13.5H36V9Z" stroke="#E8437B" stroke-width="0.6" mask="url(#path-1-outside-1)"/>
<path d="M19.125 11.25C19.7438 11.25 20.25 10.7437 20.25 10.125V7.875C20.25 7.25625 19.7438 6.75 19.125 6.75C18.5062 6.75 18 7.25625 18 7.875V10.125C18 10.7437 18.5062 11.25 19.125 11.25Z" stroke="#E8437B" stroke-width="0.6" mask="url(#path-1-outside-1)"/>
<path d="M19.125 27C19.7438 27 20.25 26.4937 20.25 25.875V14.625C20.25 14.0063 19.7438 13.5 19.125 13.5C18.5062 13.5 18 14.0063 18 14.625V25.875C18 26.4937 18.5062 27 19.125 27Z" stroke="#E8437B" stroke-width="0.6" mask="url(#path-1-outside-1)"/>
<path d="M30.375 13.5C30.9937 13.5 31.5 12.9937 31.5 12.375V7.875C31.5 7.25625 30.9937 6.75 30.375 6.75C29.7563 6.75 29.25 7.25625 29.25 7.875V12.375C29.25 12.9937 29.7563 13.5 30.375 13.5Z" stroke="#E8437B" stroke-width="0.6" mask="url(#path-1-outside-1)"/>
<path d="M30.375 22.5C30.9937 22.5 31.5 21.9937 31.5 21.375V16.875C31.5 16.2563 30.9937 15.75 30.375 15.75C29.7563 15.75 29.25 16.2563 29.25 16.875V21.375C29.25 21.9937 29.7563 22.5 30.375 22.5Z" stroke="#E8437B" stroke-width="0.6" mask="url(#path-1-outside-1)"/>
<path d="M30.375 31.5C30.9937 31.5 31.5 30.9937 31.5 30.375V25.875C31.5 25.2563 30.9937 24.75 30.375 24.75C29.7563 24.75 29.25 25.2563 29.25 25.875V30.375C29.25 30.9937 29.7563 31.5 30.375 31.5Z" stroke="#E8437B" stroke-width="0.6" mask="url(#path-1-outside-1)"/>
<path d="M43.875 15.75C44.4938 15.75 45 15.2437 45 14.625V7.875C45 7.25625 44.4938 6.75 43.875 6.75C43.2563 6.75 42.75 7.25625 42.75 7.875V14.625C42.75 15.2437 43.2563 15.75 43.875 15.75Z" stroke="#E8437B" stroke-width="0.6" mask="url(#path-1-outside-1)"/>
<path d="M21.375 47.25C19.5188 47.25 18 45.7313 18 43.875V39.375C18 37.5187 19.5188 36 21.375 36C23.2312 36 24.75 37.5187 24.75 39.375V43.875C24.75 45.7313 23.2312 47.25 21.375 47.25ZM21.375 38.25C20.7563 38.25 20.25 38.7562 20.25 39.375V43.875C20.25 44.4938 20.7563 45 21.375 45C21.9937 45 22.5 44.4938 22.5 43.875V39.375C22.5 38.7562 21.9937 38.25 21.375 38.25Z" stroke="#E8437B" stroke-width="0.6" mask="url(#path-1-outside-1)"/>
</g>
<defs>
<clipPath id="clip0">
<rect width="72" height="72" fill="white"/>
</clipPath>
</defs>
</svg>
