<svg width="64" height="64" viewBox="0 0 64 64" fill="none" xmlns="http://www.w3.org/2000/svg">
<path d="M62.7333 51.4408H58.0502L56.1371 38.1689C57.4213 37.4037 58.3334 35.8178 57.9564 33.4545C57.9496 33.4091 57.9398 33.3647 57.9276 33.3202L55.2299 23.4335C54.3568 20.2304 51.0717 16.4902 44.6864 16.4902H38.3334C38.475 15.9321 38.5478 15.3569 38.5478 14.7758C38.5478 11.3291 36.0322 8.46091 32.7402 7.90378C32.6327 6.42332 32.7597 5.61472 33.8285 4.5283C34.3193 4.03026 34.3124 3.2285 33.8139 2.73827C33.3149 2.24803 32.5131 2.25487 32.0224 2.7534C30.2929 4.51121 30.0981 6.15183 30.206 7.93943C27.0107 8.57614 24.5947 11.3989 24.5947 14.7758C24.5947 15.3569 24.6679 15.9321 24.809 16.4902H17.1894C9.64842 16.4902 7.87743 20.8383 7.20213 24.1083L5.48339 32.4067C5.46727 32.4848 5.45849 32.5649 5.45751 32.6445L5.44677 33.3534C5.41503 35.0229 6.07665 36.2143 7.00633 36.9491L4.42138 51.4408H1.2666C0.566893 51.4408 0 52.0077 0 52.7069C0 57.5555 4.17821 61.4999 9.31395 61.4999H54.6859C59.8217 61.4999 63.9999 57.5555 63.9999 52.7069C63.9999 52.0077 63.433 51.4408 62.7333 51.4408ZM42.6557 51.4408L41.9858 38.6005C43.9174 38.1806 45.6732 36.7074 45.6732 34.349V30.3329C45.6732 29.311 46.1723 28.7763 46.6357 28.7114C47.2162 28.6288 47.995 29.2148 48.4198 30.7045L49.6181 34.9115C50.2831 37.2431 51.9901 38.4545 53.6498 38.6674L55.4916 51.4408H42.6557ZM27.1279 14.7758C27.1279 12.3291 29.1205 10.3379 31.5702 10.3364H31.5712H31.5737C34.0224 10.3369 36.0146 12.3281 36.0146 14.7758C36.0146 15.3671 35.8969 15.9492 35.6708 16.4902H27.4716C27.2456 15.9492 27.1279 15.3671 27.1279 14.7758ZM7.98827 32.8027L9.6826 24.6215C10.2422 21.9121 11.3301 19.0219 17.1894 19.0219H44.6864C49.6435 19.0219 52.1474 21.7573 52.7855 24.0996L55.4647 33.9164C55.642 35.1337 55.2743 35.9628 54.4745 36.1396C53.621 36.3285 52.4823 35.7192 52.0541 34.2177L50.8559 30.0112C49.956 26.8559 47.831 25.9872 46.2851 26.204C44.4335 26.4628 43.1401 28.1606 43.1401 30.3329V34.3495C43.1401 35.7699 41.6728 36.1767 40.8974 36.1933C40.8539 36.1943 40.8017 36.1943 40.7431 36.1923C40.7279 36.1913 40.7123 36.1903 40.6967 36.1903C40.0829 36.1606 38.8407 35.9145 38.7763 34.4096L38.5976 30.2729C38.5673 26.4516 35.4418 24.3959 32.5449 24.103C29.204 23.7651 26.4423 25.5727 25.8305 28.4994C25.8271 28.517 25.8237 28.5346 25.8207 28.5522L25.1713 32.4907C24.9941 33.5683 24.3662 34.1405 23.8706 34.4311C23.207 34.8193 22.3754 34.9242 21.7504 34.6972C20.8901 34.3862 20.458 33.2812 20.6748 31.9487L21.0947 29.3671C21.3369 27.8793 20.7768 26.4301 19.5962 25.4902C18.3628 24.5087 16.6548 24.2455 15.2451 24.8207C14.3442 25.1879 12.7812 26.2202 12.4345 29.0073L11.9287 33.0673C11.7334 34.6401 10.5517 35.3881 9.48484 35.3105C9.34031 35.3002 9.13621 35.2685 8.92528 35.1801C8.90526 35.1713 8.88621 35.1615 8.86571 35.1537C8.41795 34.9447 7.95946 34.4692 7.97948 33.3964L7.98827 32.8027ZM9.4199 37.8412C11.5952 37.936 14.0634 36.4301 14.4419 33.3798L14.9482 29.3198C15.0464 28.5302 15.3432 27.5146 16.2011 27.165C16.7675 26.934 17.498 27.0571 18.018 27.4711C18.3486 27.7343 18.7172 28.206 18.5942 28.9609L18.1743 31.5424C17.7871 33.9242 18.6943 36.0072 20.4511 36.8896L18.5761 51.4413H6.99462L9.4199 37.8412ZM54.6859 58.9681H9.31395C6.04442 58.9681 3.3081 56.8207 2.67236 53.9725H5.47802C5.47997 53.9725 5.48192 53.973 5.48388 53.973C5.48583 53.973 5.48729 53.9725 5.48925 53.9725H19.6899C19.6904 53.9725 19.6909 53.973 19.6914 53.973C19.6923 53.973 19.6933 53.9725 19.6943 53.9725H26.3779C27.0771 53.9725 27.6445 53.4061 27.6445 52.7069C27.6445 52.0077 27.0771 51.4408 26.3779 51.4408H21.1298L22.9487 37.3271C23.7065 37.2563 24.4643 37.0175 25.1508 36.6156C26.5131 35.8178 27.4081 34.4985 27.6704 32.9018L28.3154 28.9931C28.7221 27.1191 30.6015 26.4511 32.29 26.622C34.162 26.8115 36.0551 28.0248 36.0649 30.3095C36.0649 30.3261 36.0654 30.3422 36.0658 30.3588L36.2455 34.5185C36.3324 36.5439 37.5864 38.0556 39.4462 38.5512L40.1191 51.4408H36.3915C35.6918 51.4408 35.1249 52.0077 35.1249 52.7069C35.1249 53.4057 35.6918 53.9725 36.3915 53.9725H41.3749C41.4008 53.974 41.4267 53.9764 41.4526 53.9764C41.475 53.9764 41.4975 53.976 41.5199 53.9745C41.5263 53.974 41.5326 53.973 41.539 53.9725H56.9462H56.9515H56.955H61.3275C60.6918 56.8207 57.9555 58.9681 54.6859 58.9681Z" fill="black"/>
<path d="M31.3578 51.4409H31.3359C30.6367 51.4409 30.0693 52.0078 30.0693 52.707C30.0693 53.4062 30.6367 53.9727 31.3359 53.9727H31.3578C32.0571 53.9727 32.6245 53.4062 32.6245 52.707C32.6245 52.0078 32.0576 51.4409 31.3578 51.4409Z" fill="black"/>
</svg>
