<svg width="24" height="24" viewBox="0 0 24 24" fill="none" xmlns="http://www.w3.org/2000/svg">
<path d="M12.4714 1.41668C12.1492 1.15634 11.677 1.20646 11.4167 1.52863C11.1563 1.85081 11.2064 2.32303 11.5286 2.58337L12.1286 3.06821H12C6.60813 3.06821 2.25 7.48126 2.25 12.9091C2.25 18.3369 6.60813 22.75 12 22.75C17.3919 22.75 21.75 18.3369 21.75 12.9091C21.75 9.47627 20.0076 6.4519 17.3659 4.6914C17.0212 4.46169 16.5556 4.55489 16.3259 4.89957C16.0962 5.24425 16.1894 5.70989 16.5341 5.9396C18.7724 7.43134 20.25 9.99463 20.25 12.9091C20.25 17.5228 16.5493 21.25 12 21.25C7.45074 21.25 3.75 17.5228 3.75 12.9091C3.75 8.29543 7.45074 4.56821 12 4.56821H12.1286L11.5286 5.05304C11.2064 5.31338 11.1563 5.78561 11.4167 6.10778C11.677 6.42995 12.1492 6.48007 12.4714 6.21973L14.7214 4.40155C14.8976 4.25916 15 4.04475 15 3.81821C15 3.59166 14.8976 3.37725 14.7214 3.23486L12.4714 1.41668Z" fill="white"/>
</svg>
