<svg width="188" height="157" viewBox="0 0 188 157" fill="none" xmlns="http://www.w3.org/2000/svg">
<path d="M148.282 53.2205H39.7179C38.6077 53.2205 37.7071 52.0282 37.7071 50.5591V13.3032C37.7071 5.9574 42.2099 0 47.7453 0H140.243C145.794 0 150.293 5.9574 150.293 13.3032V50.5591C150.293 52.0282 149.392 53.2205 148.282 53.2205ZM41.7286 47.8977H146.271V13.3032C146.271 8.89572 143.574 5.32282 140.243 5.32282H47.7453C44.4148 5.32282 41.7131 8.89572 41.7131 13.3032L41.7286 47.8977Z" fill="#C4C4C4"/>
<path d="M146.698 33.2869C143.245 33.3547 139.859 32.3383 137.025 30.3832C131.909 27.1564 125.993 27.1564 120.873 30.3832C114.728 34.2522 107.629 34.2522 101.484 30.3832C99.0925 28.8031 96.2824 27.96 93.408 27.96C90.5336 27.96 87.7236 28.8031 85.3321 30.3832C82.4592 32.2744 79.0867 33.2832 75.6375 33.2832C72.1882 33.2832 68.8158 32.2744 65.9429 30.3832C63.5871 28.7282 60.7517 27.8777 57.865 27.9602C54.9712 27.8785 52.1286 28.7287 49.7638 30.3832C46.919 32.3403 43.5221 33.3554 40.0595 33.283C38.9687 33.283 38.0837 32.0908 38.0837 30.6216C38.0837 29.1524 38.9687 27.9602 40.0595 27.9602C42.9509 28.0469 45.7922 27.1976 48.1529 25.5411C51.0247 23.623 54.4143 22.6091 57.8776 22.6325C61.3409 22.6558 64.7163 23.7152 67.5615 25.6718C69.9147 27.3291 72.7497 28.1798 75.6355 28.0948C78.5225 28.1793 81.3585 27.3286 83.7134 25.6718C86.5884 23.7765 89.9645 22.7654 93.4177 22.7654C96.8709 22.7654 100.247 23.7765 103.122 25.6718C105.514 27.2519 108.324 28.095 111.198 28.095C114.072 28.095 116.882 27.2519 119.274 25.6718C125.411 21.8066 132.507 21.8066 138.644 25.6718C141 27.3253 143.835 28.1756 146.722 28.0948C147.812 28.0948 148.694 29.2871 148.694 30.7562C148.694 32.2254 147.812 33.4176 146.722 33.4176L146.698 33.2869Z" fill="#C4C4C4"/>
<path d="M185.318 157H2.68616C1.97374 157 1.29051 156.72 0.786757 156.221C0.283005 155.721 0 155.045 0 154.339L0 109.102C-1.48743e-07 105.574 1.41449 102.19 3.93241 99.6943C6.45034 97.1989 9.86551 95.7964 13.4269 95.7954H174.573C176.337 95.7954 178.083 96.1396 179.712 96.8084C181.342 97.4772 182.822 98.4575 184.069 99.6932C185.316 100.929 186.305 102.396 186.979 104.01C187.654 105.625 188.001 107.355 188 109.102V154.339C188.001 154.688 187.932 155.034 187.797 155.357C187.662 155.68 187.465 155.973 187.216 156.22C186.967 156.468 186.671 156.664 186.345 156.797C186.019 156.931 185.67 157 185.318 157ZM5.37232 151.677H182.632V109.102C182.632 106.985 181.783 104.954 180.271 103.457C178.76 101.959 176.71 101.118 174.573 101.118H13.4269C12.3688 101.118 11.3211 101.325 10.3437 101.726C9.36617 102.127 8.47807 102.716 7.73008 103.457C6.98209 104.198 6.38887 105.079 5.98432 106.047C5.57977 107.016 5.37181 108.054 5.37232 109.102V151.677Z" fill="#C4C4C4"/>
<path d="M167.404 101.118H22.3704C22.0179 101.118 21.6687 101.049 21.3431 100.916C21.0174 100.782 20.7215 100.586 20.4724 100.338C20.2233 100.091 20.0258 99.7978 19.8912 99.475C19.7566 99.1521 19.6876 98.8061 19.6881 98.4568V61.2047C19.6876 59.4574 20.0346 57.7271 20.7091 56.1127C21.3836 54.4982 22.3726 53.0312 23.6194 51.7955C24.8663 50.5598 26.3466 49.5795 27.9759 48.9107C29.6052 48.2419 31.3515 47.8977 33.1151 47.8977H156.659C160.221 47.8977 163.637 49.2997 166.156 51.7952C168.675 54.2908 170.09 57.6755 170.09 61.2047V98.4568C170.09 99.1626 169.807 99.8396 169.303 100.339C168.799 100.838 168.116 101.118 167.404 101.118ZM25.0566 95.7954H164.717V61.2047C164.717 59.0872 163.868 57.0564 162.357 55.559C160.846 54.0617 158.796 53.2205 156.659 53.2205H33.1151C30.9778 53.2205 28.9281 54.0617 27.4169 55.559C25.9056 57.0564 25.0566 59.0872 25.0566 61.2047V95.7954Z" fill="#C4C4C4"/>
<path d="M166.231 88.4111C161.717 88.5097 157.246 87.5142 153.208 85.5113C149.81 83.9177 146.098 83.0911 142.339 83.0911C138.58 83.0911 134.868 83.9177 131.47 85.5113C127.391 87.4221 122.936 88.4132 118.424 88.4132C113.912 88.4132 109.456 87.4221 105.377 85.5113C102.016 83.8143 98.2791 82.9811 94.5085 83.0883C90.7378 82.9801 87.0002 83.8133 83.6397 85.5113C79.592 87.5104 75.1148 88.5055 70.5932 88.4111C66.0703 88.5052 61.5919 87.5101 57.5428 85.5113C54.1823 83.8133 50.4446 82.9801 46.6739 83.0883C42.895 82.9846 39.1497 83.8175 35.7779 85.5113C31.7324 87.5164 27.2537 88.5119 22.7314 88.4111C22.019 88.4111 21.3358 88.1307 20.832 87.6316C20.3283 87.1325 20.0453 86.4556 20.0453 85.7497C20.0453 85.0439 20.3283 84.3669 20.832 83.8678C21.3358 83.3687 22.019 83.0883 22.7314 83.0883C26.5107 83.1998 30.2576 82.3679 33.6274 80.6692C37.6737 78.6662 42.1518 77.6708 46.6739 77.7694C51.2078 77.7158 55.6867 78.7559 59.7243 80.8C63.0842 82.4997 66.8223 83.333 70.5932 83.2229C74.3641 83.3333 78.1022 82.5 81.462 80.8C85.5117 78.8027 89.9897 77.8077 94.5124 77.9001C99.034 77.8067 103.511 78.8017 107.559 80.8C110.919 82.4997 114.657 83.333 118.428 83.2229C122.199 83.333 125.937 82.4997 129.297 80.8C133.372 78.8912 137.824 77.9011 142.331 77.9011C146.839 77.9011 151.291 78.8912 155.366 80.8C158.727 82.4962 162.465 83.3293 166.235 83.2229C166.948 83.2229 167.631 83.5033 168.135 84.0024C168.638 84.5016 168.921 85.1785 168.921 85.8843C168.921 86.5902 168.638 87.2671 168.135 87.7662C167.631 88.2654 166.948 88.5458 166.235 88.5458L166.231 88.4111Z" fill="#C4C4C4"/>
<path d="M166.231 70.3811C161.717 70.4776 157.247 69.4822 153.208 67.4812C149.81 65.8876 146.098 65.061 142.339 65.061C138.58 65.061 134.868 65.8876 131.47 67.4812C127.391 69.392 122.936 70.3831 118.424 70.3831C113.912 70.3831 109.456 69.392 105.377 67.4812C102.017 65.7818 98.2794 64.9485 94.5085 65.0582C90.7376 64.9482 86.9996 65.7815 83.6397 67.4812C79.5913 69.4784 75.1146 70.4735 70.5932 70.3811C66.0704 70.4739 61.5923 69.4789 57.5428 67.4812C54.1829 65.7815 50.4448 64.9482 46.6739 65.0582C42.8948 64.9527 39.1491 65.7857 35.7779 67.4812C31.7318 69.4846 27.2535 70.4799 22.7314 70.3811C22.019 70.3811 21.3358 70.1007 20.832 69.6015C20.3283 69.1024 20.0453 68.4255 20.0453 67.7196C20.0453 67.0138 20.3283 66.3369 20.832 65.8378C21.3358 65.3386 22.019 65.0582 22.7314 65.0582C26.511 65.1684 30.2579 64.3352 33.6274 62.6353C37.675 60.6359 42.1522 59.6407 46.6739 59.7354C51.2081 59.683 55.687 60.7245 59.7243 62.7699C63.0848 64.4679 66.8225 65.3011 70.5932 65.1928C74.3639 65.3012 78.1015 64.468 81.462 62.7699C85.5112 60.771 89.9895 59.7759 94.5124 59.87C99.0341 59.7753 103.511 60.7705 107.559 62.7699C110.919 64.4679 114.657 65.3011 118.428 65.1928C122.198 65.3011 125.936 64.4679 129.297 62.7699C133.371 60.8592 137.823 59.8682 142.331 59.8682C146.84 59.8682 151.291 60.8592 155.366 62.7699C158.728 64.4643 162.465 65.2973 166.235 65.1928C166.929 65.219 167.586 65.5107 168.068 66.0065C168.55 66.5024 168.819 67.164 168.819 67.8523C168.819 68.5407 168.55 69.2022 168.068 69.6981C167.586 70.194 166.929 70.4857 166.235 70.5118L166.231 70.3811Z" fill="#C4C4C4"/>
<path d="M181.58 118.544C176.093 118.683 170.661 117.447 165.785 114.952C161.518 112.902 156.838 111.837 152.096 111.837C147.354 111.837 142.674 112.902 138.407 114.952C133.533 117.453 128.099 118.689 122.612 118.544C117.126 118.683 111.693 117.447 106.817 114.952C102.583 112.788 97.8663 111.716 93.1033 111.837C88.3493 111.72 83.6421 112.791 79.4163 114.952C74.5392 117.448 69.1051 118.684 63.6177 118.544C58.1227 118.685 52.6807 117.449 47.7958 114.952C43.57 112.791 38.8628 111.72 34.1088 111.837C29.3544 111.716 24.6463 112.788 20.4218 114.952C15.5446 117.444 10.1128 118.679 4.62702 118.544C3.91461 118.544 3.23137 118.264 2.72762 117.765C2.22387 117.266 1.94086 116.589 1.94086 115.883C1.94086 115.177 2.22387 114.5 2.72762 114.001C3.23137 113.502 3.91461 113.221 4.62702 113.221C9.36977 113.384 14.0774 112.359 18.314 110.241C23.203 107.755 28.6421 106.52 34.1359 106.649C39.6213 106.518 45.0521 107.753 49.9307 110.241C54.17 112.406 58.8925 113.476 63.6604 113.352C68.4143 113.473 73.1219 112.402 77.3474 110.241C82.2035 107.718 87.621 106.443 93.1033 106.533C98.6087 106.447 104.048 107.728 108.925 110.26C113.151 112.421 117.858 113.491 122.612 113.371C127.366 113.492 132.074 112.422 136.299 110.26C141.181 107.778 146.612 106.543 152.098 106.668C157.583 106.537 163.014 107.772 167.893 110.26C172.131 112.375 176.837 113.4 181.58 113.241C182.292 113.241 182.975 113.521 183.479 114.02C183.983 114.519 184.266 115.196 184.266 115.902C184.266 116.608 183.983 117.285 183.479 117.784C182.975 118.283 182.292 118.563 181.58 118.563V118.544Z" fill="#C4C4C4"/>
<path d="M181.58 134.143C176.093 134.282 170.661 133.047 165.785 130.551C161.518 128.501 156.838 127.436 152.096 127.436C147.354 127.436 142.674 128.501 138.407 130.551C133.534 133.054 128.099 134.29 122.612 134.143C117.126 134.282 111.693 133.047 106.817 130.551C102.583 128.387 97.8663 127.316 93.1033 127.436C88.3493 127.319 83.6421 128.39 79.4163 130.551C74.5392 133.047 69.1051 134.283 63.6177 134.143C58.1227 134.284 52.6807 133.049 47.7958 130.551C43.57 128.39 38.8628 127.319 34.1088 127.436C29.3544 127.315 24.6463 128.387 20.4218 130.551C15.5452 133.045 10.113 134.28 4.62702 134.143C3.91461 134.143 3.23137 133.863 2.72762 133.364C2.22387 132.865 1.94086 132.188 1.94086 131.482C1.94086 130.776 2.22387 130.099 2.72762 129.6C3.23137 129.101 3.91461 128.821 4.62702 128.821C9.36977 128.984 14.0774 127.958 18.314 125.84C23.203 123.354 28.6421 122.119 34.1359 122.248C39.6213 122.117 45.0521 123.352 49.9307 125.84C54.17 128.005 58.8925 129.076 63.6604 128.951C68.4143 129.072 73.1219 128.002 77.3474 125.84C82.2064 123.308 87.6296 122.027 93.1188 122.113C98.6242 122.027 104.064 123.308 108.941 125.84C113.166 128.001 117.874 129.071 122.628 128.951C127.382 129.072 132.089 128.002 136.315 125.84C141.197 123.358 146.627 122.123 152.113 122.248C157.599 122.117 163.03 123.352 167.908 125.84C172.14 127.959 176.841 128.99 181.58 128.84C182.292 128.84 182.975 129.12 183.479 129.619C183.983 130.118 184.266 130.795 184.266 131.501C184.266 132.207 183.983 132.884 183.479 133.383C182.975 133.882 182.292 134.163 181.58 134.163V134.143Z" fill="#C4C4C4"/>
<path d="M180.722 149.743C175.235 149.88 169.803 148.643 164.927 146.147C160.66 144.097 155.98 143.032 151.238 143.032C146.496 143.032 141.816 144.097 137.549 146.147C132.676 148.65 127.241 149.886 121.754 149.739C116.272 149.876 110.844 148.64 105.971 146.147C101.737 143.983 97.0201 142.911 92.2571 143.032C87.5019 142.915 82.7936 143.986 78.5662 146.147C73.6903 148.642 68.2576 149.878 62.7715 149.739C57.2725 149.882 51.8263 148.646 46.9379 146.147C42.7117 143.987 38.0048 142.916 33.2509 143.032C28.4965 142.911 23.7884 143.982 19.5639 146.147C14.686 148.64 9.25247 149.876 3.76528 149.739C3.05287 149.739 2.36963 149.459 1.86588 148.959C1.36213 148.46 1.07912 147.783 1.07912 147.078C1.07912 146.372 1.36213 145.695 1.86588 145.196C2.36963 144.697 3.05287 144.416 3.76528 144.416C8.51285 144.582 13.2259 143.558 17.4678 141.439C22.3568 138.953 27.7959 137.718 33.2897 137.847C38.775 137.717 44.2057 138.952 49.0845 141.439C53.3184 143.604 58.0357 144.675 62.7986 144.551C67.5473 144.668 72.2491 143.598 76.4701 141.439C81.3291 138.908 86.7523 137.626 92.2416 137.713C97.7468 137.627 103.186 138.909 108.064 141.439C112.289 143.601 116.997 144.671 121.75 144.551C126.504 144.671 131.212 143.6 135.437 141.439C140.318 138.957 145.748 137.723 151.232 137.847C156.719 137.716 162.151 138.951 167.031 141.439C171.269 143.554 175.975 144.579 180.718 144.42C181.43 144.42 182.114 144.7 182.617 145.199C183.121 145.699 183.404 146.376 183.404 147.081C183.404 147.787 183.121 148.464 182.617 148.963C182.114 149.462 181.43 149.743 180.718 149.743H180.722Z" fill="#C4C4C4"/>
</svg>
