<svg width="188" height="110" viewBox="0 0 188 110" fill="none" xmlns="http://www.w3.org/2000/svg">
<path d="M185.318 110H2.68616C1.97374 110 1.29051 109.717 0.786757 109.214C0.283005 108.711 0 108.028 0 107.317L0 61.7083C-1.48743e-07 58.1507 1.41449 54.7387 3.93241 52.2227C6.45034 49.7068 9.86551 48.2928 13.4269 48.2917H174.573C176.337 48.2917 178.083 48.6388 179.712 49.3131C181.342 49.9874 182.822 50.9757 184.069 52.2216C185.316 53.4675 186.305 54.9465 186.979 56.5743C187.654 58.202 188.001 59.9466 188 61.7083V107.317C188.001 107.669 187.932 108.018 187.797 108.343C187.662 108.669 187.465 108.965 187.216 109.214C186.967 109.463 186.671 109.661 186.345 109.796C186.019 109.931 185.67 110 185.318 110ZM5.37232 104.633H182.632V61.7083C182.632 59.5733 181.783 57.5258 180.271 56.0161C178.76 54.5065 176.71 53.6584 174.573 53.6584H13.4269C12.3688 53.6584 11.3211 53.8666 10.3437 54.2712C9.36617 54.6758 8.47807 55.2688 7.73008 56.0164C6.98209 56.7639 6.38887 57.6514 5.98432 58.628C5.57977 59.6046 5.37181 60.6513 5.37232 61.7083V104.633Z" fill="#C4C4C4"/>
<path d="M167.404 53.6584H22.3704C22.0179 53.6584 21.6687 53.5889 21.3431 53.454C21.0174 53.3191 20.7215 53.1214 20.4724 52.8722C20.2233 52.623 20.0258 52.3271 19.8912 52.0016C19.7566 51.6761 19.6876 51.3272 19.6881 50.975V13.4126C19.6881 9.85539 21.1028 6.44383 23.6208 3.92847C26.1388 1.41311 29.554 0 33.1151 0L156.659 0C160.22 -1.48585e-07 163.636 1.41299 166.155 3.92824C168.673 6.44349 170.089 9.85504 170.09 13.4126V50.975C170.09 51.6867 169.807 52.3692 169.303 52.8724C168.799 53.3756 168.116 53.6584 167.404 53.6584ZM25.0566 48.2917H164.717V13.4126C164.716 11.2784 163.867 9.23182 162.356 7.72301C160.845 6.21419 158.795 5.36661 156.659 5.36661H33.1151C30.9785 5.36661 28.9294 6.21419 27.4182 7.72301C25.9071 9.23182 25.0576 11.2784 25.0566 13.4126V48.2917Z" fill="#C4C4C4"/>
<path d="M166.231 40.8467C161.717 40.946 157.246 39.9424 153.208 37.923C149.81 36.3163 146.098 35.4829 142.339 35.4829C138.58 35.4829 134.868 36.3163 131.47 37.923C127.391 39.8495 122.936 40.8487 118.424 40.8487C113.912 40.8487 109.456 39.8495 105.377 37.923C102.016 36.212 98.2791 35.372 94.5085 35.4801C90.7378 35.371 87.0002 36.211 83.6397 37.923C79.592 39.9385 75.1148 40.9419 70.5932 40.8467C66.0703 40.9416 61.5919 39.9383 57.5428 37.923C54.1823 36.211 50.4446 35.371 46.6739 35.4801C42.8948 35.3737 39.1491 36.2135 35.7779 37.923C31.7318 39.9428 27.2535 40.9464 22.7314 40.8467C22.019 40.8467 21.3358 40.564 20.832 40.0608C20.3283 39.5576 20.0453 38.8751 20.0453 38.1634C20.0453 37.4517 20.3283 36.7692 20.832 36.266C21.3358 35.7628 22.019 35.4801 22.7314 35.4801C26.5107 35.5925 30.2576 34.7538 33.6274 33.0411C37.674 31.0221 42.1517 30.0173 46.6739 30.1135C51.2079 30.0628 55.6863 31.1127 59.7243 33.1729C63.0842 34.8866 66.8223 35.7268 70.5932 35.6158C74.3641 35.7271 78.1022 34.8869 81.462 33.1729C85.5102 31.1585 89.9868 30.154 94.5085 30.2453C99.0301 30.1511 103.507 31.1544 107.555 33.169C110.915 34.8827 114.653 35.7229 118.424 35.6119C122.195 35.7229 125.933 34.8827 129.293 33.169C133.368 31.2445 137.82 30.2463 142.328 30.2463C146.835 30.2463 151.287 31.2445 155.362 33.169C158.724 34.8792 162.461 35.7192 166.231 35.6119C166.944 35.6119 167.627 35.8946 168.131 36.3979C168.634 36.9011 168.917 37.5836 168.917 38.2952C168.917 39.0069 168.634 39.6894 168.131 40.1926C167.627 40.6958 166.944 40.9785 166.231 40.9785V40.8467Z" fill="#C4C4C4"/>
<path d="M166.231 22.6647C161.717 22.762 157.247 21.7585 153.208 19.741C149.811 18.1325 146.099 17.298 142.339 17.298C138.58 17.298 134.867 18.1325 131.47 19.741C127.391 21.6675 122.936 22.6668 118.424 22.6668C113.912 22.6668 109.456 21.6675 105.377 19.741C102.017 18.0277 98.2794 17.1875 94.5085 17.2981C90.7376 17.1872 86.9996 18.0273 83.6397 19.741C79.5913 21.7547 75.1146 22.7579 70.5932 22.6647C66.0704 22.7584 61.5923 21.7551 57.5428 19.741C54.1829 18.0273 50.4448 17.1872 46.6739 17.2981C42.8948 17.1918 39.1491 18.0315 35.7779 19.741C31.7318 21.7609 27.2535 22.7644 22.7314 22.6647C22.019 22.6647 21.3358 22.382 20.832 21.8788C20.3283 21.3756 20.0453 20.6931 20.0453 19.9814C20.0453 19.2698 20.3283 18.5873 20.832 18.0841C21.3358 17.5808 22.019 17.2981 22.7314 17.2981C26.511 17.4092 30.2579 16.5691 33.6274 14.8552C37.675 12.8394 42.1522 11.836 46.6739 11.9315C51.2081 11.8787 55.687 12.9287 59.7243 14.991C63.0848 16.7029 66.8225 17.543 70.5932 17.4338C74.3639 17.5431 78.1015 16.7031 81.462 14.991C85.5112 12.9757 89.9895 11.9724 94.5124 12.0672C99.0341 11.9718 103.511 12.9751 107.559 14.991C110.919 16.7029 114.657 17.543 118.428 17.4338C122.198 17.543 125.936 16.7029 129.297 14.991C133.371 13.0646 137.823 12.0654 142.331 12.0654C146.84 12.0654 151.291 13.0646 155.366 14.991C158.728 16.6993 162.465 17.5391 166.235 17.4338C166.929 17.4602 167.586 17.7543 168.068 18.2542C168.55 18.7542 168.819 19.4212 168.819 20.1152C168.819 20.8092 168.55 21.4762 168.068 21.9762C167.586 22.4762 166.929 22.7702 166.235 22.7966L166.231 22.6647Z" fill="#C4C4C4"/>
<path d="M181.58 71.2278C176.093 71.3682 170.66 70.1211 165.785 67.6022C161.518 65.537 156.838 64.4641 152.096 64.4641C147.354 64.4641 142.674 65.537 138.407 67.6022C133.534 70.1268 128.099 71.3743 122.612 71.2278C117.126 71.3682 111.692 70.1211 106.817 67.6022C102.582 65.4231 97.8658 64.3443 93.1033 64.4652C88.3498 64.3472 83.6429 65.426 79.4163 67.6022C74.54 70.1211 69.1056 71.3682 63.6177 71.2278C58.1221 71.371 52.6794 70.1238 47.7957 67.6022C43.5692 65.426 38.8623 64.3472 34.1088 64.4652C29.3549 64.3438 24.6472 65.4228 20.4218 67.6022C15.5455 70.1174 10.1133 71.3644 4.62701 71.2278C3.9146 71.2278 3.23137 70.9451 2.72761 70.4419C2.22386 69.9386 1.94086 69.2561 1.94086 68.5445C1.94086 67.8328 2.22386 67.1503 2.72761 66.6471C3.23137 66.1439 3.9146 65.8612 4.62701 65.8612C9.36958 66.0235 14.0767 64.99 18.314 62.856C23.203 60.3493 28.6421 59.1043 34.1359 59.2343C39.6213 59.1024 45.0521 60.3477 49.9307 62.856C54.1706 65.0377 58.8926 66.1166 63.6604 65.993C68.4143 66.1144 73.1219 65.0354 77.3474 62.856C82.2064 60.3035 87.6296 59.0115 93.1188 59.0986C98.6242 59.0113 104.064 60.3031 108.941 62.856C113.166 65.035 117.874 66.1139 122.628 65.993C127.382 66.1144 132.089 65.0354 136.315 62.856C141.197 60.3534 146.627 59.1085 152.113 59.2343C157.599 59.1024 163.03 60.3477 167.908 62.856C172.146 64.9882 176.853 66.0216 181.595 65.8612C182.308 65.8612 182.991 66.1439 183.495 66.6471C183.998 67.1503 184.281 67.8328 184.281 68.5445C184.281 69.2561 183.998 69.9386 183.495 70.4419C182.991 70.9451 182.308 71.2278 181.595 71.2278H181.58Z" fill="#C4C4C4"/>
<path d="M181.58 86.9555C176.093 87.0953 170.661 85.8496 165.785 83.3338C161.518 81.2669 156.838 80.1931 152.096 80.1931C147.354 80.1931 142.674 81.2669 138.407 83.3338C133.533 85.8555 128.099 87.1015 122.612 86.9555C117.126 87.0953 111.693 85.8496 106.817 83.3338C102.583 81.1518 97.8663 80.0715 93.1033 80.193C88.3493 80.0748 83.6421 81.155 79.4163 83.3338C74.5392 85.8502 69.1051 87.096 63.6177 86.9555C58.1227 87.0974 52.6807 85.8517 47.7957 83.3338C43.57 81.155 38.8628 80.0748 34.1088 80.193C29.3544 80.0711 24.6463 81.1515 20.4218 83.3338C15.5446 85.8461 10.1128 87.0916 4.62701 86.9555C3.9146 86.9555 3.23137 86.6728 2.72761 86.1696C2.22386 85.6664 1.94086 84.9839 1.94086 84.2722C1.94086 83.5606 2.22386 82.878 2.72761 82.3748C3.23137 81.8716 3.9146 81.5889 4.62701 81.5889C9.36976 81.7532 14.0774 80.7196 18.314 78.5838C23.203 76.0771 28.6421 74.832 34.1359 74.9621C39.6213 74.8301 45.0521 76.0754 49.9307 78.5838C54.17 80.767 58.8925 81.846 63.6604 81.7207C68.4143 81.8421 73.1219 80.7632 77.3474 78.5838C82.2028 76.0378 87.6203 74.7498 93.1033 74.838C98.6087 74.7506 104.048 76.0424 108.925 78.5954C113.151 80.7743 117.858 81.8533 122.612 81.7324C127.366 81.8538 132.074 80.7748 136.299 78.5954C141.181 76.0928 146.612 74.8479 152.098 74.9737C157.583 74.8418 163.014 76.087 167.893 78.5954C172.131 80.7276 176.837 81.761 181.58 81.6005C182.292 81.6005 182.975 81.8832 183.479 82.3865C183.983 82.8897 184.266 83.5722 184.266 84.2838C184.266 84.9955 183.983 85.678 183.479 86.1812C182.975 86.6844 182.292 86.9672 181.58 86.9672V86.9555Z" fill="#C4C4C4"/>
<path d="M180.722 102.683C175.236 102.823 169.803 101.577 164.927 99.0614C160.66 96.9945 155.98 95.9207 151.238 95.9207C146.496 95.9207 141.816 96.9945 137.549 99.0614C132.676 101.585 127.241 102.831 121.754 102.683C116.272 102.821 110.844 101.575 105.971 99.0614C101.737 96.8794 97.0201 95.7991 92.2571 95.9205C87.5019 95.803 82.7936 96.8832 78.5662 99.0614C73.6903 101.577 68.2576 102.823 62.7715 102.683C57.2765 102.825 51.8345 101.579 46.9495 99.0614C42.7233 96.8838 38.0164 95.8037 33.2626 95.9205C28.5082 95.7987 23.8001 96.8791 19.5756 99.0614C14.6976 101.575 9.26412 102.821 3.77694 102.683C3.09649 102.64 2.45799 102.34 1.99091 101.843C1.52383 101.347 1.26311 100.692 1.26163 100.011C1.26015 99.33 1.51801 98.6738 1.98293 98.1756C2.44785 97.6774 3.08504 97.3744 3.76529 97.3281C8.51419 97.4908 13.2273 96.4531 17.4678 94.3113C22.3568 91.8046 27.7959 90.5596 33.2897 90.6897C38.775 90.5582 44.2057 91.8035 49.0845 94.3113C53.3192 96.492 58.036 97.571 62.7987 97.4483C67.5473 97.5666 72.2491 96.4877 76.4701 94.3113C81.3291 91.7588 86.7523 90.4668 92.2416 90.5539C97.7468 90.4681 103.186 91.7598 108.064 94.3113C112.289 96.4908 116.997 97.5697 121.75 97.4483C126.504 97.5692 131.212 96.4903 135.437 94.3113C140.318 91.8089 145.748 90.564 151.232 90.6897C156.719 90.5577 162.151 91.803 167.031 94.3113C171.269 96.4485 175.977 97.486 180.722 97.3281C181.434 97.3281 182.117 97.6108 182.621 98.114C183.125 98.6173 183.408 99.2998 183.408 100.011C183.408 100.723 183.125 101.406 182.621 101.909C182.117 102.412 181.434 102.695 180.722 102.695V102.683Z" fill="#C4C4C4"/>
</svg>
