<svg width="32" height="32" viewBox="0 0 32 32" fill="none" xmlns="http://www.w3.org/2000/svg">
<path d="M31.4667 22.3981H29.8667V15.9981C29.8667 14.8199 28.9115 13.8648 27.7333 13.8648H25.6V8.53147C25.6 7.35327 24.6449 6.39814 23.4667 6.39814H17.0763L19.8933 4.21147C20.9188 3.41314 21.1029 1.93474 20.3047 0.909274C19.5064 -0.116192 18.0279 -0.300326 17.0025 0.497941C16.7605 0.686341 16.5577 0.920208 16.4054 1.18641L16.1446 1.64294L15.8838 1.18641C15.2377 0.0588077 13.7999 -0.331592 12.6723 0.314474C11.5447 0.960541 11.1543 2.39834 11.8004 3.52594C11.9521 3.79081 12.154 4.02361 12.3947 4.21141L15.2097 6.39807H8.53333C7.35513 6.39807 6.4 7.35321 6.4 8.53141V13.8647H4.26667C3.08847 13.8647 2.13333 14.8199 2.13333 15.9981L2.13333 22.3981H0.533333C0.2388 22.3981 0 22.6369 0 22.9314C0.00173333 24.4034 1.19467 25.5963 2.66667 25.5981H14.4V28.7981H12.2667C10.7947 28.7998 9.60173 29.9927 9.6 31.4647C9.6 31.7593 9.8388 31.9981 10.1333 31.9981H21.8667C22.1612 31.9981 22.4 31.7593 22.4 31.4647C22.3983 29.9927 21.2053 28.7998 19.7333 28.7981H17.6V25.5981H29.3333C30.8053 25.5963 31.9983 24.4034 32 22.9314C32 22.6369 31.7612 22.3981 31.4667 22.3981ZM13.0501 3.36667C12.5037 2.94407 12.3897 2.16494 12.792 1.60347C13.0299 1.26354 13.4197 1.06214 13.8347 1.06481C13.8576 1.06481 13.8811 1.06481 13.904 1.06481C14.3433 1.08261 14.7418 1.32741 14.9563 1.71121L15.68 2.97947C15.8263 3.23514 16.1521 3.32381 16.4078 3.17754C16.4903 3.13034 16.5587 3.06194 16.6059 2.97947L17.3301 1.71281C17.6823 1.09614 18.4677 0.881741 19.0845 1.23394C19.2459 1.32614 19.3854 1.45221 19.4933 1.60347C19.896 2.16454 19.7827 2.94361 19.2368 3.36667L16.1435 5.77307L13.0501 3.36667ZM7.46667 9.59814H8V8.53147H7.46667C7.46667 7.94234 7.9442 7.46481 8.53333 7.46481H23.4667C24.0558 7.46481 24.5333 7.94234 24.5333 8.53147H24V9.59814H24.5333V11.0141C23.8313 10.7653 23.2384 10.279 22.8571 9.63921C22.7053 9.38681 22.3776 9.30521 22.1251 9.45701C22.0504 9.50194 21.9878 9.56454 21.9429 9.63921C21.0407 11.1541 19.0813 11.6507 17.5663 10.7485C17.1101 10.4768 16.7287 10.0955 16.457 9.63921C16.3052 9.38681 15.9775 9.30521 15.7251 9.45701C15.6503 9.50194 15.5878 9.56454 15.5429 9.63921C14.6407 11.1541 12.6813 11.6507 11.1663 10.7485C10.71 10.4768 10.3287 10.0955 10.057 9.63921C9.884 9.38681 9.53907 9.32241 9.28667 9.49541C9.23027 9.53407 9.18153 9.58281 9.14287 9.63921C8.76153 10.279 8.1686 10.7653 7.4666 11.0141V9.59814H7.46667ZM7.46667 12.1251C8.2934 11.9137 9.037 11.4575 9.6 10.8163C11.1528 12.5836 13.8443 12.7575 15.6117 11.2046C15.7493 11.0837 15.8791 10.9539 16 10.8163C17.5528 12.5836 20.2443 12.7575 22.0117 11.2046C22.1493 11.0837 22.2791 10.9539 22.4 10.8163C22.963 11.4575 23.7066 11.9137 24.5333 12.1251V13.8648L7.46667 13.8648V12.1251ZM3.2 17.0648H4.26667V15.9981H3.2C3.2 15.409 3.67753 14.9315 4.26667 14.9315L27.7333 14.9315C28.3225 14.9315 28.8 15.409 28.8 15.9981H27.7333V17.0648H28.8V18.6648C27.6741 18.6679 26.6305 18.0749 26.0571 17.1059C25.9053 16.8535 25.5776 16.7719 25.3251 16.9237C25.2504 16.9686 25.1878 17.0312 25.1429 17.1059C24.2407 18.6207 22.2813 19.1174 20.7663 18.2152C20.3101 17.9435 19.9287 17.5621 19.657 17.1059C19.484 16.8535 19.1391 16.7891 18.8867 16.9621C18.8303 17.0007 18.7815 17.0495 18.7429 17.1059C17.8407 18.6207 15.8813 19.1174 14.3663 18.2152C13.91 17.9435 13.5287 17.5621 13.257 17.1059C13.084 16.8535 12.7391 16.7891 12.4867 16.9621C12.4303 17.0007 12.3815 17.0495 12.3429 17.1059C11.4407 18.6207 9.48127 19.1174 7.96633 18.2152C7.51 17.9435 7.12873 17.5621 6.857 17.1059C6.684 16.8535 6.33907 16.7891 6.08667 16.9621C6.03027 17.0007 5.98153 17.0495 5.94287 17.1059C5.36947 18.0748 4.32593 18.6679 3.2 18.6648V17.0648ZM3.2 19.7315C4.42633 19.7363 5.59413 19.2078 6.4 18.2835C7.9528 20.0508 10.6443 20.2247 12.4117 18.6718C12.5493 18.5509 12.6791 18.4211 12.8 18.2835C14.3528 20.0508 17.0443 20.2247 18.8117 18.6718C18.9493 18.5509 19.0791 18.4211 19.2 18.2835C20.7528 20.0508 23.4443 20.2247 25.2117 18.6718C25.3493 18.5509 25.4791 18.4211 25.6 18.2835C26.4059 19.2078 27.5737 19.7363 28.8 19.7315V22.3981H3.2L3.2 19.7315ZM19.7333 29.8648C20.4112 29.8656 21.0153 30.2927 21.2421 30.9315H10.7579C10.9847 30.2927 11.5888 29.8656 12.2667 29.8648H19.7333ZM15.4667 28.7981V25.5981H16.5333V28.7981H15.4667ZM29.3333 24.5315H2.66667C1.9888 24.5307 1.38473 24.1036 1.15787 23.4648H30.8421C30.6153 24.1035 30.0112 24.5306 29.3333 24.5315Z" fill="#C4C4C4"/>
<path d="M13.3333 8.53171H12.2666V9.59837H13.3333V8.53171Z" fill="#C4C4C4"/>
<path d="M19.7333 8.53171H18.6666V9.59837H19.7333V8.53171Z" fill="#C4C4C4"/>
<path d="M10.1333 15.9983H9.06665V17.065H10.1333V15.9983Z" fill="#C4C4C4"/>
<path d="M16.5333 15.9983H15.4667V17.065H16.5333V15.9983Z" fill="#C4C4C4"/>
<path d="M22.9334 15.9983H21.8667V17.065H22.9334V15.9983Z" fill="#C4C4C4"/>
</svg>
