<svg width="337" height="362" viewBox="0 0 337 362" fill="none" xmlns="http://www.w3.org/2000/svg">
<rect x="54.031" y="243.388" width="27.6728" height="127.057" rx="13.8364" transform="rotate(-110.438 54.031 243.388)" fill="url(#paint0_angular_44_290)"/>
<rect x="119.059" y="54.0303" width="27.6728" height="127.057" rx="13.8364" transform="rotate(-20.4382 119.059 54.0303)" fill="url(#paint1_angular_44_290)"/>
<rect x="243.389" y="308.416" width="27.6728" height="127.057" rx="13.8364" transform="rotate(159.562 243.389 308.416)" fill="url(#paint2_angular_44_290)"/>
<rect x="308.417" y="119.058" width="27.6728" height="127.057" rx="13.8364" transform="rotate(69.5618 308.417 119.058)" fill="url(#paint3_angular_44_290)"/>
<rect x="223.108" y="209.599" width="17.0265" height="78.1753" rx="8.51324" transform="rotate(-65.4382 223.108 209.599)" fill="url(#paint4_angular_44_290)"/>
<rect x="152.336" y="223.125" width="17.0265" height="78.1753" rx="8.51324" transform="rotate(24.5618 152.336 223.125)" fill="url(#paint5_angular_44_290)"/>
<rect width="17.0265" height="78.1753" rx="8.51324" transform="matrix(0.909513 0.415675 0.415675 -0.909513 194.266 132.205)" fill="url(#paint6_angular_44_290)"/>
<rect width="17.0265" height="78.1753" rx="8.51324" transform="matrix(0.415675 -0.909513 -0.909513 -0.415675 131.902 168.295)" fill="url(#paint7_angular_44_290)"/>
<defs>
<radialGradient id="paint0_angular_44_290" cx="0" cy="0" r="1" gradientUnits="userSpaceOnUse" gradientTransform="translate(67.8674 306.916) rotate(90) scale(63.5285 13.8364)">
<stop stop-color="white"/>
<stop offset="1" stop-color="#D2D2D2"/>
</radialGradient>
<radialGradient id="paint1_angular_44_290" cx="0" cy="0" r="1" gradientUnits="userSpaceOnUse" gradientTransform="translate(132.896 117.559) rotate(90) scale(63.5285 13.8364)">
<stop stop-color="white"/>
<stop offset="1" stop-color="#D2D2D2"/>
</radialGradient>
<radialGradient id="paint2_angular_44_290" cx="0" cy="0" r="1" gradientUnits="userSpaceOnUse" gradientTransform="translate(257.226 371.945) rotate(90) scale(63.5285 13.8364)">
<stop stop-color="white"/>
<stop offset="1" stop-color="#D2D2D2"/>
</radialGradient>
<radialGradient id="paint3_angular_44_290" cx="0" cy="0" r="1" gradientUnits="userSpaceOnUse" gradientTransform="translate(322.253 182.586) rotate(90) scale(63.5285 13.8364)">
<stop stop-color="white"/>
<stop offset="1" stop-color="#D2D2D2"/>
</radialGradient>
<radialGradient id="paint4_angular_44_290" cx="0" cy="0" r="1" gradientUnits="userSpaceOnUse" gradientTransform="translate(231.621 248.686) rotate(90) scale(39.0877 8.51324)">
<stop stop-color="white"/>
<stop offset="1" stop-color="#D2D2D2"/>
</radialGradient>
<radialGradient id="paint5_angular_44_290" cx="0" cy="0" r="1" gradientUnits="userSpaceOnUse" gradientTransform="translate(160.85 262.213) rotate(90) scale(39.0877 8.51324)">
<stop stop-color="white"/>
<stop offset="1" stop-color="#D2D2D2"/>
</radialGradient>
<radialGradient id="paint6_angular_44_290" cx="0" cy="0" r="1" gradientUnits="userSpaceOnUse" gradientTransform="translate(8.51324 39.0877) rotate(90) scale(39.0877 8.51324)">
<stop stop-color="white"/>
<stop offset="1" stop-color="#D2D2D2"/>
</radialGradient>
<radialGradient id="paint7_angular_44_290" cx="0" cy="0" r="1" gradientUnits="userSpaceOnUse" gradientTransform="translate(8.51324 39.0877) rotate(90) scale(39.0877 8.51324)">
<stop stop-color="white"/>
<stop offset="1" stop-color="#D2D2D2"/>
</radialGradient>
</defs>
</svg>
