<svg width="145" height="31" viewBox="0 0 145 31" fill="none" xmlns="http://www.w3.org/2000/svg">
<path d="M3.71591 30H0.0227273L10.7045 0.90909H14.3409L25.0227 30H21.3295L12.6364 5.51136H12.4091L3.71591 30ZM5.07955 18.6364H19.9659V21.7614H5.07955V18.6364ZM29.0994 30V8.18182H32.3381V11.4773H32.5653C32.9631 10.3977 33.6828 9.52178 34.7244 8.84943C35.7661 8.17708 36.9403 7.84091 38.2472 7.84091C38.4934 7.84091 38.8011 7.84564 39.1705 7.85511C39.5398 7.86458 39.8191 7.87879 40.0085 7.89773V11.3068C39.8949 11.2784 39.6345 11.2358 39.2273 11.179C38.8295 11.1127 38.4081 11.0795 37.9631 11.0795C36.9025 11.0795 35.9555 11.3021 35.1222 11.7472C34.2983 12.1828 33.6449 12.7888 33.1619 13.5653C32.6884 14.3324 32.4517 15.2083 32.4517 16.1932V30H29.0994ZM43.9822 30V8.18182H47.2209V11.5909H47.505C47.9595 10.4261 48.6934 9.52178 49.7067 8.87784C50.7199 8.22443 51.9368 7.89773 53.3572 7.89773C54.7966 7.89773 55.9946 8.22443 56.951 8.87784C57.9169 9.52178 58.6697 10.4261 59.2095 11.5909H59.4368C59.9955 10.464 60.8336 9.56913 61.951 8.90625C63.0684 8.2339 64.4084 7.89773 65.9709 7.89773C67.9216 7.89773 69.5173 8.50852 70.7578 9.73011C71.9983 10.9422 72.6186 12.8314 72.6186 15.3977V30H69.2663V15.3977C69.2663 13.7879 68.826 12.6373 67.9453 11.946C67.0646 11.2547 66.0277 10.9091 64.8345 10.9091C63.3004 10.9091 62.112 11.3731 61.2692 12.3011C60.4264 13.2197 60.005 14.3845 60.005 15.7955V30H56.5959V15.0568C56.5959 13.8163 56.1934 12.8172 55.3885 12.0597C54.5836 11.2926 53.5466 10.9091 52.2777 10.9091C51.4065 10.9091 50.5921 11.1411 49.8345 11.6051C49.0864 12.0691 48.4804 12.7131 48.0163 13.5369C47.5618 14.3513 47.3345 15.2936 47.3345 16.3636V30H43.9822ZM79.2024 30V0.90909H89.3729C91.3994 0.90909 93.0708 1.25947 94.3871 1.96023C95.7034 2.65151 96.6835 3.58428 97.3274 4.75852C97.9714 5.92329 98.2933 7.21591 98.2933 8.63636C98.2933 9.88636 98.0708 10.9186 97.6257 11.733C97.1901 12.5473 96.6125 13.1913 95.8928 13.6648C95.1825 14.1383 94.4107 14.4886 93.5774 14.7159V15C94.4676 15.0568 95.3625 15.3693 96.2621 15.9375C97.1617 16.5057 97.9145 17.3201 98.5206 18.3807C99.1267 19.4413 99.4297 20.7386 99.4297 22.2727C99.4297 23.7311 99.0982 25.0426 98.4354 26.2074C97.7725 27.3722 96.7261 28.2955 95.2962 28.9773C93.8662 29.6591 92.0054 30 89.7138 30H79.2024ZM82.7251 26.875H89.7138C92.0149 26.875 93.6484 26.4299 94.6143 25.5398C95.5897 24.6402 96.0774 23.5511 96.0774 22.2727C96.0774 21.2879 95.8265 20.3788 95.3246 19.5455C94.8227 18.7027 94.1077 18.0303 93.1797 17.5284C92.2517 17.017 91.1532 16.7614 89.8842 16.7614H82.7251V26.875ZM82.7251 13.6932H89.2592C90.3198 13.6932 91.2763 13.4848 92.1286 13.0682C92.9903 12.6515 93.6721 12.0644 94.174 11.3068C94.6854 10.5492 94.9411 9.65909 94.9411 8.63636C94.9411 7.35795 94.496 6.27367 93.6058 5.38352C92.7157 4.4839 91.3047 4.03409 89.3729 4.03409H82.7251V13.6932ZM113.627 30.4545C111.657 30.4545 109.929 29.9858 108.442 29.0483C106.965 28.1108 105.81 26.7992 104.977 25.1136C104.153 23.428 103.741 21.4583 103.741 19.2045C103.741 16.9318 104.153 14.9479 104.977 13.2528C105.81 11.5578 106.965 10.2415 108.442 9.30398C109.929 8.36648 111.657 7.89773 113.627 7.89773C115.597 7.89773 117.32 8.36648 118.798 9.30398C120.284 10.2415 121.44 11.5578 122.263 13.2528C123.097 14.9479 123.513 16.9318 123.513 19.2045C123.513 21.4583 123.097 23.428 122.263 25.1136C121.44 26.7992 120.284 28.1108 118.798 29.0483C117.32 29.9858 115.597 30.4545 113.627 30.4545ZM113.627 27.4432C115.123 27.4432 116.354 27.0597 117.32 26.2926C118.286 25.5256 119.001 24.517 119.465 23.267C119.929 22.017 120.161 20.6629 120.161 19.2045C120.161 17.7462 119.929 16.3873 119.465 15.1278C119.001 13.8684 118.286 12.8504 117.32 12.0739C116.354 11.2973 115.123 10.9091 113.627 10.9091C112.131 10.9091 110.9 11.2973 109.934 12.0739C108.968 12.8504 108.253 13.8684 107.789 15.1278C107.325 16.3873 107.093 17.7462 107.093 19.2045C107.093 20.6629 107.325 22.017 107.789 23.267C108.253 24.517 108.968 25.5256 109.934 26.2926C110.9 27.0597 112.131 27.4432 113.627 27.4432ZM130.232 8.18182L135.46 17.1023L140.687 8.18182H144.55L137.505 19.0909L144.55 30H140.687L135.46 21.5341L130.232 30H126.369L133.3 19.0909L126.369 8.18182H130.232Z" fill="white"/>
</svg>
