<svg width="159" height="32" viewBox="0 0 159 32" fill="none" xmlns="http://www.w3.org/2000/svg">
    <path d="M24.1187 2.65283C21.0341 0.574185 17.3007 -0.329369 13.6017 0.107524C9.44514 0.440728 5.29787 1.89387 3.37301 5.82752C3.31722 5.92934 3.27073 6.0404 3.22423 6.14221C2.42571 8.1164 1.85785 10.1754 1.53185 12.2787C0.406692 17.8321 -1.56466 24.7739 2.19206 29.7997C3.52179 31.5675 5.40015 31.7249 7.49238 31.5305C10.7935 31.2251 12.8485 29.5961 13.7412 26.4677C14.132 25.002 14.2735 23.4816 14.1596 21.9694C13.9644 18.3689 13.1089 14.8703 12.6439 11.3069C12.4208 9.65937 12.1883 7.99335 12.9694 6.41063C13.1735 5.99898 13.5023 5.66145 13.9093 5.44559C14.3164 5.22973 14.7812 5.14642 15.2383 5.2074C15.6429 5.22741 16.0298 5.37837 16.3404 5.63731C16.6509 5.89626 16.8679 6.24904 16.9586 6.64203C17.2779 7.65551 17.3917 8.72206 17.2933 9.7797C17.1353 13.0655 16.9028 16.3512 16.7726 19.6462C16.6322 22.2697 17.0472 24.8933 17.9907 27.3469C19.4693 31.0492 23.5049 31.9748 26.3597 31.5027C26.9292 31.3659 27.4345 31.0393 27.7917 30.5772C29.3539 28.9759 29.7166 26.8749 29.9118 24.8294C30.4809 19.3538 29.8463 13.8205 28.0521 8.61347C27.2245 6.32732 26.2202 4.12448 24.1187 2.65283Z" fill="#FEBECE"/>
    <path d="M88.6804 2.65307C85.5991 0.575067 81.8688 -0.328531 78.1727 0.107762C74.0162 0.440966 69.8689 1.89411 67.944 5.82776C67.8975 5.92957 67.8511 6.04064 67.7953 6.14245C66.9967 8.11664 66.4289 10.1757 66.1029 12.279C64.987 17.8324 63.0064 24.7741 66.7631 29.7999C68.0928 31.5678 69.9805 31.7251 72.0634 31.5307C75.3738 31.2253 77.4288 29.5963 78.3215 26.4679C78.7078 25.0014 78.8491 23.4818 78.74 21.9696C78.5354 18.3692 77.6799 14.8705 77.2149 11.3071C77.0011 9.65961 76.7593 7.99359 77.5497 6.41087C77.7527 5.9983 78.0813 5.65995 78.4886 5.44393C78.896 5.22791 79.3614 5.14523 79.8186 5.20763C80.2216 5.22961 80.6064 5.38144 80.9151 5.64024C81.2237 5.89903 81.4394 6.25074 81.5296 6.64227C81.8489 7.65575 81.9627 8.7223 81.8644 9.77994C81.7156 13.0657 81.4738 16.3514 81.3529 19.6465C81.1927 22.2669 81.592 24.8915 82.5246 27.3472C84.0031 31.0494 88.0481 31.975 90.8935 31.503C91.4646 31.364 91.9722 31.038 92.3348 30.5774C93.897 28.9762 94.2597 26.8751 94.455 24.8296C94.9999 19.3501 94.3464 13.818 92.5394 8.61371C91.8234 6.32756 90.7819 4.12472 88.6804 2.65307Z" fill="#FEBECE"/>
    <path d="M121.924 2.65264C118.838 0.575529 115.106 -0.327884 111.407 0.10733C107.25 0.440534 103.103 1.89367 101.178 5.82733L101.038 6.14202C100.233 8.1144 99.6615 10.1739 99.3368 12.2785C98.2209 17.8319 96.2496 24.7737 100.006 29.7995C101.336 31.5673 103.214 31.7247 105.297 31.5303C108.608 31.2249 110.663 29.5959 111.555 26.4675C111.946 25.0018 112.088 23.4814 111.974 21.9692C111.769 18.3688 110.914 14.8701 110.449 11.3067C110.235 9.65917 109.993 7.99316 110.784 6.41044C110.987 5.99787 111.315 5.65951 111.723 5.44349C112.13 5.22748 112.595 5.1448 113.053 5.2072C113.456 5.22918 113.84 5.38101 114.149 5.6398C114.458 5.8986 114.673 6.25031 114.764 6.64183C115.071 7.65132 115.175 8.7113 115.07 9.76099C114.922 13.0467 114.68 16.3325 114.559 19.6275C114.417 22.242 114.833 24.8568 115.777 27.3005C117.256 31.0027 121.301 31.9283 124.146 31.4563C124.717 31.3173 125.225 30.9913 125.587 30.5307C127.15 28.9295 127.512 26.8284 127.707 24.7829C128.252 19.3034 127.599 13.7713 125.792 8.56701C125.029 6.32714 124.016 4.12429 121.924 2.65264Z" fill="#FEBECE"/>
    <path d="M155.604 7.90938C154.776 5.46709 153.443 3.22508 151.689 1.32861C148.62 -1.67023 147.839 3.82764 147.523 5.84537C146.965 9.31625 146.677 12.8797 145.384 16.1839C145.046 17.1455 144.543 18.0413 143.897 18.8311C143.238 19.6165 142.317 20.1391 141.302 20.3027C141.114 20.3399 140.92 20.3394 140.731 20.3013C140.543 20.2631 140.364 20.1881 140.205 20.0806C139.921 19.7846 139.753 19.3972 139.731 18.9884C138.931 14.3606 139.312 9.61242 138.95 4.95682C138.911 3.78438 138.74 2.62002 138.438 1.48595C138.076 0.319737 137.313 0.12537 136.355 0.865823C135.23 1.85259 134.408 3.13609 133.984 4.56809C132.118 9.62123 131.256 14.9871 131.445 20.3675C131.447 23.0557 131.938 25.7214 132.896 28.2348C133.358 29.5308 134.278 30.6149 135.485 31.2844C136.691 31.9539 138.102 32.1629 139.452 31.8723C141.525 31.5113 142.846 30.1322 144.101 28.6328C145.276 27.0043 146.259 25.2465 147.03 23.3941C147.387 22.4229 147.885 21.5091 148.509 20.6822C148.654 21.0301 148.724 21.4047 148.712 21.7813C148.701 22.1579 148.61 22.5279 148.444 22.8665C148.018 24.3713 147.823 25.9316 147.867 27.4944C147.898 28.2573 148.16 28.9932 148.618 29.6058C149.076 30.2184 149.708 30.6793 150.434 30.9282C151.752 31.4398 153.181 31.6024 154.581 31.4003C155.145 31.3382 155.689 31.1515 156.171 30.8536C156.654 30.5558 157.064 30.1543 157.371 29.6787C158.556 27.8104 159.118 25.6177 158.979 23.4126C158.846 18.0793 157.7 12.8193 155.604 7.90938Z" fill="#FEBECE"/>
    <path d="M57.3432 10.5288C56.0498 7.53586 54.2261 4.79887 51.9591 2.44863C49.5415 0.0329058 47.1796 -0.328061 44.7154 1.2454C44.0148 1.7018 43.3635 2.22909 42.7719 2.81886C41.0028 4.6942 39.5009 6.80262 38.3085 9.08495C35.4361 14.05 33.726 19.596 33.3057 25.3101C33.2466 26.6025 33.4102 27.8953 33.7893 29.1327C34.022 29.8803 34.4986 30.5293 35.1437 30.977C35.7888 31.4246 36.5654 31.6452 37.3507 31.604C38.0748 31.5621 38.7785 31.3498 39.4041 30.9845C40.0297 30.6193 40.5593 30.1115 40.9494 29.5029C42.1489 27.985 43.2369 26.3838 44.4643 24.8751C45.8498 23.1998 47.7003 23.3294 48.8626 25.1343C49.3555 25.9025 49.7925 26.6985 50.2296 27.4945C50.8317 28.6763 51.6446 29.7395 52.6287 30.6321C53.2251 31.1807 53.9535 31.5669 54.7436 31.7535C55.5338 31.9402 56.3589 31.9209 57.1393 31.6977C57.9198 31.4744 58.6292 31.0546 59.1992 30.4789C59.7692 29.9031 60.1804 29.1908 60.3932 28.4108C60.828 26.9088 60.9886 25.3414 60.8674 23.7829C60.548 19.1824 59.352 14.6843 57.3432 10.5288ZM44.6131 16.7672C44.3761 16.8485 44.1227 16.8711 43.875 16.8332C43.6272 16.7952 43.3924 16.6977 43.191 16.5492C42.9896 16.4006 42.8275 16.2054 42.7188 15.9806C42.6102 15.7557 42.5582 15.5078 42.5673 15.2585C42.3978 14.2294 42.4781 13.1748 42.8016 12.1829C43.1252 11.1911 43.6825 10.2907 44.4271 9.55698C44.7629 9.14037 45.2257 8.84374 45.7457 8.71185C46.2656 8.57995 46.8146 8.61995 47.3097 8.82579C47.7986 9.03085 48.2162 9.37443 48.5105 9.81381C48.8048 10.2532 48.9628 10.769 48.9649 11.2971C48.9835 13.3796 46.5379 16.3784 44.6131 16.7672Z" fill="#FEBECE"/>
    </svg>
    