<svg width="171" height="35" viewBox="0 0 171 35" fill="none" xmlns="http://www.w3.org/2000/svg">
<path d="M25.9374 2.86617C22.6202 0.620361 18.6053 -0.355856 14.6274 0.116171C10.1574 0.476171 5.69736 2.04617 3.62736 6.29617C3.56736 6.40617 3.51736 6.52617 3.46736 6.63617C2.60862 8.76912 1.99795 10.9937 1.64736 13.2662C0.437359 19.2662 -1.68264 26.7662 2.35736 32.1962C3.78736 34.1062 5.80735 34.2762 8.05735 34.0662C11.6074 33.7362 13.8174 31.9762 14.7774 28.5962C15.1977 27.0127 15.3498 25.3699 15.2274 23.7362C15.0174 19.8462 14.0974 16.0662 13.5974 12.2162C13.3574 10.4362 13.1074 8.63618 13.9474 6.92618C14.1669 6.48142 14.5204 6.11675 14.9582 5.88353C15.3959 5.65031 15.8958 5.56029 16.3874 5.62617C16.8225 5.6478 17.2386 5.81089 17.5725 6.09067C17.9064 6.37044 18.1399 6.75159 18.2374 7.17618C18.5808 8.27116 18.7032 9.42349 18.5974 10.5662C18.4274 14.1162 18.1774 17.6662 18.0374 21.2262C17.8864 24.0606 18.3327 26.8952 19.3474 29.5462C20.9374 33.5462 25.2774 34.5462 28.3474 34.0362C28.9598 33.8884 29.5032 33.5355 29.8874 33.0362C31.5674 31.3062 31.9574 29.0362 32.1674 26.8262C32.7793 20.9102 32.0969 14.932 30.1674 9.30617C29.2774 6.83617 28.1974 4.45617 25.9374 2.86617Z" fill="white"/>
<path d="M95.3674 2.86614C92.0537 0.62103 88.0421 -0.355234 84.0674 0.116145C79.5974 0.476145 75.1374 2.04614 73.0674 6.29614C73.0174 6.40614 72.9674 6.52614 72.9074 6.63614C72.0486 8.76909 71.4379 10.9937 71.0874 13.2661C69.8874 19.2661 67.7574 26.7661 71.7974 32.1961C73.2274 34.1061 75.2574 34.2762 77.4974 34.0662C81.0574 33.7362 83.2674 31.9761 84.2274 28.5961C84.6428 27.0118 84.7948 25.3699 84.6774 23.7361C84.4574 19.8461 83.5374 16.0661 83.0374 12.2161C82.8074 10.4361 82.5474 8.63615 83.3974 6.92615C83.6157 6.4804 83.969 6.11483 84.4071 5.88144C84.8451 5.64805 85.3456 5.55872 85.8374 5.62615C86.2707 5.64989 86.6846 5.81393 87.0165 6.09354C87.3484 6.37314 87.5804 6.75314 87.6774 7.17615C88.0208 8.27114 88.1432 9.42346 88.0374 10.5661C87.8774 14.1161 87.6174 17.6661 87.4874 21.2261C87.315 24.0573 87.7444 26.8929 88.7474 29.5461C90.3374 33.5461 94.6874 34.5462 97.7474 34.0362C98.3615 33.886 98.9074 33.5338 99.2974 33.0362C100.977 31.3062 101.367 29.0361 101.577 26.8261C102.163 20.9059 101.461 14.929 99.5174 9.30614C98.7474 6.83614 97.6274 4.45614 95.3674 2.86614Z" fill="white"/>
<path d="M131.117 2.86617C127.8 0.622017 123.785 -0.354048 119.807 0.116167C115.337 0.476167 110.877 2.04617 108.807 6.29617L108.657 6.63616C107.791 8.76716 107.177 10.9923 106.827 13.2662C105.627 19.2662 103.507 26.7662 107.547 32.1962C108.977 34.1062 110.997 34.2762 113.237 34.0662C116.797 33.7362 119.007 31.9762 119.967 28.5962C120.388 27.0127 120.54 25.3699 120.417 23.7362C120.197 19.8462 119.277 16.0662 118.777 12.2162C118.547 10.4362 118.287 8.63617 119.137 6.92617C119.356 6.48042 119.709 6.11485 120.147 5.88146C120.585 5.64807 121.086 5.55874 121.577 5.62617C122.011 5.64991 122.425 5.81396 122.757 6.09356C123.088 6.37317 123.32 6.75316 123.417 7.17617C123.748 8.26685 123.86 9.41206 123.747 10.5462C123.587 14.0962 123.327 17.6462 123.197 21.2062C123.045 24.0309 123.492 26.856 124.507 29.4962C126.097 33.4962 130.447 34.4962 133.507 33.9862C134.122 33.836 134.667 33.4838 135.057 32.9862C136.737 31.2562 137.127 28.9862 137.337 26.7762C137.923 20.8559 137.221 14.879 135.277 9.25617C134.457 6.83617 133.367 4.45617 131.117 2.86617Z" fill="white"/>
<path d="M167.337 8.54617C166.448 5.90747 165.013 3.48515 163.127 1.43617C159.827 -1.80383 158.987 4.13618 158.647 6.31618C158.047 10.0662 157.737 13.9162 156.347 17.4862C155.984 18.5251 155.443 19.4928 154.747 20.3462C154.039 21.1948 153.049 21.7594 151.957 21.9362C151.755 21.9763 151.546 21.9758 151.343 21.9346C151.141 21.8934 150.948 21.8124 150.777 21.6962C150.472 21.3764 150.291 20.9578 150.267 20.5162C149.407 15.5162 149.817 10.3862 149.427 5.35617C149.386 4.08943 149.202 2.83144 148.877 1.60617C148.487 0.346169 147.667 0.136171 146.637 0.936171C145.427 2.0023 144.543 3.38901 144.087 4.93617C142.081 10.3957 141.153 16.1931 141.357 22.0062C141.359 24.9106 141.887 27.7906 142.917 30.5062C143.414 31.9063 144.404 33.0777 145.701 33.801C146.999 34.5243 148.515 34.7501 149.967 34.4362C152.197 34.0462 153.617 32.5562 154.967 30.9362C156.231 29.1767 157.288 27.2775 158.117 25.2762C158.501 24.2268 159.037 23.2396 159.707 22.3462C159.864 22.722 159.938 23.1268 159.926 23.5337C159.914 23.9406 159.816 24.3403 159.637 24.7062C159.179 26.3319 158.97 28.0177 159.017 29.7062C159.051 30.5305 159.332 31.3255 159.825 31.9874C160.317 32.6493 160.998 33.1472 161.777 33.4162C163.195 33.9689 164.732 34.1446 166.237 33.9262C166.844 33.8591 167.429 33.6574 167.948 33.3356C168.467 33.0138 168.908 32.5801 169.237 32.0662C170.512 30.0476 171.117 27.6786 170.967 25.2962C170.824 19.534 169.592 13.8509 167.337 8.54617Z" fill="white"/>
<path d="M61.6674 11.3761C60.2765 8.14246 58.3153 5.18536 55.8774 2.64612C53.2774 0.0361223 50.7374 -0.353873 48.0874 1.34613C47.3339 1.83923 46.6336 2.40892 45.9974 3.04612C44.0948 5.07228 42.4797 7.35026 41.1974 9.81613C38.1083 15.1804 36.2694 21.1725 35.8174 27.3461C35.7538 28.7424 35.9297 30.1392 36.3374 31.4761C36.5876 32.2839 37.1002 32.9851 37.7939 33.4687C38.4877 33.9523 39.3229 34.1907 40.1674 34.1461C40.946 34.1009 41.7028 33.8715 42.3755 33.4769C43.0483 33.0823 43.6178 32.5337 44.0374 31.8761C45.3274 30.2361 46.4974 28.5061 47.8174 26.8761C49.3074 25.0661 51.2974 25.2061 52.5474 27.1561C53.0774 27.9861 53.5474 28.8461 54.0174 29.7061C54.6649 30.9831 55.5391 32.1317 56.5974 33.0961C57.2388 33.6888 58.0221 34.1061 58.8718 34.3077C59.7215 34.5094 60.6088 34.4886 61.4482 34.2473C62.2875 34.0061 63.0504 33.5526 63.6634 32.9305C64.2763 32.3085 64.7185 31.5389 64.9474 30.6961C65.415 29.0734 65.5877 27.3799 65.4574 25.6961C65.1139 20.7256 63.8277 15.8658 61.6674 11.3761ZM47.9774 18.1161C47.7225 18.204 47.45 18.2285 47.1836 18.1875C46.9171 18.1464 46.6646 18.0411 46.448 17.8806C46.2314 17.7201 46.0571 17.5092 45.9403 17.2663C45.8234 17.0233 45.7675 16.7555 45.7774 16.4861C45.595 15.3743 45.6814 14.2349 46.0293 13.1632C46.3773 12.0916 46.9766 11.1188 47.7774 10.3261C48.1385 9.87601 48.6361 9.55552 49.1953 9.41302C49.7545 9.27052 50.3449 9.31373 50.8774 9.53613C51.4031 9.75767 51.8522 10.1289 52.1686 10.6036C52.4851 11.0783 52.6551 11.6356 52.6574 12.2061C52.6774 14.4561 50.0474 17.6961 47.9774 18.1161Z" fill="white"/>
</svg>
